<svg width="40" height="48" viewBox="0 0 40 48" fill="none" xmlns="http://www.w3.org/2000/svg">
<path d="M14.9304 45.2547C13.9529 44.5766 12.9755 43.8985 11.998 43.2204C11.0633 42.5728 9.5666 41.968 9.365 40.734C9.20617 39.7932 9.84151 38.1987 10.0248 37.2579C10.2203 36.2438 10.428 35.2358 10.6296 34.2217C10.8312 33.2076 11.0389 32.1996 11.2466 31.1855C11.4115 30.3852 11.4421 28.3326 11.9552 27.7156C12.6089 26.9336 13.6352 27.1719 14.6066 26.6892C17.5267 25.2292 18.3331 21.8692 19.0479 18.9918C20.0498 14.9415 20.8928 10.8851 21.3143 6.73093C21.6259 6.83478 21.858 6.38271 21.5404 6.26053C19.4511 5.48468 17.2029 5.18534 15.022 4.75159C13.9896 4.54999 12.9571 4.29341 11.9125 4.16512C11.6803 4.13458 9.99424 4.17123 9.79264 4.17734C9.78653 4.14069 9.74987 4.12236 9.71322 4.12847C9.60325 4.05516 9.4322 4.06127 9.37722 4.19567C9.365 4.22621 9.35889 4.25065 9.34667 4.28119C9.29169 4.43392 9.34667 4.60498 9.51773 4.65385C8.32646 8.5331 7.52617 12.4796 6.8725 16.4871C6.396 19.4133 5.80953 22.8161 7.92326 25.3086C8.6258 26.1394 9.66435 26.3227 9.95147 27.294C10.1836 28.0577 9.40166 29.9637 9.23671 30.7579C9.029 31.7659 8.8213 32.78 8.60748 33.788C8.39366 34.796 8.18595 35.8101 7.97213 36.8181C7.77054 37.7589 7.72166 39.4694 7.2085 40.2758C6.5365 41.3266 4.92371 41.2899 3.80575 41.5221C2.63892 41.7603 1.47209 41.9986 0.311368 42.2368C-0.262884 42.3529 0.0303512 43.2082 0.598494 43.0921C0.714566 43.0676 0.830639 43.0432 0.95282 43.0188C3.35979 43.6175 5.85229 43.8191 8.24704 44.5155C10.2814 45.1081 12.279 46.1466 14.4294 45.9511C14.8754 46.171 15.3824 45.5663 14.9304 45.2547ZM7.13519 43.7885C5.35135 43.3731 3.5003 43.0432 1.66147 42.8905C3.6347 42.4873 5.60793 42.0841 7.57505 41.6503C7.72166 41.6198 7.83774 41.4732 7.86828 41.3327C8.82129 36.4088 9.76209 31.4849 10.8495 26.5915C10.8801 26.451 10.8006 26.2433 10.6479 26.1944C6.05389 24.6122 7.37956 18.9674 7.95992 15.4363C8.54639 11.8503 9.20617 8.29485 9.71933 4.70272C11.2405 4.98985 12.896 4.96541 14.4539 5.27086C16.647 5.70461 19.0418 5.94286 21.1616 6.68206C20.178 10.2986 19.3594 13.9457 18.4675 17.5867C17.6122 21.0567 16.6042 26.7748 11.7598 26.4143C11.6009 26.4021 11.4421 26.561 11.4176 26.7015C10.4891 31.6254 9.41387 36.5309 8.3509 41.4243C8.32035 41.5648 8.36922 41.742 8.4914 41.8336C10.1775 43.0371 11.888 44.2223 13.5925 45.4074C11.3627 45.102 9.34667 44.3017 7.13519 43.7885Z" fill="white"/>
<path d="M18.0765 15.3142C18.2231 14.5811 18.718 13.2249 17.8138 12.7056C16.6409 12.0336 16.1644 13.5853 14.46 13.5914C13.678 13.5914 11.6498 12.7117 11.216 12.6628C10.5441 12.5956 10.0065 12.7178 9.32835 13.3165C9.18173 13.5059 9.06566 13.738 8.98013 14.019C7.65446 17.043 7.14741 22.0036 9.51162 24.3617C12.0713 26.9214 15.193 24.6794 16.366 22.0341C17.2823 19.9509 17.6245 17.5318 18.0765 15.3142ZM17.4962 16.0228C17.2213 17.2874 16.9952 18.5764 16.6531 19.8288C16.2621 21.2583 15.7245 22.7122 14.5883 23.7325C12.8899 25.2536 10.5624 24.7771 9.34667 22.9016C7.76443 20.458 8.38144 16.7559 9.31613 14.0313C9.75598 13.2432 10.8129 12.6445 12.224 13.3654C14.1117 14.1046 14.9853 13.8785 15.6512 13.6708C16.6042 13.3715 18.0093 11.7953 17.8444 14.4345C17.8199 14.7827 17.5756 15.6685 17.4962 16.0228Z" fill="white"/>
<path d="M14.6188 10.7507C14.4783 10.152 13.7574 9.8099 13.2443 10.207C12.78 10.5674 12.7983 11.2577 13.1465 11.6793C13.2381 11.942 13.5497 12.1313 13.8552 12.0764C14.4355 11.9725 14.7471 11.2883 14.6188 10.7507ZM14.0201 11.5265C13.9346 11.6487 13.8185 11.7465 13.6597 11.7465C13.623 11.7465 13.5864 11.7343 13.5497 11.7281C13.5497 11.7159 13.5558 11.7037 13.5497 11.6915C13.4764 11.4593 13.4336 11.1417 13.5008 10.9034C13.5803 10.6407 13.8491 10.543 14.0384 10.7812C14.2156 10.9889 14.1667 11.3188 14.0201 11.5265Z" fill="white"/>
<path d="M17.3801 8.43536C17.2946 8.17878 17.0869 7.9894 16.7142 7.95885C16.201 7.9222 15.639 8.3315 15.4557 8.78968C15.2541 9.29674 15.5474 9.8771 16.1216 9.91375C16.14 9.91375 16.1461 9.90153 16.1644 9.90153C16.2133 9.92597 16.256 9.95041 16.311 9.96262C16.7936 10.0726 17.2274 9.8099 17.4045 9.37005C17.5206 9.07681 17.5573 8.71027 17.3801 8.43536ZM17.038 8.49645C17.3434 8.99739 16.8058 9.5411 16.366 9.58997C16.3232 9.57775 16.2805 9.56554 16.2438 9.54721C16.2316 9.53499 16.2255 9.51666 16.2072 9.51055C15.9811 9.40059 15.8956 9.24175 15.8956 9.07681V9.0707C15.8956 9.04626 15.9017 9.02183 15.9078 8.99739C16.0178 8.6003 16.5615 8.30096 16.9219 8.38038C16.9647 8.40481 17.0013 8.44147 17.038 8.49645Z" fill="white"/>
<path d="M25.1753 47.4723C27.3012 47.8449 29.3783 46.9652 31.4493 46.5376C33.8868 46.0366 36.3915 46.0366 38.8412 45.6334C38.9573 45.664 39.0734 45.7007 39.1833 45.7312C39.7393 45.8961 40.0997 45.0653 39.5377 44.9004C38.3953 44.5705 37.2529 44.2345 36.1105 43.9046C35.017 43.5869 33.4103 43.4892 32.8177 42.3895C32.3717 41.5465 32.4573 39.8359 32.3351 38.8829C32.2007 37.8566 32.0724 36.8364 31.9441 35.8101C31.8158 34.7838 31.6875 33.7635 31.5592 32.7372C31.4615 31.9308 30.8323 29.9698 31.1255 29.2245C31.4981 28.2776 32.5428 28.1737 33.3125 27.404C35.6157 25.0887 35.3102 21.6493 35.0658 18.6925C34.7359 14.6483 34.2533 10.6468 33.3797 6.68206C33.5508 6.6454 33.6241 6.48046 33.5813 6.32162C33.5752 6.29108 33.563 6.26664 33.5569 6.2361C33.5141 6.09559 33.3431 6.07115 33.227 6.13835C33.1904 6.12613 33.1537 6.13835 33.1476 6.18111C32.946 6.16279 31.2721 5.99173 31.0339 6.00395C29.9831 6.04672 28.9323 6.21777 27.8877 6.33995C25.6823 6.59653 23.4158 6.7126 21.2716 7.3174C20.9417 7.40904 21.1372 7.87943 21.4548 7.80002C21.5465 11.9786 22.0535 16.0839 22.7316 20.2075C23.2081 23.1338 23.7457 26.5426 26.5376 28.2348C27.4662 28.7969 28.5108 28.6441 29.0973 29.475C29.5616 30.1286 29.4272 32.1813 29.5249 32.9877C29.6471 34.014 29.7754 35.0342 29.8915 36.0605C30.0136 37.0869 30.1358 38.1132 30.2519 39.1334C30.3619 40.0864 30.8628 41.7298 30.6307 42.6522C30.3252 43.8618 28.7857 44.3444 27.8022 44.9187C26.7758 45.5174 25.7434 46.1161 24.7171 46.7148C24.2406 47.0019 24.6988 47.6433 25.1753 47.4723ZM26.0489 46.9836C27.8449 45.9389 29.6349 44.9004 31.4187 43.8313C31.547 43.7519 31.6081 43.5747 31.5898 43.4342C30.9239 38.4675 30.2458 33.4947 29.7143 28.5097C29.696 28.3692 29.5555 28.1982 29.3966 28.1921C24.5399 28.1554 23.9962 22.3824 23.422 18.8513C22.8233 15.1553 22.2979 11.4532 21.6137 7.76947C23.7824 7.20133 26.1894 7.15856 28.4131 6.90198C29.9892 6.71871 31.6386 6.87755 33.1781 6.7126C33.4042 10.3292 33.7707 13.9335 34.0701 17.544C34.3633 21.1056 35.2308 26.8481 30.5268 28.0516C30.3741 28.0882 30.2763 28.2898 30.2947 28.4364C30.9789 33.4031 31.5287 38.3881 32.0785 43.3731C32.0968 43.5136 32.2007 43.6724 32.3412 43.7152C34.2655 44.3017 36.2021 44.8637 38.1387 45.4257C36.2938 45.438 34.4244 45.609 32.61 45.8839C30.3619 46.226 28.2909 46.8614 26.0489 46.9836Z" fill="white"/>
<path d="M25.163 23.4698C26.116 26.2005 29.0423 28.6869 31.8036 26.341C34.3449 24.1784 34.2411 19.1934 33.1598 16.0717C33.0987 15.7846 33.001 15.5463 32.8727 15.3386C32.2434 14.6849 31.7181 14.52 31.0399 14.5383C30.6001 14.5505 28.5108 15.2653 27.7288 15.1981C26.0305 15.0576 25.6823 13.4753 24.4544 14.0496C23.5075 14.4955 23.8923 15.8823 23.9779 16.6276C24.265 18.8757 24.4055 21.3133 25.163 23.4698ZM24.2955 15.7723C24.3383 13.1271 25.6151 14.8132 26.5437 15.1859C27.1912 15.4486 28.0465 15.7418 29.9831 15.1553C31.4431 14.5505 32.4511 15.2347 32.8299 16.0534C33.5447 18.8391 33.8562 22.584 32.0846 24.8871C30.7223 26.6648 28.3642 26.9519 26.7941 25.2964C25.7434 24.1906 25.328 22.6939 25.047 21.24C24.8087 19.9632 24.6804 18.6619 24.5094 17.379C24.4666 17.0247 24.2894 16.1206 24.2955 15.7723Z" fill="white"/>
<path d="M28.468 13.7441C28.7674 13.8236 29.0912 13.6586 29.2011 13.402C29.586 13.0049 29.6532 12.3207 29.2194 11.9236C28.7368 11.4838 27.9915 11.7709 27.8021 12.3513C27.6372 12.8828 27.8938 13.5914 28.468 13.7441ZM28.3703 12.4368C28.578 12.2169 28.8407 12.3329 28.8957 12.6017C28.9506 12.8461 28.8773 13.1516 28.7857 13.3837C28.7796 13.3959 28.7857 13.4081 28.7857 13.4204C28.749 13.4265 28.7124 13.4326 28.6757 13.4326C28.5169 13.4204 28.4069 13.3165 28.3336 13.1882C28.2114 12.9622 28.187 12.6323 28.3703 12.4368Z" fill="white"/>
<path d="M25.1447 10.7629C25.2852 11.215 25.6945 11.5082 26.1832 11.441C26.2382 11.4349 26.2871 11.4044 26.336 11.3921C26.3482 11.3983 26.3604 11.4105 26.3726 11.4105C26.9469 11.4166 27.2829 10.8668 27.124 10.3414C26.9835 9.87099 26.452 9.41892 25.9389 9.41281C25.5662 9.41281 25.3402 9.58998 25.2363 9.83434C25.0409 10.0848 25.047 10.4514 25.1447 10.7629ZM25.7067 9.80379C26.0672 9.75492 26.5864 10.097 26.6659 10.5002C26.6659 10.5247 26.672 10.5491 26.672 10.5735V10.5796C26.6598 10.7446 26.562 10.8973 26.3299 10.989C26.3115 10.9951 26.3054 11.0134 26.2932 11.0256C26.2504 11.0378 26.2077 11.05 26.1649 11.0562C25.7312 10.9706 25.2363 10.3903 25.5846 9.91376C25.6151 9.86488 25.6579 9.83434 25.7067 9.80379Z" fill="white"/>
<path d="M22.3956 0.0781582C22.3773 -0.037914 22.2185 -0.0134777 22.1879 0.0781582C21.8825 0.896773 21.8458 1.80091 21.7359 2.6684C21.6442 3.43203 21.5281 4.20178 21.5709 4.97152C21.577 5.06316 21.687 5.06926 21.7175 4.98985C22.249 3.62752 22.6156 1.54433 22.3956 0.0781582Z" fill="white"/>
<path d="M26.7819 2.59509C25.6334 3.42592 24.2467 4.30563 23.3609 5.42359C23.3487 5.44191 23.3609 5.46024 23.3853 5.45413C24.7049 4.90432 25.9206 3.81079 27.0385 2.93109C27.2157 2.77836 26.9774 2.45458 26.7819 2.59509Z" fill="white"/>
<path d="M18.7913 2.87611C18.3331 2.3935 17.8383 1.88033 17.2946 1.49546C17.2762 1.48325 17.2579 1.50768 17.264 1.52601C17.5756 2.1919 18.0399 2.81502 18.4736 3.40149C18.8157 3.85967 19.1456 4.45225 19.7076 4.64163C19.8482 4.6905 19.9459 4.54389 19.9276 4.4217C19.8298 3.80469 19.2067 3.30375 18.7913 2.87611Z" fill="white"/>
<path d="M20.8073 27.6423C20.8012 27.6239 20.7584 27.6239 20.7523 27.6423C20.0986 31.5521 20.5507 35.639 20.6912 39.561C20.6912 39.6221 20.8623 39.6221 20.8623 39.561C21.0089 35.6329 21.4671 31.546 20.8073 27.6423Z" fill="white"/>
<path d="M17.7222 27.3673C16.4698 28.7724 15.4313 30.5685 14.6982 32.2974C14.631 32.4562 14.8448 32.5906 14.9365 32.4318C15.9261 30.8129 16.9524 29.1206 17.7833 27.4162C17.8077 27.3735 17.7588 27.3307 17.7222 27.3673Z" fill="white"/>
<path d="M25.2608 30.373C24.6988 29.4444 23.9473 28.638 23.2509 27.8072C23.2204 27.7705 23.1654 27.8194 23.1837 27.8561C23.6419 28.8457 24.1367 29.8476 24.8881 30.6601C25.0714 30.8495 25.4013 30.599 25.2608 30.373Z" fill="white"/>
</svg>
