<svg width="41" height="26" viewBox="0 0 41 26" fill="none" xmlns="http://www.w3.org/2000/svg">
<path d="M0.890625 12.8833C0.65625 13.1177 0.65625 13.5083 0.890625 13.7427L12.7656 25.6177C12.8438 25.7739 13 25.7739 13.2344 25.7739C13.3906 25.7739 13.5469 25.6958 13.625 25.5396C13.8594 25.3052 13.8594 24.9146 13.625 24.6802L2.84375 13.8989H40.1094C40.4219 13.8989 40.7344 13.6646 40.7344 13.2739C40.7344 12.9614 40.4219 12.6489 40.1094 12.6489H2.84375L13.625 1.86768C13.8594 1.6333 13.8594 1.24268 13.625 1.0083C13.3906 0.773926 13 0.773926 12.7656 1.0083L0.890625 12.8833Z" fill="#666861"/>
</svg>
