<svg width="41" height="26" viewBox="0 0 41 26" fill="none" xmlns="http://www.w3.org/2000/svg">
<path d="M40.5781 12.8833C40.8125 13.1177 40.8125 13.5083 40.5781 13.7427L28.7031 25.6177C28.625 25.7739 28.4688 25.7739 28.2344 25.7739C28.0781 25.7739 27.9219 25.6958 27.8438 25.5396C27.6094 25.3052 27.6094 24.9146 27.8438 24.6802L38.625 13.8989H1.35938C1.04688 13.8989 0.734375 13.6646 0.734375 13.2739C0.734375 12.9614 1.04688 12.6489 1.35938 12.6489H38.625L27.8438 1.86768C27.6094 1.6333 27.6094 1.24268 27.8438 1.0083C28.0781 0.773926 28.4688 0.773926 28.7031 1.0083L40.5781 12.8833Z" fill="#84847C"/>
</svg>
