<svg width="40" height="40" viewBox="0 0 40 40" fill="none" xmlns="http://www.w3.org/2000/svg">
<path d="M26.7273 37.0831H1.54837C1.25075 37.0831 0.953125 36.845 0.953125 36.4878C0.953125 36.1307 1.19122 35.8926 1.54837 35.8926H26.7273C27.0249 35.8926 27.3225 36.1307 27.3225 36.4878C27.3225 36.845 27.0249 37.0831 26.7273 37.0831Z" fill="#4BAF47"/>
<path d="M26.7291 37.0817H5.18118C4.88356 37.0817 4.58594 36.8436 4.58594 36.4864V21.3076C4.58594 21.01 4.82404 20.7124 5.18118 20.7124C5.53833 20.7124 5.77643 20.9505 5.77643 21.3076V35.8912H26.7291C27.0267 35.8912 27.3243 36.1293 27.3243 36.4864C27.3243 36.8436 27.0267 37.0817 26.7291 37.0817Z" fill="#4BAF47"/>
<path d="M3.63173 22.5001C2.91744 22.5001 2.26267 22.262 1.72694 21.7263C1.25075 21.2501 0.953125 20.5358 0.953125 19.8215C0.953125 19.1667 1.25075 18.512 1.66742 17.9762L15.2986 4.34509C17.2033 2.44031 20.2391 2.44031 22.1439 4.34509L27.9773 10.1785C28.2154 10.4166 28.2154 10.7738 27.9773 11.0119C27.7392 11.2499 27.3821 11.2499 27.144 11.0119L21.3105 5.17844C19.882 3.74985 17.5605 3.74985 16.1319 5.17844L2.56029 18.7501C2.32219 19.0477 2.14362 19.4643 2.14362 19.8215C2.14362 20.1191 2.20314 20.5358 2.56029 20.8929C3.15554 21.4882 4.16745 21.4882 4.7627 20.8929L18.3343 7.32133C18.5724 7.08323 18.9296 7.08323 19.1677 7.32133L24.1082 12.2619C24.3463 12.5 24.3463 12.8571 24.1082 13.0952C23.8701 13.3333 23.513 13.3333 23.2749 13.0952L18.751 8.57134L5.59605 21.7263C5.06032 22.262 4.34603 22.5001 3.63173 22.5001Z" fill="#4BAF47"/>
<path d="M20.536 37.0851H12.0835C11.7859 37.0851 11.4883 36.847 11.4883 36.4898V25.6563C11.4883 24.7039 12.2621 23.8706 13.274 23.8706H19.4051C20.3574 23.8706 21.1313 24.7039 21.1313 25.6563V36.4898C21.1313 36.7874 20.8336 37.0851 20.536 37.0851ZM12.6788 35.8946H19.9408V25.6563C19.9408 25.2992 19.6432 25.0611 19.4051 25.0611H13.274C12.9169 25.0611 12.6788 25.3587 12.6788 25.6563V35.8946Z" fill="#4BAF47"/>
<path d="M30.4152 37.0242C29.6414 37.0242 28.9271 36.6075 28.5104 35.9528C26.4271 32.5003 21.7246 24.1669 21.7246 20.5954C21.7246 15.8335 25.5937 11.9644 30.3557 11.9644C35.1176 11.9644 39.0463 15.8335 39.0463 20.5954C39.0463 23.0955 36.7843 28.2146 32.3795 35.9528C31.9033 36.6075 31.189 37.0242 30.4152 37.0242ZM30.3557 13.1548C26.2485 13.1548 22.9151 16.4882 22.9151 20.5954C22.9151 23.9288 27.9747 32.7384 29.5223 35.3575C29.7009 35.6552 30.0581 35.8933 30.4747 35.8933C30.8914 35.8933 31.189 35.7147 31.4271 35.3575C36.7248 26.0122 37.8558 22.1431 37.8558 20.5954C37.8558 16.4882 34.5224 13.1548 30.3557 13.1548Z" fill="#4BAF47"/>
<path d="M30.4186 26.1292C27.3828 26.1292 24.8828 23.6292 24.8828 20.5934C24.8828 17.5577 27.3828 15.0576 30.4186 15.0576C33.4544 15.0576 35.9544 17.5577 35.9544 20.5934C35.9544 23.6292 33.4544 26.1292 30.4186 26.1292ZM30.4186 16.2481C28.0376 16.2481 26.0733 18.2124 26.0733 20.5934C26.0733 22.9744 28.0376 24.9387 30.4186 24.9387C32.7996 24.9387 34.7639 22.9744 34.7639 20.5934C34.7639 18.2124 32.7996 16.2481 30.4186 16.2481Z" fill="#4BAF47"/>
<path d="M13.8706 31.5473C13.573 31.5473 13.2754 31.3092 13.2754 30.9521V30.1783C13.2754 29.8806 13.5135 29.583 13.8706 29.583C14.2278 29.583 14.4659 29.8211 14.4659 30.1783V30.9521C14.4659 31.2497 14.1683 31.5473 13.8706 31.5473Z" fill="#4BAF47"/>
</svg>
