<svg width="40" height="40" viewBox="0 0 40 40" fill="none" xmlns="http://www.w3.org/2000/svg">
<path d="M35 36.6667H5C4.33718 36.6659 3.70172 36.4023 3.23303 35.9336C2.76435 35.4649 2.50072 34.8295 2.5 34.1667V7.5C2.50072 6.83718 2.76435 6.20172 3.23303 5.73303C3.70172 5.26435 4.33718 5.00072 5 5H35C35.6628 5.00072 36.2983 5.26435 36.767 5.73303C37.2357 6.20172 37.4993 6.83718 37.5 7.5V34.1667C37.4993 34.8295 37.2357 35.4649 36.767 35.9336C36.2983 36.4023 35.6628 36.6659 35 36.6667ZM5 6.66667C4.77905 6.66689 4.56722 6.75476 4.41099 6.91099C4.25476 7.06722 4.16689 7.27905 4.16667 7.5V34.1667C4.16689 34.3876 4.25476 34.5994 4.41099 34.7557C4.56722 34.9119 4.77905 34.9998 5 35H35C35.2209 34.9998 35.4328 34.9119 35.589 34.7557C35.7452 34.5994 35.8331 34.3876 35.8333 34.1667V7.5C35.8331 7.27905 35.7452 7.06722 35.589 6.91099C35.4328 6.75476 35.2209 6.66689 35 6.66667H5Z" fill="#4BAF47"/>
<path d="M7.49935 8.33333C7.38991 8.33336 7.28153 8.31183 7.18041 8.26996C7.07929 8.22809 6.98742 8.16671 6.91003 8.08932C6.83264 8.01193 6.77126 7.92005 6.72939 7.81894C6.68752 7.71782 6.66599 7.60944 6.66602 7.5V3.33333C6.66602 3.11232 6.75381 2.90036 6.91009 2.74408C7.06637 2.5878 7.27834 2.5 7.49935 2.5C7.72036 2.5 7.93232 2.5878 8.0886 2.74408C8.24488 2.90036 8.33268 3.11232 8.33268 3.33333V7.5C8.33271 7.60944 8.31118 7.71782 8.26931 7.81894C8.22744 7.92005 8.16606 8.01193 8.08867 8.08932C8.01128 8.16671 7.9194 8.22809 7.81829 8.26996C7.71717 8.31183 7.60879 8.33336 7.49935 8.33333Z" fill="#4BAF47"/>
<path d="M12.4993 8.33333C12.3899 8.33336 12.2815 8.31183 12.1804 8.26996C12.0793 8.22809 11.9874 8.16671 11.91 8.08932C11.8326 8.01193 11.7713 7.92005 11.7294 7.81894C11.6875 7.71782 11.666 7.60944 11.666 7.5V3.33333C11.666 3.11232 11.7538 2.90036 11.9101 2.74408C12.0664 2.5878 12.2783 2.5 12.4993 2.5C12.7204 2.5 12.9323 2.5878 13.0886 2.74408C13.2449 2.90036 13.3327 3.11232 13.3327 3.33333V7.5C13.3327 7.60944 13.3112 7.71782 13.2693 7.81894C13.2274 7.92005 13.1661 8.01193 13.0887 8.08932C13.0113 8.16671 12.9194 8.22809 12.8183 8.26996C12.7172 8.31183 12.6088 8.33336 12.4993 8.33333Z" fill="#4BAF47"/>
<path d="M17.4993 8.33333C17.3899 8.33336 17.2815 8.31183 17.1804 8.26996C17.0793 8.22809 16.9874 8.16671 16.91 8.08932C16.8326 8.01193 16.7713 7.92005 16.7294 7.81894C16.6875 7.71782 16.666 7.60944 16.666 7.5V3.33333C16.666 3.11232 16.7538 2.90036 16.9101 2.74408C17.0664 2.5878 17.2783 2.5 17.4993 2.5C17.7204 2.5 17.9323 2.5878 18.0886 2.74408C18.2449 2.90036 18.3327 3.11232 18.3327 3.33333V7.5C18.3327 7.60944 18.3112 7.71782 18.2693 7.81894C18.2274 7.92005 18.1661 8.01193 18.0887 8.08932C18.0113 8.16671 17.9194 8.22809 17.8183 8.26996C17.7172 8.31183 17.6088 8.33336 17.4993 8.33333Z" fill="#4BAF47"/>
<path d="M22.4993 8.33333C22.3899 8.33336 22.2815 8.31183 22.1804 8.26996C22.0793 8.22809 21.9874 8.16671 21.91 8.08932C21.8326 8.01193 21.7713 7.92005 21.7294 7.81894C21.6875 7.71782 21.666 7.60944 21.666 7.5V3.33333C21.666 3.11232 21.7538 2.90036 21.9101 2.74408C22.0664 2.5878 22.2783 2.5 22.4993 2.5C22.7204 2.5 22.9323 2.5878 23.0886 2.74408C23.2449 2.90036 23.3327 3.11232 23.3327 3.33333V7.5C23.3327 7.60944 23.3112 7.71782 23.2693 7.81894C23.2274 7.92005 23.1661 8.01193 23.0887 8.08932C23.0113 8.16671 22.9194 8.22809 22.8183 8.26996C22.7172 8.31183 22.6088 8.33336 22.4993 8.33333Z" fill="#4BAF47"/>
<path d="M27.4993 8.33333C27.3899 8.33336 27.2815 8.31183 27.1804 8.26996C27.0793 8.22809 26.9874 8.16671 26.91 8.08932C26.8326 8.01193 26.7713 7.92005 26.7294 7.81894C26.6875 7.71782 26.666 7.60944 26.666 7.5V3.33333C26.666 3.11232 26.7538 2.90036 26.9101 2.74408C27.0664 2.5878 27.2783 2.5 27.4993 2.5C27.7204 2.5 27.9323 2.5878 28.0886 2.74408C28.2449 2.90036 28.3327 3.11232 28.3327 3.33333V7.5C28.3327 7.60944 28.3112 7.71782 28.2693 7.81894C28.2274 7.92005 28.1661 8.01193 28.0887 8.08932C28.0113 8.16671 27.9194 8.22809 27.8183 8.26996C27.7172 8.31183 27.6088 8.33336 27.4993 8.33333Z" fill="#4BAF47"/>
<path d="M32.4993 8.33333C32.3899 8.33336 32.2815 8.31183 32.1804 8.26996C32.0793 8.22809 31.9874 8.16671 31.91 8.08932C31.8326 8.01193 31.7713 7.92005 31.7294 7.81894C31.6875 7.71782 31.666 7.60944 31.666 7.5V3.33333C31.666 3.11232 31.7538 2.90036 31.9101 2.74408C32.0664 2.5878 32.2783 2.5 32.4993 2.5C32.7204 2.5 32.9323 2.5878 33.0886 2.74408C33.2449 2.90036 33.3327 3.11232 33.3327 3.33333V7.5C33.3327 7.60944 33.3112 7.71782 33.2693 7.81894C33.2274 7.92005 33.1661 8.01193 33.0887 8.08932C33.0113 8.16671 32.9194 8.22809 32.8183 8.26996C32.7172 8.31183 32.6088 8.33336 32.4993 8.33333Z" fill="#4BAF47"/>
<path d="M8.33398 13.3332H6.66732C6.4463 13.3332 6.23434 13.2454 6.07806 13.0891C5.92178 12.9328 5.83398 12.7209 5.83398 12.4998C5.83398 12.2788 5.92178 12.0669 6.07806 11.9106C6.23434 11.7543 6.4463 11.6665 6.66732 11.6665H8.33398C8.555 11.6665 8.76696 11.7543 8.92324 11.9106C9.07952 12.0669 9.16732 12.2788 9.16732 12.4998C9.16732 12.7209 9.07952 12.9328 8.92324 13.0891C8.76696 13.2454 8.555 13.3332 8.33398 13.3332Z" fill="#4BAF47"/>
<path d="M13.334 13.3332H11.6673C11.4463 13.3332 11.2343 13.2454 11.0781 13.0891C10.9218 12.9328 10.834 12.7209 10.834 12.4998C10.834 12.2788 10.9218 12.0669 11.0781 11.9106C11.2343 11.7543 11.4463 11.6665 11.6673 11.6665H13.334C13.555 11.6665 13.767 11.7543 13.9232 11.9106C14.0795 12.0669 14.1673 12.2788 14.1673 12.4998C14.1673 12.7209 14.0795 12.9328 13.9232 13.0891C13.767 13.2454 13.555 13.3332 13.334 13.3332Z" fill="#4BAF47"/>
<path d="M18.334 13.3332H16.6673C16.4463 13.3332 16.2343 13.2454 16.0781 13.0891C15.9218 12.9328 15.834 12.7209 15.834 12.4998C15.834 12.2788 15.9218 12.0669 16.0781 11.9106C16.2343 11.7543 16.4463 11.6665 16.6673 11.6665H18.334C18.555 11.6665 18.767 11.7543 18.9232 11.9106C19.0795 12.0669 19.1673 12.2788 19.1673 12.4998C19.1673 12.7209 19.0795 12.9328 18.9232 13.0891C18.767 13.2454 18.555 13.3332 18.334 13.3332Z" fill="#4BAF47"/>
<path d="M23.334 13.3332H21.6673C21.4463 13.3332 21.2343 13.2454 21.0781 13.0891C20.9218 12.9328 20.834 12.7209 20.834 12.4998C20.834 12.2788 20.9218 12.0669 21.0781 11.9106C21.2343 11.7543 21.4463 11.6665 21.6673 11.6665H23.334C23.555 11.6665 23.767 11.7543 23.9232 11.9106C24.0795 12.0669 24.1673 12.2788 24.1673 12.4998C24.1673 12.7209 24.0795 12.9328 23.9232 13.0891C23.767 13.2454 23.555 13.3332 23.334 13.3332Z" fill="#4BAF47"/>
<path d="M28.334 13.3332H26.6673C26.4463 13.3332 26.2343 13.2454 26.0781 13.0891C25.9218 12.9328 25.834 12.7209 25.834 12.4998C25.834 12.2788 25.9218 12.0669 26.0781 11.9106C26.2343 11.7543 26.4463 11.6665 26.6673 11.6665H28.334C28.555 11.6665 28.767 11.7543 28.9232 11.9106C29.0795 12.0669 29.1673 12.2788 29.1673 12.4998C29.1673 12.7209 29.0795 12.9328 28.9232 13.0891C28.767 13.2454 28.555 13.3332 28.334 13.3332Z" fill="#4BAF47"/>
<path d="M33.334 13.3332H31.6673C31.4463 13.3332 31.2343 13.2454 31.0781 13.0891C30.9218 12.9328 30.834 12.7209 30.834 12.4998C30.834 12.2788 30.9218 12.0669 31.0781 11.9106C31.2343 11.7543 31.4463 11.6665 31.6673 11.6665H33.334C33.555 11.6665 33.767 11.7543 33.9232 11.9106C34.0795 12.0669 34.1673 12.2788 34.1673 12.4998C34.1673 12.7209 34.0795 12.9328 33.9232 13.0891C33.767 13.2454 33.555 13.3332 33.334 13.3332Z" fill="#4BAF47"/>
<path d="M19.1902 27.4889H19.1878C19.0746 27.4885 18.9628 27.4652 18.8589 27.4202C18.7551 27.3752 18.6616 27.3096 18.5839 27.2273L16.2678 24.7712C16.1919 24.6917 16.1325 24.5981 16.093 24.4955C16.0534 24.393 16.0345 24.2837 16.0374 24.1738C16.0403 24.064 16.0648 23.9558 16.1097 23.8555C16.1545 23.7551 16.2188 23.6647 16.2987 23.5893C16.3787 23.5139 16.4728 23.4551 16.5755 23.4162C16.6783 23.3773 16.7878 23.3591 16.8976 23.3627C17.0074 23.3663 17.1154 23.3916 17.2155 23.4371C17.3155 23.4826 17.4055 23.5474 17.4804 23.6278L19.1935 25.4446L22.9378 21.5188C23.0905 21.3595 23.3002 21.2673 23.5208 21.2624C23.7415 21.2575 23.9551 21.3403 24.1147 21.4927C24.2744 21.645 24.3671 21.8545 24.3726 22.0751C24.378 22.2957 24.2958 22.5095 24.1438 22.6696L19.7932 27.2309C19.7154 27.3125 19.6218 27.3774 19.5182 27.4218C19.4145 27.4661 19.303 27.489 19.1902 27.4889Z" fill="#4BAF47"/>
<path d="M20.0007 32.0833C18.4349 32.0833 16.9043 31.619 15.6024 30.7491C14.3005 29.8792 13.2858 28.6428 12.6866 27.1962C12.0874 25.7497 11.9306 24.1579 12.2361 22.6222C12.5416 21.0865 13.2956 19.6759 14.4027 18.5687C15.5099 17.4616 16.9205 16.7076 18.4562 16.4021C19.9919 16.0967 21.5836 16.2534 23.0302 16.8526C24.4768 17.4518 25.7132 18.4665 26.5831 19.7684C27.453 21.0703 27.9173 22.6009 27.9173 24.1667C27.9149 26.2656 27.0801 28.2778 25.5959 29.762C24.1118 31.2461 22.0996 32.081 20.0007 32.0833ZM20.0007 17.9167C18.7645 17.9167 17.5561 18.2832 16.5283 18.97C15.5005 19.6567 14.6995 20.6329 14.2264 21.7749C13.7534 22.9169 13.6296 24.1736 13.8707 25.386C14.1119 26.5984 14.7072 27.712 15.5812 28.5861C16.4553 29.4602 17.569 30.0554 18.7813 30.2966C19.9937 30.5377 21.2504 30.414 22.3924 29.9409C23.5345 29.4679 24.5106 28.6668 25.1973 27.639C25.8841 26.6112 26.2507 25.4028 26.2507 24.1667C26.2488 22.5096 25.5898 20.921 24.4181 19.7493C23.2464 18.5775 21.6577 17.9185 20.0007 17.9167Z" fill="#4BAF47"/>
</svg>
