<svg width="45" height="46" viewBox="0 0 45 46" fill="none" xmlns="http://www.w3.org/2000/svg">
<path d="M44.7185 18.204C44.7232 18.1585 44.7238 18.1126 44.721 18.0669C44.737 17.803 44.6295 17.5357 44.4074 17.358L39.1507 13.1509V11.0744C39.1507 9.12251 37.5628 7.5346 35.6109 7.5346H32.1333L23.4092 0.552514C23.4089 0.55213 23.4087 0.551722 23.4084 0.551315C23.2385 0.339052 22.9868 0.231665 22.7344 0.236483C22.4821 0.231665 22.2304 0.339029 22.0605 0.551315C22.0602 0.5517 22.06 0.552107 22.0597 0.552514L13.3357 7.5346H9.858C7.90614 7.5346 6.31823 9.12251 6.31823 11.0744V13.1509L1.06153 17.358C0.839428 17.5357 0.731883 17.803 0.747877 18.0668C0.745072 18.1126 0.745728 18.1585 0.750365 18.204C0.747379 18.2329 0.745728 18.2623 0.745728 18.292V41.4943C0.745728 43.6923 2.63291 45.4804 4.95253 45.4804H40.5163C42.836 45.4804 44.7232 43.6923 44.7232 41.4943V18.292C44.7232 18.2623 44.7215 18.2329 44.7185 18.204ZM39.1507 15.3075L42.5985 18.0668L39.1507 20.8262V15.3075ZM22.7345 2.169L29.4387 7.53455H16.0303L22.7345 2.169ZM8.00197 11.0743C8.00197 10.0509 8.83462 9.21829 9.858 9.21829H35.6109C36.6343 9.21829 37.4669 10.0509 37.4669 11.0743V13.5659C37.4669 13.5667 37.4669 13.5675 37.4669 13.5683V22.1738L22.7345 33.9647L8.00197 22.1738V11.0743ZM6.31823 15.3075V20.8262L2.87042 18.0668L6.31823 15.3075ZM2.42949 41.4944V19.8705L16.1317 30.8369L2.67311 42.4805C2.51708 42.1814 2.42949 41.8471 2.42949 41.4944ZM40.5164 43.7967H4.95256C4.59508 43.7967 4.25498 43.7282 3.94657 43.6053L17.4686 31.9069L22.0597 35.5813C22.06 35.5817 22.0602 35.5821 22.0605 35.5825C22.2268 35.7902 22.4714 35.8982 22.7183 35.8982C22.7237 35.8982 22.7291 35.8977 22.7345 35.8976C22.7398 35.8977 22.7452 35.8982 22.7506 35.8982C22.9975 35.8982 23.2422 35.7902 23.4084 35.5825C23.4087 35.5821 23.4089 35.5817 23.4092 35.5813L28.0003 31.9069L41.5223 43.6053C41.2139 43.7281 40.8738 43.7967 40.5164 43.7967ZM43.0394 41.4944C43.0394 41.8471 42.9518 42.1814 42.7958 42.4805L29.3372 30.8369L43.0394 19.8706V41.4944ZM14.0702 17.1841H31.4876C31.9525 17.1841 32.3295 16.8072 32.3295 16.3423C32.3295 15.8773 31.9526 15.5004 31.4876 15.5004H14.0702C13.6052 15.5004 13.2283 15.8773 13.2283 16.3423C13.2283 16.8072 13.6052 17.1841 14.0702 17.1841ZM32.3295 21.4075C32.3295 20.9425 31.9526 20.5656 31.4876 20.5656H14.0702C13.6052 20.5656 13.2283 20.9425 13.2283 21.4075C13.2283 21.8725 13.6052 22.2494 14.0702 22.2494H31.4876C31.9526 22.2494 32.3295 21.8725 32.3295 21.4075Z" fill="#C78665"/>
</svg>
