<svg width="74" height="93" viewBox="0 0 74 93" fill="none" xmlns="http://www.w3.org/2000/svg">
<path d="M35.508 38.1185C35.5337 38.1443 35.5595 38.1829 35.5852 38.2087C35.6368 38.2602 35.7012 38.2989 35.7527 38.3504C35.7656 38.3633 35.7784 38.3761 35.8042 38.389C35.8171 38.389 35.8171 38.4019 35.83 38.4019C36.0489 38.5822 36.2808 38.7368 36.577 38.7754C37.1695 38.9558 37.7105 38.827 38.2129 38.5049C38.3932 38.4534 38.5349 38.3504 38.6894 38.2345C39.166 37.8867 39.4623 37.4487 39.4751 36.8434C39.5009 36.7661 39.5267 36.7017 39.5395 36.6244C39.5911 36.0448 39.5653 35.478 39.5138 34.8984C39.5395 34.5893 39.4365 34.3059 39.3463 34.0097C39.1789 33.4687 38.8826 33.0436 38.3545 32.8118C38.2129 32.7345 38.0712 32.6572 37.9166 32.5928C37.8908 32.5671 37.8522 32.5413 37.8136 32.5284C37.556 32.4254 37.3112 32.3739 37.0665 32.3739C36.7058 32.3481 36.3709 32.3996 36.152 32.6057C35.83 32.7603 35.5208 32.9921 35.2504 33.2626C34.5162 33.971 34.2328 34.9499 34.4002 35.9417C34.4904 36.7661 34.9155 37.5389 35.508 38.1185ZM38.0454 34.4605C38.0969 34.9757 38.0325 35.5038 37.981 36.019C37.9424 36.4054 37.9424 36.8176 37.5688 37.0108C37.1953 37.2169 36.9506 37.3199 36.6801 37.1783C36.6543 37.1654 36.6286 37.1267 36.6028 37.1139C36.5255 37.0366 36.4482 36.9464 36.3581 36.8305C36.0232 36.341 35.7913 35.8001 35.8557 35.1689C35.8815 34.9757 35.9588 34.834 36.0232 34.6666C36.0489 34.6537 36.0618 34.6408 36.0618 34.6022C36.3452 34.3446 36.6157 34.0612 36.9506 33.868C36.9892 33.8422 37.015 33.8165 37.0536 33.7907C37.2726 33.6619 37.4143 33.6104 37.5431 33.649C37.8393 33.8422 38.0196 34.087 38.0454 34.4605Z" fill="#C78665"/>
<path d="M73.4022 64.2272C73.3636 64.1885 73.3121 64.1757 73.2734 64.137C72.9514 63.8408 72.5521 63.6604 72.1399 63.4801C71.4702 63.1839 70.7875 63.0035 70.0919 62.7846C69.7442 62.6687 69.4093 62.4368 69.0615 62.3466C68.7009 62.2565 68.3402 62.1534 67.9796 62.0504C67.2711 61.8443 66.5885 61.5996 65.8929 61.3291C65.236 61.0715 64.5791 60.801 63.9351 60.5047C63.9093 60.4919 63.8836 60.479 63.8707 60.479C63.3297 60.2343 62.8016 59.9638 62.2735 59.7062C61.9644 59.5516 61.6553 59.3841 61.3461 59.2167C61.0112 59.0364 60.6892 58.8689 60.3543 58.6886C60.2384 58.6242 60.1096 58.5598 59.9808 58.4825C59.4269 58.1734 58.886 57.8514 58.345 57.5165C58.2935 57.4907 58.2548 57.4521 58.2033 57.4263C58.0874 57.349 57.9715 57.2846 57.8555 57.2202C56.7993 56.5633 55.756 55.8678 54.7385 55.1465C54.6097 55.0563 54.468 54.9533 54.3521 54.8502C54.2877 54.7987 54.2104 54.7601 54.146 54.7085C53.9012 54.5282 53.6694 54.3479 53.4375 54.1676C53.4247 54.1547 53.4118 54.1547 53.4118 54.1418C52.8193 53.7039 52.2397 53.253 51.66 52.7894C51.1319 52.3385 50.591 51.8877 50.0629 51.424C49.3287 50.78 48.6589 50.0845 47.9634 49.4147C47.461 48.9123 46.9458 48.4358 46.4177 47.9721C46.4048 47.9592 46.3919 47.9463 46.3791 47.9334C46.3791 47.8948 46.3791 47.8561 46.3791 47.8304C46.4048 47.7273 46.4177 47.6114 46.3919 47.5084C46.4306 47.444 46.4306 47.3667 46.4306 47.2894C46.495 46.4522 46.495 45.6149 46.5079 44.7777C46.5079 44.6103 46.598 44.4428 46.5207 44.2754C46.5336 44.1981 46.5594 44.1337 46.5594 44.0564C46.5594 43.1805 46.6367 42.3047 46.598 41.4159C46.6882 41.0295 46.6495 40.6302 46.6367 40.2438C46.6753 40.115 46.7139 39.9991 46.6624 39.8703C46.6753 39.2262 46.7011 38.5693 46.7139 37.9253C46.7139 37.8609 46.7139 37.7965 46.6624 37.745C46.7011 37.1654 46.7139 36.5858 46.7011 36.0061C46.6882 35.5811 46.7011 35.1689 46.7011 34.7439C46.7011 34.7181 46.7011 34.6923 46.7011 34.6795C46.7139 34.4218 46.7397 34.1642 46.6753 33.9066C46.714 33.8422 46.7268 33.7778 46.6753 33.7005C46.6753 33.6361 46.6753 33.5717 46.6753 33.5073C46.7784 33.2884 46.7784 33.2884 46.9844 33.3914C47.3451 33.5717 47.6929 33.7521 48.0922 33.8293C48.6331 33.9453 49.3416 33.7778 49.5476 33.2626C49.8053 32.9921 49.9469 32.6959 49.7795 32.3352C49.6636 32.0776 49.509 31.82 49.2256 31.6912C49.2256 31.6912 49.2128 31.6912 49.2128 31.6783C49.1999 31.6654 49.187 31.6654 49.187 31.6525C49.1355 31.601 49.084 31.5624 49.0196 31.5237C48.9165 31.4465 48.8135 31.3821 48.6975 31.3048C48.6331 31.2533 48.5559 31.2146 48.4915 31.176C48.0406 30.9699 47.6542 30.6608 47.2678 30.3774C47.1648 30.2872 47.0617 30.1971 46.9587 30.1069C46.7397 29.8879 46.5207 29.669 46.3147 29.45C46.2889 29.4371 46.276 29.4113 46.2631 29.3985C46.2502 29.3727 46.2245 29.3598 46.2116 29.3341C46.173 29.2954 46.1343 29.2439 46.0957 29.2053C45.8381 28.8575 45.5676 28.4968 45.31 28.1491C45.1297 27.8915 44.9622 27.6081 44.7432 27.3634C44.7046 27.2346 44.6144 27.1444 44.5114 27.0671C44.4212 26.9769 44.4341 26.8095 44.2924 26.7709C44.2924 26.7193 44.2924 26.6549 44.228 26.6292C44.228 26.6034 44.2023 26.5777 44.1765 26.5777C43.6613 25.7404 43.0817 24.9676 42.4505 24.2205C42.4376 24.2334 42.4376 24.2463 42.4376 24.2463C42.4505 24.2334 42.4376 24.2205 42.4505 24.2205C42.3346 24.0402 42.2187 23.847 42.1027 23.6667C41.9482 23.3704 41.7936 23.0742 41.6519 22.7779C41.4716 22.1854 41.1625 21.6573 40.8662 21.1292C40.8405 20.9875 40.8147 20.833 40.6859 20.7299C40.6086 20.4594 40.4927 20.1889 40.3896 19.9185C40.1192 19.1843 39.7456 18.4887 39.3077 17.8447C39.3206 17.8189 39.3206 17.7932 39.3335 17.7803C39.4494 17.703 39.5009 17.6129 39.3463 17.5356C39.1402 17.4325 39.063 17.2264 38.947 17.059C38.9342 17.0719 38.9213 17.0976 38.9084 17.1105C38.9213 17.0848 38.9342 17.0719 38.947 17.059C38.8826 16.956 38.844 16.8529 38.7667 16.7628C38.6508 16.6339 38.5606 16.4794 38.625 16.2733C38.6894 16.0543 38.6121 15.9384 38.3932 15.8482C38.3803 15.8482 38.3674 15.8354 38.3545 15.8354C38.303 15.7967 38.2644 15.7838 38.2 15.7581C38.1742 15.7452 38.1484 15.7323 38.1356 15.6937C38.1098 15.5778 38.0583 15.4747 38.084 15.3459C38.1227 15.1656 38.1613 14.9853 38.1742 14.8049C38.2257 14.4314 38.2901 14.0707 38.2644 13.6843C38.2773 13.4267 38.3159 13.182 38.3159 12.9244C38.3159 12.7698 38.4061 12.6152 38.3159 12.4607C38.3159 12.3061 38.3159 12.1644 38.3159 12.0099C38.3803 11.5719 38.3159 11.134 38.3159 10.7089C38.303 10.1808 38.2515 9.66563 38.2515 9.15041C38.2386 8.8928 38.2257 8.63519 38.2129 8.37758C38.2129 8.33894 38.2129 8.28742 38.2257 8.24878C38.2257 8.21014 38.2257 8.15862 38.2257 8.11997C38.2386 7.93965 38.2386 7.75932 38.2515 7.579C38.2515 7.37291 38.2515 7.37291 38.4576 7.37291C38.8955 7.38579 39.3335 7.43731 39.7585 7.41155C40.2351 7.38579 40.7245 7.39867 41.2011 7.39867C41.3686 7.39867 41.5489 7.39867 41.6906 7.29563C41.9224 7.23122 42.1414 7.08954 42.2444 6.89633C42.4376 6.53568 42.4505 6.1235 42.0383 5.80149C41.9997 5.76285 41.9482 5.74997 41.8967 5.73709C41.6133 5.531 41.2011 5.45372 40.8533 5.44084C40.5185 5.42796 40.1964 5.42796 39.8615 5.42796C39.7971 5.42796 39.7456 5.42796 39.6812 5.42796C39.4494 5.42796 39.2175 5.42796 38.9986 5.42796C38.9857 5.42796 38.9728 5.42796 38.9599 5.42796C38.7925 5.42796 38.625 5.42796 38.4576 5.42796C38.3674 5.42796 38.2644 5.42796 38.1742 5.42796C38.1742 4.99003 38.1613 4.55209 38.1613 4.11416C38.1742 3.86943 38.1484 3.63758 38.1098 3.39285C38.1227 3.30269 38.1227 3.2254 38.0969 3.13524C38.0712 2.82611 38.0583 2.52986 37.9939 2.22073C37.9939 2.18209 37.9939 2.13057 37.9939 2.09193C37.981 1.74415 37.9939 1.39638 37.8522 1.06149C37.8007 0.945566 37.762 0.842523 37.7105 0.726599C37.6075 0.726599 37.5044 0.726599 37.4014 0.726599C37.1695 0.687957 36.8862 0.791001 36.796 1.04861L36.7831 1.03573C36.4998 2.4397 36.4482 3.89519 36.4482 5.35068C35.5981 5.3378 34.748 5.3378 33.8979 5.32492C32.9447 5.31204 32.7644 6.53568 33.3956 6.97361C33.5244 7.08954 33.6789 7.1797 33.8593 7.21834C34.0782 7.25698 34.2843 7.26986 34.5033 7.26986C35.1344 7.28274 35.7785 7.30851 36.4096 7.32139C36.4482 7.32139 36.4611 7.33427 36.4869 7.34715C36.4998 7.61764 36.4998 7.88813 36.4998 8.15862C36.5255 9.36938 36.5384 10.5673 36.5642 11.778C36.5899 12.6668 36.577 13.5555 36.6414 14.4314C36.5384 14.4829 36.4482 14.5602 36.3838 14.6761C36.1262 15.1141 35.8557 15.4876 35.8686 16.0286C35.8815 16.5953 35.9588 17.1234 36.2808 17.5871C36.3065 17.6257 36.3323 17.6644 36.3709 17.703C36.2937 17.8962 36.2293 18.0894 36.1777 18.2955C34.4646 20.5496 32.378 22.559 30.6649 24.8001C29.6087 26.1912 28.5268 27.5179 27.097 28.5484C25.7575 29.5273 24.4694 30.6221 23.1041 31.5495C22.2282 32.142 22.4214 33.2755 23.1685 33.7521C23.2071 33.7778 23.22 33.8165 23.2715 33.8422H23.2973C23.6064 34.0483 23.9284 34.1127 24.302 34.0612C24.7785 33.9968 25.2551 33.9453 25.6931 33.7134C25.7188 33.7134 25.7317 33.7263 25.7446 33.7392C25.7961 33.8422 25.8605 33.9581 25.8991 34.0612C26.0666 34.4347 26.0666 34.9242 26.1439 35.3364C26.3371 36.3153 26.4788 37.3199 26.5303 38.3117C26.5818 39.3293 26.672 40.3211 26.7493 41.3386C26.9425 43.4768 26.994 45.6278 26.994 47.7789C26.994 48.732 26.994 49.6723 26.9811 50.6254C26.5818 51.0505 26.1954 51.4755 25.7703 51.8877C24.7657 52.8538 23.5807 53.7167 22.4858 54.5797C20.2446 56.3701 17.6428 57.6968 15.144 59.075C13.8559 59.7834 12.555 60.4403 11.1897 60.9813C10.5457 61.2389 9.87587 61.445 9.20609 61.6125C8.51055 61.7799 7.84076 62.0504 7.14522 62.2178C6.48832 62.308 5.81853 62.3982 5.16163 62.5012C4.55625 62.5914 3.96375 62.7459 3.35837 62.6944C2.37946 62.6043 1.3619 62.5141 0.563313 63.2096C0.47315 63.2869 0.421628 63.39 0.408748 63.4801C0.0480953 63.6991 -0.0678288 64.1757 0.0609757 64.575C0.0609757 64.6007 0.0609757 64.6265 0.0609757 64.6522C0.0738561 64.6522 0.0867366 64.6651 0.0867366 64.6651C0.138258 64.7939 0.215541 64.9099 0.318585 65C0.48603 65.219 0.75652 65.2963 1.05277 65.322C1.25886 65.3349 1.45206 65.3864 1.65815 65.4251C1.98016 65.4895 2.28929 65.6569 2.62418 65.6827C2.9462 65.7084 3.25533 65.7857 3.57734 65.8501C3.88647 65.9274 4.1956 66.0047 4.51761 66.0176C4.96842 66.1206 5.41924 66.1979 5.88294 66.1721C5.94734 66.185 6.01174 66.185 6.07614 66.1979C7.00354 66.2365 7.93093 66.2108 8.85832 66.1206C8.88408 66.1206 8.90984 66.1206 8.92272 66.1206C8.9356 66.1206 8.94848 66.1335 8.96136 66.1335C8.43326 67.2155 8.90984 68.9414 9.09017 69.9203C9.47658 72.0585 9.57962 74.2611 10.0304 76.3863C10.4813 78.5116 10.9965 80.624 11.3056 82.775C11.4473 83.7539 11.4473 84.7329 11.6663 85.6989C11.7564 86.1111 11.8723 86.5232 11.9754 86.9354C11.9496 86.9998 11.9239 87.0642 11.911 87.1415C11.7693 88.0947 11.589 89.0864 11.6147 90.0654C11.6147 90.2843 11.7178 90.5033 11.8852 90.6579C12.0269 90.864 12.2459 90.9928 12.5808 90.967C12.9157 90.9283 13.2634 90.9026 13.5983 90.7995C13.8559 90.7995 14.1007 90.6965 14.3454 90.6321C15.2985 90.3874 16.2775 90.3487 17.2564 90.3745C17.7072 90.3874 18.158 90.4131 18.6088 90.3874C18.8407 90.4518 19.0983 90.4389 19.3301 90.4647C19.7552 90.5033 20.1802 90.3745 20.6053 90.4518C20.7083 90.5033 20.8114 90.4904 20.9144 90.4904C21.2493 90.5033 21.5842 90.5033 21.9062 90.5162C22.5502 90.5291 23.1943 90.5291 23.8383 90.5419C24.6369 90.4904 25.4483 90.5677 26.2469 90.5548C26.5045 90.5548 26.7621 90.5935 27.0197 90.5548C27.1486 90.5548 27.2774 90.5548 27.4062 90.5419C27.7282 90.5291 28.0631 90.5291 28.3851 90.5162C28.5783 90.5162 28.7715 90.5162 28.9647 90.5162C29.0033 90.5162 29.0549 90.5162 29.0935 90.5162C29.1837 90.5291 29.2738 90.5548 29.3511 90.4775C29.8277 90.4775 30.3043 90.5291 30.7808 90.4904C31.0642 90.5291 31.3605 90.5033 31.6438 90.5033C32.1333 90.5033 32.6227 90.4904 33.1122 90.4775C33.1766 90.4904 33.2539 90.4904 33.3183 90.4647C33.4471 90.4775 33.5759 90.4904 33.7047 90.4904C34.3745 90.4904 35.0314 90.4647 35.7012 90.4775C36.9506 90.4904 38.2 90.5162 39.4494 90.4775C40.4154 90.4518 41.3814 90.3745 42.3475 90.2714C42.7081 90.2328 43.0817 90.207 43.4423 90.1684C43.7901 90.1813 44.1379 90.0911 44.4856 90.0525C44.8978 90.104 45.31 90.0267 45.7222 89.9623C46.4435 89.9366 47.1519 89.8979 47.8732 89.8077C48.221 89.8464 48.5559 89.8335 48.9036 89.8206C49.187 89.7691 49.4704 89.8206 49.7537 89.7949C49.8181 89.7949 49.8825 89.7949 49.9469 89.7949C50.2689 89.8206 50.591 89.8464 50.913 89.8722C51.6085 90.001 52.3169 90.0396 53.0125 90.1684C53.9012 90.323 54.8029 90.3874 55.6787 90.6063C55.7818 90.6321 55.8977 90.6321 56.0007 90.6063C56.078 90.6192 56.1553 90.6321 56.2197 90.6321C56.9797 90.6707 57.7525 90.6579 58.5124 90.6836C59.4913 90.7223 60.4703 90.6965 61.4492 90.7351C61.4749 90.7094 61.4878 90.6965 61.5136 90.7351C61.7325 90.7609 61.9386 90.7094 62.1061 90.5806C62.3122 90.5935 62.4538 90.4518 62.6213 90.3745C62.7887 90.3358 62.9691 90.3487 63.1108 90.2457C63.4585 90.001 63.6002 89.5759 63.4714 89.0607C63.4199 88.8417 63.2782 88.6871 63.085 88.5712C62.9819 88.4682 62.8403 88.3909 62.6857 88.3651C62.6857 88.3265 62.6986 88.2879 62.6986 88.2492C62.7243 88.1462 62.763 88.0431 62.8403 87.9658C62.9691 87.8499 63.0077 87.6825 62.982 87.515C62.9433 87.3347 62.9562 87.1544 62.9948 86.9741C63.0335 86.8195 63.0592 86.652 63.0721 86.4975C63.1236 85.4026 63.1365 84.2949 63.1365 83.2001C63.1752 82.8137 63.1623 82.4273 63.1623 82.028C63.1623 81.9764 63.1494 81.9378 63.1494 81.8863C63.1752 81.7832 63.1752 81.6802 63.1623 81.5771C63.1623 81.5256 63.1752 81.487 63.1752 81.4355C63.2009 80.6111 63.2009 79.7739 63.188 78.9495C63.2138 78.9238 63.2138 78.898 63.188 78.8723C63.2653 78.2798 63.2911 77.6873 63.3297 77.1076C63.3297 77.0175 63.3426 76.9273 63.3426 76.8371C63.3555 76.8114 63.3555 76.7985 63.3684 76.7727C63.4456 76.2446 63.4456 75.7165 63.5616 75.1884C63.5744 75.124 63.5358 75.0596 63.4714 75.0339V74.9952H63.4585C63.6131 74.9952 63.5873 74.8664 63.6002 74.7763C63.6904 74.6088 63.6389 74.4285 63.6646 74.2611C63.8192 73.7974 63.8449 73.3208 63.9351 72.8442C64.0381 72.3032 64.0897 71.7623 64.1669 71.2213C64.2571 70.7318 64.3344 70.2295 64.3473 69.7271C64.3602 69.6885 64.3859 69.6499 64.3859 69.6112C64.3988 69.1089 64.4503 68.6065 64.4246 68.1042C64.4374 67.9883 64.4503 67.8852 64.4246 67.7693C64.4374 66.8548 64.5147 65.9403 64.4374 65.0258C64.5534 65.0387 64.6435 65.0773 64.7337 65.1159C65.1072 65.2319 65.4679 65.3607 65.8414 65.4508C66.3695 65.5796 66.9105 65.6698 67.4515 65.7857C67.9924 65.9016 68.5205 65.9918 69.0744 65.9403C69.2418 65.9532 69.4222 65.9918 69.5896 65.9789C70.1564 65.9016 70.736 65.8501 71.3027 65.7213C71.5088 65.6827 71.6247 65.5668 71.6891 65.3736C71.7278 65.2447 71.7407 65.1031 71.7407 64.9614C71.7664 64.9614 71.8051 64.9614 71.8308 64.9614C72.1399 65.0644 72.462 65.0773 72.7711 65.1803C73.106 65.2963 73.428 65.2319 73.7114 65.0129C73.7114 64.8841 73.7114 64.7553 73.7242 64.6265C73.5954 64.4719 73.531 64.3302 73.4022 64.2272ZM53.0511 88.3136C52.2912 87.9401 51.1448 87.9916 50.3076 87.9401C49.3287 87.8886 48.3498 87.9015 47.3708 87.953C45.9154 88.0174 44.4728 88.1719 43.0301 88.3136C43.0301 88.1462 43.043 87.9787 42.9786 87.8113C43.0301 87.7984 43.0817 87.7598 43.1332 87.7598C43.5454 87.734 43.9704 87.7211 44.3826 87.7082C44.8205 87.6825 45.2585 87.6696 45.6964 87.6052C46.3018 87.6181 46.9072 87.5794 47.5125 87.5537C47.7701 87.5408 48.0406 87.5279 48.2982 87.5537C48.4528 87.5666 48.5945 87.5666 48.7362 87.5279C49.3029 87.5537 49.8568 87.6567 50.4106 87.6438C50.694 87.7082 50.9645 87.7726 51.2479 87.8499C51.4926 87.9143 51.7373 87.8886 51.9821 87.9272C52.42 88.0045 52.8579 88.1204 53.3087 88.159C53.6694 88.3007 54.0429 88.3523 54.4165 88.4038C54.9059 88.4811 55.4082 88.5197 55.9106 88.5068C56.3743 88.5841 56.8509 88.5712 57.3146 88.597C57.6881 88.6099 58.0616 88.6227 58.448 88.6227C58.9633 88.6227 59.4785 88.6872 59.9937 88.597C60.0066 88.597 60.0194 88.597 60.0194 88.597C60.071 88.6099 60.1354 88.597 60.1998 88.597C60.1998 88.6099 60.1998 88.6356 60.1998 88.6485C59.311 88.7387 58.448 88.9061 57.5593 88.919C56.7349 88.9448 55.975 88.5712 55.1506 88.5326C54.4551 88.5455 53.708 88.6356 53.0511 88.3136ZM30.3171 88.6485C28.2563 88.6872 26.1954 88.6872 24.1216 88.6872C24.1216 88.6614 24.1216 88.6485 24.1216 88.6227C24.1989 88.5068 24.2762 88.378 24.4565 88.4038C25.1263 88.4682 25.7961 88.4553 26.4659 88.4553C26.8137 88.4553 27.1614 88.4682 27.4963 88.4682C27.6895 88.5068 27.8827 88.4811 28.0759 88.4811C28.3335 88.4811 28.604 88.5583 28.8616 88.4553C28.9261 88.4553 28.9905 88.4553 29.0549 88.4424C29.1837 88.4424 29.3125 88.4424 29.4413 88.4424C29.5057 88.4553 29.5701 88.4811 29.6345 88.4811C30.4073 88.4553 31.193 88.4939 31.9658 88.4295C32.056 88.4295 32.1462 88.4295 32.2234 88.4295C32.3651 88.4295 32.5068 88.4553 32.6485 88.4424C33.1766 88.378 33.7176 88.3909 34.2586 88.3651C34.7995 88.3394 35.3276 88.3265 35.8686 88.2492C36.3065 88.2879 36.7574 88.2363 37.1824 88.1977C37.5044 88.1719 37.8264 88.2106 38.1356 88.0947C38.3674 88.1591 38.5993 88.056 38.844 88.0689C39.4365 88.0818 40.029 87.9658 40.6215 87.9658C40.6859 87.9658 40.7503 87.9272 40.8018 87.9143C40.8405 87.9143 40.8662 87.9272 40.9049 87.9401C40.9306 88.1333 40.9693 88.3265 40.995 88.5068C37.4529 88.7516 33.8721 88.597 30.3171 88.6485ZM26.9038 33.005C27.2902 32.7345 27.6638 32.4898 27.9729 32.1678C27.9471 32.1549 27.9085 32.142 27.8827 32.142C27.9085 32.1549 27.9471 32.1678 27.9729 32.1678C28.0502 32.1162 28.1661 32.0776 28.1532 31.9488C28.2305 31.9746 28.2691 31.923 28.3207 31.8844C28.8616 31.5495 29.3511 31.1373 29.8663 30.7509C30.0338 30.6092 30.2012 30.4675 30.3687 30.3259C30.4717 30.2357 30.5747 30.1455 30.6005 30.0039V29.991C30.8066 29.9394 30.8839 29.772 30.9612 29.6046C31.2445 29.3727 31.4635 29.0765 31.6438 28.7673C31.8757 28.4711 32.0689 28.1233 32.3007 27.8271C32.8546 27.1186 33.3312 26.3716 33.8335 25.6245C34.4131 24.7873 34.9541 23.9372 35.4951 23.0871C35.5337 23.0484 35.5852 23.0098 35.5852 22.9454C35.6368 22.8681 35.6883 22.7779 35.7398 22.7006C35.8042 22.6491 35.8557 22.5847 35.8686 22.4946C35.8815 22.4688 35.8815 22.443 35.8944 22.4173C35.9588 22.34 36.0232 22.2756 36.0747 22.1854C36.3838 21.6573 36.7058 21.1421 37.0021 20.6011C37.1824 20.2791 37.337 19.9313 37.5044 19.5964C37.5302 19.5449 37.556 19.5192 37.5817 19.5063C38.1742 20.7299 38.7152 21.9922 39.2175 23.2674C39.5911 24.1819 39.9002 24.929 40.4927 25.7147C41.0337 26.4231 41.5102 27.1702 41.9868 27.9043C42.7339 29.0378 43.5067 30.1455 44.4083 31.1631C44.447 31.2146 44.4985 31.2661 44.4985 31.3305C44.5243 31.3305 44.5243 31.3563 44.5372 31.3692C44.55 31.3692 44.55 31.3949 44.5629 31.3949V31.4078C44.5758 31.4078 44.5758 31.4207 44.5887 31.4207H44.5758V31.4078C44.5758 31.4078 44.5758 31.4078 44.5629 31.3949C44.5629 31.3821 44.55 31.3821 44.5372 31.3692C44.5243 31.3563 44.4985 31.3563 44.4985 31.3305C44.3826 31.3048 44.2924 31.2146 44.2151 31.1373C44.0477 30.9956 43.8803 30.8668 43.7257 30.7252C43.6355 30.635 43.5454 30.5577 43.4552 30.4675C43.3779 30.3903 43.3135 30.313 43.2362 30.2357C42.5793 29.5917 41.8967 28.9605 41.2913 28.265C40.6859 27.5566 40.0676 26.8868 39.3721 26.2685C38.9342 25.8821 38.4962 25.4957 38.2129 24.9805C38.1871 24.6971 38.1227 24.4266 38.1742 24.1432C38.2 24.0016 38.2257 23.8599 38.2257 23.7311C38.2386 23.5121 38.1613 23.3833 37.9939 23.3189C37.981 23.3189 37.9681 23.3189 37.9552 23.3189C37.762 23.1515 37.3885 23.1515 37.2726 23.4219C37.0536 23.9243 36.7187 24.3751 36.4225 24.8388C36.0618 25.4055 35.6625 25.9207 35.2246 26.4102C34.3745 27.3762 33.4342 28.265 32.5197 29.1666C31.6567 30.0167 30.9096 30.9699 30.0982 31.8586C29.7118 32.2837 29.2352 32.6057 28.8488 33.0308C28.5139 33.4043 28.3207 34.0612 27.7024 34.0097C27.535 33.9968 27.4448 34.1514 27.4706 34.2673C27.4706 34.2673 27.4706 34.2673 27.4577 34.2673C27.4062 33.8293 27.2001 33.4043 26.9038 33.005ZM26.8137 53.1371C26.7621 53.15 26.7106 53.15 26.6591 53.1629C26.7106 53.1371 26.7621 53.1371 26.8137 53.1371ZM26.8137 53.1242C26.8137 53.0727 26.7879 53.047 26.775 53.0083C26.8008 53.047 26.8137 53.0856 26.8137 53.1242ZM28.6169 51.7847C28.6298 51.8104 28.6169 51.8362 28.6298 51.862C28.6298 51.8362 28.6298 51.8104 28.6169 51.7847ZM27.535 34.512C27.535 34.4991 27.5221 34.4991 27.5221 34.4862C27.5221 34.4734 27.535 34.4734 27.535 34.4734C27.535 34.4862 27.5478 34.4862 27.5478 34.4991C27.5478 34.4991 27.5478 34.512 27.535 34.512ZM34.2586 86.1755C33.8335 86.2012 33.4084 86.227 32.9834 86.2399C32.9834 86.227 32.9834 86.2012 32.9834 86.1883C33.1251 86.0338 33.138 85.8406 33.0993 85.6474C33.0092 85.0677 32.9061 84.4753 32.8288 83.8956C32.6743 82.8266 32.6356 81.7575 32.5583 80.6755C32.6099 80.3149 32.5583 79.9413 32.5712 79.5807C32.6227 78.9882 32.6485 78.4086 32.5583 77.8161C32.5712 77.6486 32.5841 77.4683 32.5712 77.3008C32.5841 76.6955 32.5841 76.0901 32.597 75.4847C32.6485 75.124 32.597 74.7505 32.6871 74.3899C32.6871 74.2997 32.7 74.2095 32.7 74.1322C32.8159 73.9133 32.7387 73.6428 32.8417 73.4238C32.8417 73.3594 32.8546 73.295 32.8546 73.2306C32.9705 72.9859 33.0092 72.7283 33.0607 72.4707C33.1637 71.9812 33.1637 71.466 33.344 70.9894C33.4084 70.8091 33.5115 70.6416 33.5501 70.4484C33.7176 70.0878 33.8335 69.7143 34.0653 69.3922C34.3745 68.9543 34.7609 68.5937 35.3148 68.5035C35.5724 68.4649 35.8428 68.4906 36.1133 68.4906C36.7831 68.6452 37.3241 68.993 37.8393 69.4438C38.1613 69.7271 38.4705 70.0363 38.7796 70.3325C38.9599 70.5128 39.1402 70.6803 39.2948 70.8864C40.1449 71.9555 40.5056 73.3465 40.7117 74.6732C40.9177 76.0901 40.8662 77.5584 40.8276 78.9882C40.8276 79.1299 40.8147 79.2715 40.8147 79.4261C40.8147 79.4261 40.8147 79.4261 40.8018 79.4261C40.7245 79.2715 40.5957 79.1943 40.454 79.1556C40.2995 79.0655 40.132 79.0139 39.9646 79.0011C39.8744 79.0139 39.7714 79.0268 39.6812 79.0397C39.5009 79.0912 39.3463 79.1685 39.2046 79.2973C39.1274 79.3875 39.0501 79.4776 38.9728 79.5807C38.9213 79.6451 38.8698 79.7095 38.8054 79.7868C38.7152 79.9413 38.6637 80.1088 38.6508 80.302C38.6508 80.5725 38.7538 80.8301 38.9342 81.0233C38.947 81.0362 38.9599 81.0362 38.9728 81.049C39.3077 81.4483 39.8615 81.5256 40.2995 81.2423C40.5185 81.2294 40.6215 81.049 40.7503 80.9202C40.7245 82.1954 40.6859 83.4835 40.6601 84.7586C40.6473 85.0806 40.6473 85.4026 40.6473 85.7246C38.5735 85.8663 36.4225 86.0467 34.2586 86.1755ZM23.439 68.4262C23.6322 68.3489 23.8254 68.2588 23.9671 68.1042C24.3921 67.7693 24.8301 67.4473 25.1778 67.0351C25.2551 66.9965 25.3195 66.9321 25.371 66.8548C25.487 66.8548 25.5643 66.7775 25.6415 66.7131C26.1439 66.2365 26.6591 65.7857 27.1872 65.3607C27.3418 65.2447 27.419 65.0515 27.5865 64.9614C27.6251 64.9614 27.6509 64.9356 27.6766 64.897C28.3464 64.3302 29.042 63.7635 29.6989 63.1839C30.1368 62.7975 30.549 62.3853 30.9483 61.9731C31.4249 61.4837 31.8757 60.9813 32.3522 60.4919C32.4038 60.4403 32.4424 60.3759 32.4811 60.3115C32.6485 60.2085 32.7515 60.041 32.8546 59.8865C31.8886 61.6511 30.6263 63.1839 29.2609 64.6651C27.9085 66.1464 26.2984 67.4087 24.5725 68.452C23.761 68.9414 22.9109 69.3536 22.0093 69.6627C22.0479 69.6241 22.0865 69.5855 22.1381 69.5597C22.5631 69.315 22.8851 68.9543 23.2715 68.6709C23.3617 68.6065 23.4261 68.5293 23.439 68.4262ZM42.3217 61.0328C42.3346 61.0457 42.3475 61.0586 42.3604 61.0586C42.6308 61.2904 42.8627 61.5609 43.1718 61.7541C43.4552 61.986 43.7386 62.2178 44.0348 62.4368C44.1121 62.4883 44.1765 62.5656 44.2667 62.6043C44.3311 62.6429 44.3826 62.6944 44.4341 62.7331C44.5243 62.8361 44.6402 62.8876 44.7561 62.9649C45.3229 63.39 45.8638 63.8279 46.4821 64.1757C46.6238 64.3045 46.7784 64.4075 46.9458 64.4977C47.0488 64.5621 47.1519 64.6265 47.2549 64.7038C47.2549 64.7166 47.2678 64.7424 47.2678 64.7553V64.7682C47.2678 64.7682 47.2678 64.7682 47.2807 64.7811C47.2807 64.7811 47.2807 64.781 47.2678 64.7682C47.242 64.7682 47.2163 64.7553 47.1905 64.7553C46.8299 64.6007 46.4821 64.459 46.1343 64.2916C46.0442 64.2529 45.9669 64.2143 45.8767 64.1757C45.4517 63.9696 45.0266 63.7506 44.6016 63.5316C44.5887 63.5316 44.5758 63.5188 44.5758 63.5188C44.5114 63.4801 44.447 63.4544 44.3955 63.4286C44.0606 63.2483 43.7386 63.0551 43.4294 62.849C43.1847 62.6815 42.9271 62.527 42.6953 62.3466C42.4892 62.1921 42.296 62.0375 42.0641 61.9087C41.9482 61.8185 41.8451 61.7284 41.7292 61.6382C41.7035 61.6125 41.6777 61.5867 41.6519 61.5609C41.1367 61.1488 40.6086 60.7752 40.1449 60.2987C40.0934 60.2343 40.0161 60.2085 39.9388 60.157C39.9388 60.157 39.9388 60.157 39.926 60.157C39.8744 60.1183 39.8229 60.0668 39.7714 60.0282C39.6812 59.9251 39.5653 59.8478 39.4623 59.7448C39.2304 59.4872 39.0372 59.2038 38.8569 58.9076C38.6121 58.5212 38.3674 58.1476 38.1227 57.7612C38.0712 57.6839 38.0196 57.6195 37.9295 57.5809C37.9166 57.5551 37.9037 57.5294 37.878 57.5036C37.8908 57.3619 37.7492 57.2589 37.7492 57.1301C37.7363 57.1172 37.7363 57.1172 37.7234 57.1043C37.7363 57.1043 37.7363 57.1043 37.7363 57.1043C37.7363 57.1043 37.7363 57.1172 37.7363 57.1301C37.7749 57.1172 37.8136 57.1429 37.8393 57.1558C37.9424 57.2331 38.0454 57.3104 38.1613 57.4006C38.2386 57.4778 38.3159 57.5422 38.4061 57.6066C38.947 58.0188 39.4494 58.4696 39.9517 58.9333C40.2866 59.2296 40.6086 59.5387 40.9435 59.835C41.4072 60.2085 41.858 60.6207 42.3217 61.0328ZM23.658 83.213C23.658 83.0326 23.6708 82.8523 23.6708 82.672C23.6579 82.4788 23.7095 82.2856 23.6193 82.1052C23.6322 81.8219 23.6451 81.5514 23.5291 81.2809C23.5291 81.2294 23.5291 81.1779 23.5291 81.1134C23.5291 81.1006 23.5291 81.1006 23.5291 81.0877C23.5807 81.049 23.5935 80.9975 23.5935 80.946C23.5935 80.8816 23.5935 80.8172 23.6064 80.7528C23.7095 80.0959 23.6579 79.4261 23.6193 78.7692C23.6064 78.4214 23.5291 78.0865 23.4905 77.7517C23.4519 77.3524 23.3617 76.966 23.2973 76.5795C23.2458 76.2962 23.1943 76.0128 23.1685 75.7165C23.117 75.0339 23.0139 74.3512 23.001 73.6685C23.001 73.6041 23.001 73.5397 22.9882 73.4882C23.001 73.4367 22.9882 73.3852 22.9624 73.3337C22.9882 72.9473 23.0139 72.5608 22.9109 72.1744C22.9238 72.0971 22.9238 72.0327 22.8594 71.9812C22.8465 71.9039 22.8851 71.8524 22.9366 71.8009C23.8254 71.4918 24.6369 71.0538 25.4097 70.5515C25.5385 70.4742 25.6673 70.4098 25.7961 70.3196C26.1439 70.0749 26.5045 69.8431 26.8008 69.5468C26.8137 69.5339 26.8394 69.5082 26.8523 69.4953C27.0584 69.4695 27.1872 69.3278 27.316 69.1862C27.3289 69.1733 27.3546 69.1475 27.3675 69.1346C27.4319 69.096 27.4963 69.0831 27.4963 68.993C27.6251 69.0058 27.6895 68.9028 27.7668 68.8384C28.3207 68.3876 28.8488 67.9239 29.3511 67.4215C29.6345 67.1382 29.9822 66.9321 30.1883 66.5843C30.4975 66.2752 30.7808 65.9403 31.0513 65.5925C31.2445 65.3349 31.412 65.0515 31.6181 64.8068C32.275 63.9953 32.8417 63.1324 33.3827 62.2307C33.46 62.089 33.5115 61.9345 33.6274 61.8185C33.8593 61.5094 34.0396 61.1745 34.104 60.7752C34.1684 60.7623 34.1942 60.7237 34.2199 60.6722C34.4389 60.26 34.6192 59.8221 34.7609 59.3713C34.8124 59.2038 34.8639 59.0493 34.9412 58.8947C35.1087 58.5598 35.289 58.212 35.4564 57.8771C35.5724 57.7612 35.6496 57.6324 35.714 57.4907C35.714 57.465 35.714 57.4392 35.714 57.4263C35.714 57.4521 35.714 57.4778 35.714 57.4907C35.7398 57.4907 35.7527 57.4907 35.7785 57.4907C35.7913 57.4907 35.7913 57.4907 35.8042 57.4907C36.0618 58.0059 36.3065 58.534 36.5513 59.0493C36.7574 59.4743 36.9634 59.8994 37.1953 60.3115C37.2726 60.4532 37.3756 60.5691 37.4787 60.6851C37.5688 60.8268 37.6719 60.9556 37.8007 61.0715C37.8651 61.1359 37.9424 61.2003 38.0068 61.2647C38.0712 61.3291 38.1356 61.3935 38.2 61.4579C38.8054 62.0633 39.4365 62.6429 40.0934 63.1839C40.1192 63.2096 40.1449 63.2354 40.1836 63.2612C40.1964 63.274 40.1964 63.274 40.2093 63.274C40.2737 63.3256 40.3381 63.3771 40.4025 63.4415C40.5185 63.5445 40.6344 63.6347 40.7632 63.7249C40.892 63.815 41.0208 63.9052 41.1367 64.0082C41.2655 64.1499 41.4201 64.2529 41.5746 64.356C41.639 64.4462 41.7292 64.4977 41.8194 64.5621C42.5536 65.0773 43.3393 65.5023 44.125 65.9274C44.3955 66.0691 44.666 66.2494 44.9751 66.3138C45.0781 66.3782 45.1683 66.4684 45.2971 66.4941C45.3357 66.5199 45.3615 66.5328 45.413 66.5199C45.5933 66.6358 45.7866 66.7518 46.0055 66.8162C46.1214 66.8677 46.2503 66.9063 46.3662 66.9578C46.6367 67.1124 46.92 67.2541 47.2292 67.3056C47.4868 67.4087 47.7444 67.5375 48.002 67.6276C48.5559 67.8337 49.1226 68.014 49.6893 68.1686C49.7537 68.1815 49.8053 68.2072 49.8439 68.2201C49.5605 69.637 49.5348 71.0925 49.4575 72.5351C49.3802 74.055 49.3158 75.5749 49.2643 77.0948C49.2128 78.7048 49.2128 80.302 49.4188 81.8992C49.4961 82.5303 49.5605 83.1743 49.6636 83.8055C49.7666 84.4366 49.7924 85.042 50.2561 85.4799C48.6203 85.2738 46.9072 85.4026 45.2713 85.467C44.447 85.5057 43.6226 85.5443 42.7854 85.5958C42.7725 85.5701 42.7597 85.5443 42.7468 85.5057C42.7983 84.823 42.8112 84.1275 42.8112 83.4448C42.8112 83.3418 42.7597 83.2387 42.7725 83.1357C42.8756 82.5174 42.8498 81.8992 42.8241 81.2809C42.9142 80.624 42.8627 79.9542 42.8885 79.2973C42.8885 79.2071 42.8885 79.117 42.8885 79.0397C42.8885 78.9367 42.8885 78.8207 42.8885 78.7177C42.8885 78.4987 42.9013 78.2926 42.9013 78.0737C42.8756 77.3008 42.9013 76.5151 42.8369 75.7423C42.7854 75.124 42.6953 74.5058 42.5793 73.8875C42.4763 73.3981 42.3732 72.8957 42.1929 72.4192C42.077 72.11 41.9611 71.8009 41.8323 71.4918C41.5618 70.8735 41.214 70.3068 40.8018 69.7787C40.7761 69.7529 40.7245 69.74 40.6988 69.7143C40.6859 69.6885 40.6601 69.6627 40.6473 69.637C40.6473 69.5339 40.5957 69.4566 40.5313 69.3794C40.0805 68.9157 39.6039 68.4777 39.1016 68.0527C39.0372 68.0012 38.9728 67.9625 38.9084 67.9368C38.7925 67.8466 38.6637 67.7564 38.5477 67.6791C38.4833 67.6276 38.4189 67.589 38.3545 67.5503C38.3417 67.5503 38.3417 67.5375 38.3288 67.5375C38.2901 67.5117 38.2515 67.4859 38.2 67.4602C38.1742 67.4473 38.1484 67.4344 38.1356 67.4215C36.6157 66.507 34.8382 66.1721 33.3054 67.3958C32.2621 68.2201 31.7469 69.6499 31.4249 70.8993C31.2574 71.5304 31.1801 72.1744 31.0384 72.8184C30.8324 73.733 30.7422 74.6603 30.7036 75.6006C30.6263 77.2364 30.6907 78.8723 30.7036 80.5081C30.7164 82.3371 31.0771 84.179 31.412 85.9694C31.4377 86.1239 31.5021 86.2399 31.5794 86.33C29.0549 86.4073 26.5303 86.3944 24.0186 86.4202C24.0057 86.4202 24.0057 86.4073 23.9928 86.4073C24.0186 86.2399 23.9413 86.0853 23.9156 85.9307C23.7739 85.0162 23.7481 84.1146 23.658 83.213ZM30.871 88.3523C30.8839 88.3523 30.8839 88.3523 30.8968 88.3523C30.8839 88.3523 30.871 88.3523 30.871 88.3523ZM7.27402 63.4157C7.33843 63.4286 7.41571 63.4286 7.46723 63.3771C7.49299 63.3771 7.51875 63.3642 7.53163 63.3642C7.98245 63.3513 8.4075 63.2096 8.83256 63.0937C9.25761 63.0293 9.66979 62.9134 10.0691 62.7717C10.3525 62.7073 10.6616 62.7073 10.9063 62.527C11.0351 62.5527 11.1382 62.4883 11.2412 62.4368C11.7822 62.3724 12.2588 62.1277 12.7482 61.9345C12.9157 61.8958 13.0187 61.7413 13.199 61.7284C13.7529 61.5481 14.2681 61.2904 14.7704 60.9813C14.8606 60.9813 14.925 60.9298 14.9765 60.8783C15.144 60.8525 15.2728 60.7366 15.4273 60.6722C15.6077 60.5949 15.7751 60.5047 15.9426 60.4146C16.7025 60.0282 17.4496 59.616 18.1966 59.2167C18.3126 59.1523 18.4285 59.1137 18.5187 58.9977C19.1369 58.7015 19.7294 58.3795 20.2962 57.9931C20.6182 57.8771 20.8629 57.6324 21.1591 57.465C21.3137 57.3748 21.494 57.3233 21.5971 57.1687C21.9577 57.027 22.2282 56.7694 22.5502 56.5633C22.9109 56.3444 23.2329 56.0868 23.5678 55.842C23.5935 55.8163 23.6193 55.7776 23.6322 55.739C23.8769 55.6359 24.0444 55.4556 24.2247 55.2753C24.3277 55.2495 24.405 55.1722 24.4952 55.1078C25.0104 54.7343 25.487 54.2964 26.0022 53.8971C26.2984 53.6781 26.6076 53.4463 26.8137 53.1371C26.9167 53.1371 26.9682 53.0598 27.0455 53.0212C27.0841 53.3561 27.1099 53.691 27.1872 54.0259C27.2258 54.1676 27.3031 54.2706 27.4062 54.335C27.535 54.5025 27.7282 54.5282 27.9471 54.5153C28.2047 54.5025 28.3593 54.3479 28.4366 54.116C28.501 53.9486 28.501 53.7554 28.5396 53.5751C28.6684 53.0083 28.7586 52.4416 28.7586 51.862C28.7844 51.5786 28.8101 51.2823 28.72 50.999C28.7071 50.9861 28.6942 50.9861 28.6813 50.9732C28.6684 50.999 28.6556 51.0247 28.6556 51.0505C28.6684 51.0247 28.6813 50.999 28.6813 50.9732V50.9474C28.8101 50.999 28.823 50.8959 28.8488 50.8186C29.0162 50.4709 29.0935 50.0973 29.0677 49.7109C29.0549 49.5435 29.0291 49.3889 28.8874 49.2859C28.8101 49.2215 28.7844 49.1571 28.7972 49.0669C28.823 48.8479 28.7715 48.6418 28.7586 48.4229C28.7586 48.3842 28.7586 48.3327 28.7586 48.2941C28.7586 47.8046 28.823 47.3023 28.7328 46.8128C28.7328 46.7098 28.7328 46.5939 28.7457 46.4908C28.7586 46.2719 28.7715 46.0529 28.7457 45.8339C28.7328 45.6407 28.7071 45.4475 28.6942 45.2414C28.6942 44.9065 28.6942 44.5716 28.6813 44.2496C28.6169 43.2192 28.5525 42.1888 28.4752 41.1712C28.4495 40.8363 28.4108 40.5143 28.3078 40.1923C28.3078 40.1665 28.3078 40.1408 28.3078 40.1279C28.3078 40.0892 28.3078 40.0377 28.3078 39.9991C28.3335 39.8187 28.2563 39.6513 28.2434 39.4839C28.2305 39.3035 28.2305 39.1361 28.2176 38.9558C28.2047 38.8398 28.2434 38.7239 28.1661 38.6337C28.1919 38.2602 28.1275 37.8996 28.1017 37.5389C28.0759 37.423 28.0502 37.3199 28.0244 37.204C27.9858 36.5858 27.9085 35.9933 27.7153 35.4008C27.6509 35.1947 27.6251 34.9886 27.5865 34.7696C27.5607 34.6666 27.5736 34.5764 27.7282 34.5893C28.2691 34.6279 28.7328 34.4218 29.1321 34.0612C29.2481 34.0483 29.3253 33.9968 29.364 33.8809C29.5314 33.7649 29.7375 33.6877 29.8277 33.4944C29.9436 33.5073 30.0338 33.4429 30.0982 33.3528C30.227 33.3012 30.33 33.224 30.4202 33.1209C30.5103 33.0823 30.6005 33.0436 30.6778 32.9792C31.3476 32.4383 32.0045 31.8844 32.5841 31.2404C32.7258 31.0858 32.8803 30.9312 33.0478 30.7896C33.2152 30.6479 33.4213 30.5319 33.5244 30.313L33.5373 30.3259C33.8721 30.094 34.1555 29.7978 34.4389 29.5144C34.8124 29.2439 35.1344 28.909 35.4822 28.5999C35.8686 28.2779 36.1649 27.8786 36.4998 27.5179C36.6543 27.3505 36.8733 27.2088 36.9119 26.9641C37.118 26.8739 37.1695 26.6678 37.2855 26.5004L37.2983 26.4746C37.337 26.4746 37.3627 26.5004 37.3885 26.539C37.5302 26.7193 37.6719 26.8997 37.8393 27.0671C38.1098 27.3634 38.4061 27.6467 38.6894 27.9301C38.9599 28.2006 39.2175 28.4582 39.385 28.7158C39.6941 29.1795 40.0676 29.6046 40.454 30.0296C40.5185 30.094 40.5829 30.1713 40.6473 30.2357C40.9693 30.5706 41.3042 30.8926 41.6391 31.2017C41.6519 31.2146 41.6648 31.2275 41.6648 31.2275C42.0383 31.5624 42.399 31.9102 42.7725 32.245C42.8885 32.3481 43.0044 32.4511 43.1589 32.5027C43.262 32.5799 43.3522 32.6701 43.4552 32.7474C43.6355 32.9148 43.8287 33.0565 44.0219 33.1982C44.4341 33.5589 44.8978 33.8551 45.413 34.0483C45.4517 34.0612 45.4645 34.087 45.4903 34.0998C45.3229 36.5986 45.1039 39.0974 44.9493 41.6091C44.9364 41.7251 44.9364 41.841 44.9236 41.9569C44.3053 41.9054 43.6613 42.1759 43.043 42.2145C42.6695 42.2403 42.3475 42.1887 41.9997 42.0728C41.9482 42.0471 41.9095 42.0342 41.858 42.0084C41.8323 41.9955 41.8194 41.9955 41.7936 41.9955C41.7163 41.9311 41.6262 41.8796 41.5231 41.8539C40.9049 41.6607 40.1707 42.1115 39.6941 42.485C39.5395 42.6009 39.3979 42.7426 39.2562 42.8714C39.1016 42.6653 38.8955 42.4979 38.7023 42.3176C38.6379 42.266 38.5735 42.2403 38.5091 42.2016C38.4705 42.1759 38.4318 42.1372 38.3932 42.1115C38.3417 42.0728 38.2773 42.0599 38.2257 42.0342C38.2 42.0213 38.1742 42.0084 38.1484 41.9955C37.5688 41.7251 36.9119 41.8281 36.3709 42.1887C35.9845 42.4464 35.5724 42.9487 35.1731 43.2063C35.1602 43.1934 35.1473 43.1677 35.1215 43.1419C35.0185 42.8328 34.9155 42.5108 34.7995 42.2016C34.748 42.0728 34.6578 41.9955 34.5419 41.944C34.4389 41.8539 34.323 41.8023 34.1942 41.8152C33.1766 41.9054 32.2621 42.6267 31.6181 43.3866C31.5021 43.5283 31.3733 43.6571 31.2188 43.7344C31.1672 43.7602 31.1286 43.773 31.1157 43.7859C31.0771 43.7473 31.0384 43.6958 30.9998 43.6185C30.8968 43.4124 30.8452 43.1934 30.8324 42.9616C30.8324 42.8585 30.8581 42.7426 30.7808 42.6524C30.7808 42.6267 30.7808 42.6009 30.7808 42.588C30.7808 42.5494 30.7808 42.5108 30.7808 42.4592C30.7937 42.266 30.8195 42.0728 30.6263 41.9311C30.6005 41.8925 30.5619 41.8925 30.5361 41.8796C30.2527 41.622 29.7118 41.7379 29.6731 42.2274C29.583 43.2192 29.686 44.2239 30.3429 44.7777C30.5103 44.9452 30.7036 45.0868 30.9225 45.1512C31.2703 45.3445 31.6309 45.3573 32.0045 45.2028C32.5712 44.958 32.9319 44.4943 33.2152 43.9791C33.2281 43.9405 33.2539 43.889 33.2668 43.8503C33.2796 43.8117 33.2925 43.773 33.3054 43.7344C33.4857 43.6314 33.5244 43.4382 33.6145 43.2836C33.6274 43.2836 33.6403 43.2707 33.6532 43.2707C33.6918 43.6314 33.7691 44.0049 33.9108 44.3011C33.9752 44.4557 34.0653 44.5588 34.1555 44.6618C34.2843 44.8421 34.4646 44.9967 34.6836 45.0353C35.1602 45.1255 35.6496 45.0997 36.0747 44.7906C36.4611 44.5072 36.8218 44.211 37.1824 43.9018C37.2468 43.8503 37.3241 43.7988 37.4271 43.7859C37.4271 43.8117 37.4271 43.8374 37.4271 43.8632C37.44 44.3269 37.6461 44.7133 37.9424 44.958C38.084 45.0868 38.2386 45.2157 38.4705 45.2929C39.0501 45.499 39.5524 45.3316 40.0032 44.9709C40.4283 44.636 40.7503 44.1852 41.1367 43.8246C41.2913 43.7859 41.4201 43.8761 41.5618 43.9405C42.1672 44.2239 42.7983 44.3527 43.4681 44.2754C43.906 44.2239 44.3439 44.1595 44.7819 44.0951C44.7432 44.6747 44.7175 45.2543 44.6917 45.821C44.4985 45.821 44.3182 45.937 44.3182 46.1946C44.3311 46.5939 44.447 46.9674 44.6273 47.3152C44.5887 48.307 44.5629 49.3116 44.6402 50.3034C44.5372 50.4838 44.5372 50.7156 44.7046 50.9603C44.7046 50.9603 44.7046 50.9732 44.7175 50.9732C44.7561 51.2566 44.7948 51.54 44.8592 51.8104C44.8849 51.9392 44.9622 52.0294 45.0653 52.0809C45.1554 52.2097 45.2713 52.2613 45.5161 52.2613C45.5933 52.2613 45.6578 52.287 45.7222 52.3128C46.5336 53.369 47.4095 54.3479 48.3369 55.2753C48.4013 55.3397 48.4657 55.417 48.5301 55.4814C48.6203 55.5715 48.7233 55.6746 48.8263 55.7519C48.9551 55.8678 49.084 55.9966 49.2128 56.1125C49.3931 56.2928 49.5734 56.4732 49.7537 56.6277C49.9598 56.7952 50.153 56.9755 50.372 57.1429C50.5008 57.2589 50.6425 57.3619 50.7713 57.465C50.8228 57.5036 50.8615 57.568 50.9259 57.5938C51.0289 57.6839 51.1319 57.7483 51.235 57.8256C51.4668 58.0059 51.6987 58.1863 51.9434 58.3666C52.2139 58.6371 52.523 58.8432 52.845 59.0364C53.1026 59.2553 53.3989 59.4228 53.6823 59.616C54.2877 60.0153 54.8801 60.4403 55.5371 60.7624C55.6015 60.9298 55.7818 60.9169 55.9106 60.9942C56.4902 61.3677 57.0827 61.7026 57.701 61.9989C57.9972 62.1792 58.2806 62.3595 58.6155 62.4626C58.6284 62.4754 58.6541 62.4883 58.667 62.4883C58.6928 62.5012 58.7056 62.5141 58.7314 62.5141C58.77 62.6043 58.8602 62.63 58.9375 62.6687C59.6202 62.9907 60.2899 63.3127 60.9726 63.6218C61.4492 63.8665 61.9515 64.0469 62.441 64.2658C62.2993 65.0258 62.3122 65.8372 62.2735 66.5843C62.222 67.589 62.1705 68.5808 62.0674 69.5855C61.8227 71.8524 61.2946 74.0678 60.9855 76.3219C60.7021 78.4472 60.7407 80.6111 60.6892 82.7493C60.6635 83.8183 60.6506 84.8874 60.6248 85.9565C60.6248 86.2785 60.5604 86.5876 60.496 86.8968C60.0452 86.9225 59.5944 86.9483 59.1178 86.9354C58.2806 86.9225 57.4434 86.8968 56.6061 86.8968C56.5546 86.8581 56.516 86.8195 56.4902 86.768C56.3872 86.5748 56.2197 86.4846 56.0394 86.4202C55.9106 86.3558 55.7689 86.2914 55.6015 86.2785C54.2104 86.1368 52.8579 85.8792 51.4797 85.6474C51.4797 85.6345 51.454 85.6216 51.454 85.5958C51.9434 85.261 52.0207 84.7586 51.9821 84.2305C51.9434 83.6767 51.8532 83.1228 51.776 82.5561C51.776 82.028 51.6858 81.5127 51.5441 80.9975C51.5441 80.1474 51.4153 79.3102 51.3767 78.4601C51.3767 78.3699 51.3767 78.2926 51.3767 78.2025C51.4153 78.1638 51.4153 78.1123 51.4024 78.0737C51.4153 77.5713 51.4282 77.069 51.4411 76.5795C51.4411 76.5151 51.4411 76.4507 51.3895 76.3992C51.4024 76.2962 51.4024 76.1802 51.3767 76.0772C51.3895 75.9613 51.4282 75.8454 51.4282 75.7294C51.3767 74.9308 51.4411 74.1451 51.4024 73.3465C51.3638 72.6768 51.3895 71.9941 51.4024 71.3114C51.4024 70.5257 51.338 69.74 51.2994 68.9543C51.2994 68.8255 51.1577 68.6581 51.2865 68.5679C51.3895 68.4777 51.557 68.5937 51.6858 68.5808C52.6518 68.7998 53.6179 68.6967 54.5581 68.4262C54.9059 68.3232 55.2537 67.7436 54.9317 67.267C54.8415 67.1382 54.7256 67.048 54.5839 66.9965C54.571 66.9836 54.571 66.9965 54.5581 66.9836C54.5066 66.945 54.468 66.8806 54.4036 66.8548C54.6612 66.6487 54.6612 66.4684 54.4165 66.3009C54.1588 66.1206 53.9012 65.9532 53.6307 65.7857C53.5921 65.76 53.5406 65.7471 53.4891 65.7213C53.2959 65.6054 53.1155 65.4766 52.8837 65.3864C52.4715 65.219 51.9692 65.219 51.5312 65.1417C51.0804 65.0515 50.591 64.7682 50.1788 64.5621C49.3544 64.1499 48.5559 63.6733 47.7701 63.1581C47.7057 63.1195 47.6413 63.0808 47.5769 63.0422C47.5383 63.0164 47.4868 62.9778 47.4481 62.952C47.242 62.8103 47.0231 62.6687 46.817 62.527C46.7912 62.5012 46.7526 62.4883 46.7268 62.4626C46.5079 62.3209 46.3018 62.1663 46.0828 62.0246C46.0442 61.986 45.9926 61.9473 45.954 61.9216C45.8767 61.8701 45.8123 61.8314 45.735 61.7799C45.5547 61.6511 45.3744 61.5223 45.1941 61.4064C44.8849 61.1874 44.5758 60.9427 44.2795 60.7108C44.125 60.5949 43.9833 60.479 43.8287 60.3502C43.6999 60.2343 43.5582 60.1312 43.4294 60.0153C43.4166 60.0024 43.4037 60.0024 43.4037 59.9895C43.3522 59.938 43.3006 59.8994 43.2362 59.8478C43.2233 59.835 43.2105 59.8092 43.1847 59.7963C43.1589 59.7577 43.1332 59.719 43.1074 59.6933C42.3732 59.0493 41.639 58.4052 40.9049 57.7612C40.8662 57.7226 40.8276 57.6968 40.7761 57.6839C40.7503 57.6582 40.7117 57.6324 40.6859 57.6066C40.673 57.5938 40.6473 57.5809 40.6344 57.568C40.5571 57.465 40.454 57.3877 40.3381 57.3233C40.2866 57.2846 40.248 57.246 40.1964 57.2073C40.1707 57.1816 40.1578 57.1558 40.1192 57.1429C39.9775 57.027 39.8487 56.9111 39.707 56.7952C39.4751 56.5891 39.2175 56.4216 38.9728 56.2413C38.6508 56.0095 38.2773 55.8549 37.9681 55.6102C37.5946 55.3139 37.2211 55.0177 36.8475 54.7214C36.8346 54.7085 36.8089 54.6957 36.796 54.6699C36.7445 54.5926 36.693 54.5153 36.6028 54.4896C36.4869 54.3736 36.3838 54.2577 36.255 54.1547C36.2035 54.1032 36.1391 54.0774 36.0747 54.0516C35.5981 53.7811 35.0314 54.3865 35.4436 54.8502C35.4693 54.8889 35.508 54.9146 35.5337 54.9533C35.392 54.9919 35.2632 55.0563 35.0958 55.095C34.9026 55.1465 34.748 55.2366 34.5934 55.3654C34.5806 55.3654 34.5806 55.3783 34.5677 55.3783C34.4518 55.3912 34.3358 55.4298 34.2328 55.4814C33.782 55.7261 33.4213 56.3057 33.0864 56.6792C32.7129 57.0914 32.3522 57.5036 31.9916 57.9158C30.6263 59.4485 29.2609 60.9813 27.6895 62.308C26.0924 63.6476 24.5596 65.0644 23.001 66.4684C22.2669 67.1253 21.5327 67.7951 20.8114 68.4777C20.4765 68.7997 20.1416 69.0831 19.7681 69.3665C19.5233 69.5597 19.2271 69.6756 18.9437 69.7915C18.9308 69.7915 18.9308 69.7915 18.9179 69.7787C18.8922 69.7658 18.8793 69.7787 18.8664 69.7787C18.802 69.637 18.5831 69.6241 18.5315 69.7915C18.4929 69.9075 18.4671 70.0105 18.4156 70.1264C18.3641 70.2424 18.4414 70.3454 18.5315 70.4227C18.5573 70.4871 18.6088 70.5257 18.7119 70.5772C18.7891 70.6159 18.8922 70.6288 18.9566 70.6803C18.5702 70.9765 18.5058 71.5175 18.8278 71.8653C18.8793 72.007 19.0081 72.0714 19.1498 72.1358C19.5748 72.329 20.0257 72.4449 20.4894 72.4063C20.5538 72.4063 20.6182 72.4063 20.6826 72.4063C20.7985 72.4063 20.8629 72.4063 20.9273 72.4192C20.9402 72.4836 20.9402 72.548 20.9531 72.6124C21.0175 73.4496 20.9531 74.2997 21.0046 75.1369C21.1076 76.747 21.5069 78.357 21.4683 79.9671C21.4296 81.6931 21.4425 83.4191 21.6357 85.1321C21.6872 85.5958 21.7259 86.0467 21.7903 86.5104C19.3044 86.549 16.8313 86.5748 14.3454 86.6392C14.3196 86.6134 14.281 86.5876 14.2681 86.5361C14.2423 86.4331 14.2295 86.3172 14.2037 86.2141C14.0491 85.5958 13.9075 84.9647 13.8431 84.3207C13.7786 83.6895 13.6885 83.0584 13.5854 82.4401C13.5726 82.35 13.6112 82.2212 13.4824 82.1696C13.4824 82.1568 13.4824 82.131 13.4695 82.1181C13.4953 82.028 13.5339 81.9507 13.4824 81.8605C13.4566 81.5256 13.3922 81.2036 13.3021 80.8816C13.3407 80.8043 13.2634 80.7528 13.2506 80.6884C13.3536 80.5596 13.1475 80.4823 13.1861 80.3664C13.2119 80.083 13.1475 79.7996 13.0702 79.542C12.8899 78.9238 12.8255 78.2798 12.6065 77.6744C12.6065 77.494 12.5421 77.3266 12.4648 77.1592C12.4648 77.1334 12.4777 77.0948 12.4777 77.069C12.3103 76.3606 12.1557 75.665 11.9883 74.9566C11.9754 74.8664 11.9625 74.7634 11.9496 74.6732C11.8723 74.0678 11.7951 73.4625 11.6663 72.87C11.6791 72.7927 11.6276 72.7412 11.6019 72.6768C11.6019 72.6381 11.6019 72.5866 11.6019 72.548C11.5246 71.9039 11.37 71.2728 11.2541 70.6288C11.2283 70.5 11.1897 70.384 11.1253 70.2681C11.0094 69.8173 10.9192 69.3665 10.7904 68.9286C10.7002 68.5937 10.5714 68.2588 10.4555 67.9239H10.4297C10.4297 67.9239 10.4555 67.9239 10.4684 67.9239C10.4684 67.8981 10.4684 67.8595 10.4555 67.8337C10.3653 67.4344 10.288 67.048 10.4297 66.6487C10.5714 66.6616 10.6358 66.5585 10.6873 66.4555C10.7646 66.3267 10.7646 66.1979 10.7646 66.0562C10.8419 65.9918 10.9321 66.0047 11.0094 65.9789C11.2541 66.0047 11.4859 65.9532 11.7178 65.9016C12.6323 65.7213 13.5597 65.5539 14.4613 65.322C15.0796 65.1675 15.6721 64.9614 16.2903 64.7811C16.6767 64.6651 17.0245 64.4977 17.3852 64.3302C17.8746 64.1113 18.3383 63.8279 18.802 63.5703C19.1627 63.3771 19.4718 63.0937 19.8582 62.952C20.0128 62.8876 20.1545 62.7846 20.309 62.7073C21.0432 62.4368 21.713 62.0246 22.3957 61.6382C22.4858 61.6382 22.5502 61.5867 22.5889 61.5223C22.6146 61.5223 22.6275 61.5094 22.6533 61.4965C22.8207 61.445 22.9624 61.3549 23.0526 61.2003C23.3617 61.0715 23.6322 60.8912 23.8383 60.6207C23.9027 60.6078 23.9413 60.5563 23.98 60.5047C24.0186 60.4661 24.0701 60.4275 24.1088 60.4017C24.5725 60.1312 24.9074 59.7319 25.2809 59.3584C25.5514 59.0879 25.7961 58.7788 26.0666 58.5083C26.1954 58.3795 26.2984 58.2507 26.3628 58.0961C26.453 58.0575 26.5174 57.9802 26.5689 57.9029C26.6591 57.7483 26.7493 57.6066 26.8523 57.465C27.316 56.8338 27.6895 56.1383 27.9343 55.3912C28.0115 55.1336 27.9858 54.9146 27.8312 54.7987C27.7926 54.7729 27.7411 54.7858 27.7024 54.7601C27.5478 54.6184 27.2902 54.5797 27.097 54.7472C25.2551 56.3315 23.7481 58.3666 21.6615 59.6418C20.6053 60.2858 19.4847 60.801 18.377 61.3291C17.8746 61.5609 17.4109 61.9473 16.9215 62.2178C16.4191 62.5012 15.891 62.7202 15.3372 62.9005C12.9543 63.6347 10.404 64.1499 7.91805 64.2787C6.77169 64.3302 5.58669 64.3045 4.44033 64.1628C4.04103 64.1113 3.65462 64.034 3.26821 63.9309C3.39701 63.8665 3.5387 63.9309 3.6675 63.9052C3.7319 63.9438 3.7963 63.9825 3.87359 63.9309C4.1956 63.9438 4.51761 63.8923 4.82674 63.8537C5.23891 63.815 5.65109 63.7506 6.06326 63.6991C6.4368 63.5188 6.86185 63.5574 7.27402 63.4157ZM13.2892 89.022C13.2892 88.9834 13.3021 88.9448 13.3021 88.9061C13.2634 88.9061 13.2248 88.8932 13.1733 88.8932C13.2119 88.8932 13.2506 88.9061 13.3021 88.9061H13.315C13.7915 88.8675 14.1135 88.6227 14.281 88.1719C14.3325 88.0303 14.384 87.9143 14.5644 87.9272C15.1569 87.9658 15.7494 88.0303 16.3419 88.0431C16.5608 88.056 16.7927 88.1075 17.0245 88.056C17.1018 88.0947 17.1791 88.1204 17.2692 88.1204C17.6428 88.1333 18.0163 88.1333 18.377 88.1462C18.5187 88.1719 18.6475 88.2106 18.7891 88.2106C19.2915 88.2363 19.7938 88.2492 20.2962 88.2492C20.6053 88.2492 20.9144 88.3394 21.2235 88.3136C21.5069 88.3265 21.8032 88.3651 22.0865 88.3394C22.3828 88.3136 22.5631 88.4553 22.7048 88.6614C21.5069 88.6485 20.3219 88.6356 19.124 88.6227C17.9648 88.6099 16.7154 88.4682 15.569 88.6356C14.8091 88.7516 14.0878 89.0349 13.3536 89.1766C13.315 89.1637 13.3021 89.1122 13.2892 89.022ZM64.0381 62.5785C61.9386 61.8443 59.955 60.8525 57.9972 59.8092C57.1342 59.3455 56.2712 58.8689 55.434 58.3795C55.215 58.2507 54.9961 58.109 54.7642 57.9673C54.7256 57.9415 54.6998 57.9287 54.6612 57.9029C54.5066 57.8127 54.3649 57.7226 54.2104 57.6195C54.1588 57.5809 54.1073 57.5422 54.0429 57.5036C53.9656 57.4521 53.8884 57.4006 53.7982 57.349C53.4118 57.0914 53.0125 56.8338 52.639 56.5633C52.5488 56.4474 52.42 56.3572 52.2783 56.2928C52.1881 56.2284 52.098 56.1511 52.0078 56.0868C52.0078 56.0868 52.0078 56.0739 51.9949 56.0739C51.5184 55.7003 51.0289 55.3139 50.5523 54.9404C50.5394 54.9275 50.5137 54.9146 50.5008 54.9017C50.4493 54.8631 50.4106 54.8245 50.3591 54.7858C50.3334 54.7472 50.3076 54.7214 50.2689 54.6957C49.9341 54.4509 49.6507 54.1289 49.3287 53.8584C48.7233 53.3303 48.1823 52.7636 47.6542 52.1711C47.4224 51.9135 47.242 51.6172 46.9587 51.424L46.9458 51.4111C46.8943 51.2695 46.8041 51.1535 46.7011 51.0505C46.5723 50.9088 46.4563 50.7542 46.3275 50.5997C46.2374 50.4966 46.2116 50.3807 46.2374 50.239C46.2889 49.9685 46.276 49.7109 46.276 49.4404C46.3791 49.4791 46.4435 49.5564 46.5079 49.6465C46.7912 49.9685 47.0875 50.3034 47.3837 50.6254C47.4353 50.6898 47.4997 50.7542 47.5512 50.8058C47.6542 50.9088 47.7444 51.0119 47.8474 51.1149C48.002 51.2823 48.1566 51.4369 48.3111 51.6044C48.543 51.8491 48.8006 52.0809 49.0453 52.3128C49.1226 52.3901 49.1999 52.4802 49.29 52.5575C49.3158 52.5833 49.3544 52.609 49.3802 52.6348C49.406 52.6605 49.4188 52.6863 49.4446 52.6992C49.8825 53.0856 50.3076 53.472 50.7455 53.8456C50.8872 53.9615 51.016 54.0774 51.1577 54.2062C51.2865 54.3092 51.4024 54.4252 51.5312 54.5282C51.8661 54.7987 52.201 55.0692 52.5359 55.3268C52.845 55.5715 53.1542 55.8034 53.4633 56.0352C53.5663 56.1383 53.6823 56.2156 53.8111 56.2928C53.8497 56.3315 53.9012 56.3572 53.9399 56.3959C54.4422 56.8209 54.9574 57.2073 55.5371 57.5294C55.8333 57.787 56.1553 58.0188 56.516 58.1991C56.5933 58.3022 56.6963 58.3408 56.7993 58.4052C57.4305 58.8045 58.0745 59.2167 58.7056 59.616C58.9633 59.7706 59.2209 59.938 59.5171 60.0153C59.5944 60.0926 59.6588 60.2085 59.7876 60.2214V60.2085C59.8262 60.2085 59.852 60.2342 59.8649 60.26C59.8906 60.26 59.9035 60.2729 59.9293 60.2729C60.0452 60.3373 60.1483 60.4146 60.2642 60.4661C60.934 60.8139 61.6037 61.1488 62.2606 61.4965C62.7887 61.767 63.3426 62.0118 63.8965 62.2436C64.1798 62.4239 64.489 62.5399 64.7981 62.6429C65.1587 62.7846 65.5194 62.9391 65.8929 63.0808C65.9702 63.1066 66.0604 63.1195 66.1377 63.1324C66.2021 63.171 66.2793 63.2096 66.3437 63.2483C65.5709 63.068 64.7981 62.849 64.0381 62.5785ZM38.084 5.37644C38.0583 5.35068 38.0325 5.3378 38.0325 5.31204C38.0325 5.3378 38.0712 5.36356 38.084 5.37644Z" fill="#C78665"/>
<path d="M45.2198 91.5595C45.2069 91.5466 45.194 91.5466 45.1683 91.5337C45.1425 91.508 45.1296 91.4693 45.091 91.4436C44.6788 91.1344 44.1636 91.1087 43.6742 91.07C43.043 91.0185 42.4119 90.9928 41.7807 90.9928L38.2901 90.9284C35.8557 90.8897 33.4342 90.8511 30.9998 90.967C30.3687 90.9928 30.2527 91.7527 30.6649 92.0361C30.7551 92.1649 30.8968 92.2422 31.1157 92.255C31.2703 92.2679 31.4249 92.255 31.5665 92.2679C32.5583 92.371 33.5501 92.4096 34.5419 92.4482C34.5548 92.474 34.5548 92.4869 34.5419 92.5126C34.8897 92.5255 35.2375 92.5255 35.5724 92.5384C36.0489 92.5513 36.5255 92.5642 37.0021 92.5642C38.5349 92.5899 40.0676 92.6286 41.6004 92.6543C41.6004 92.6286 41.6004 92.6157 41.6004 92.6028C40.1063 92.577 38.6121 92.5384 37.1309 92.5126C38.625 92.5384 40.1192 92.577 41.6004 92.6028C41.6004 92.6286 41.6004 92.6414 41.6004 92.6672C41.6648 92.6672 41.7292 92.6672 41.7936 92.6672C41.9611 92.6672 42.1414 92.6801 42.3088 92.6801C42.3088 92.6672 42.3088 92.6543 42.3088 92.6286C42.3088 92.6414 42.3088 92.6543 42.3088 92.6801C42.5278 92.6801 42.7468 92.693 42.9529 92.693C43.2749 92.7059 43.5969 92.7058 43.9318 92.7187C43.9318 92.693 43.9318 92.6801 43.9318 92.6543C44.2151 92.6415 44.5114 92.6157 44.7819 92.5255C44.9751 92.4611 45.1554 92.371 45.2971 92.2164C45.5032 91.9845 45.4645 91.7141 45.2198 91.5595Z" fill="#C78665"/>
</svg>
