<svg width="40" height="42" viewBox="0 0 40 42" fill="none" xmlns="http://www.w3.org/2000/svg">
<path d="M32.7058 19.4163C28.2103 17.4825 24.7107 18.601 23.7798 19.64C19.6018 14.3508 12.2778 12.9221 6.58446 15.9167C-5.69691 22.4037 0.039686 42.9616 16.8526 40.0104C18.2741 39.765 19.7029 39.2744 20.944 38.6682C24.9199 41.7999 32.1718 41.9226 36.1478 38.7404C41.6823 34.3098 41.069 23.0171 32.7058 19.4163ZM1.17257 28.8691C1.55501 31.005 -1.04991 20.3472 8.08535 16.429C9.08835 16.0249 10.1635 15.7218 11.2892 15.5703C11.2748 15.5703 11.2603 15.5775 11.2459 15.5775C13.1076 15.3538 14.6229 15.592 14.5435 15.5775C16.8454 15.895 18.8586 16.7321 20.6842 18.1031C20.677 18.0958 20.6626 18.0886 20.6554 18.0814C20.677 18.0958 20.7492 18.1536 20.7708 18.168C20.7636 18.1608 20.7564 18.1536 20.7492 18.1536C27.4671 23.45 25.158 31.6616 25.5116 29.6773C25.0498 33.0759 23.3685 34.8655 23.5706 34.6201C23.4551 34.7644 23.4118 34.8077 23.3252 34.9376C22.6036 34.3098 22.0191 33.6099 21.6511 32.6791C21.781 32.643 21.9181 32.5564 21.9759 32.4337C25.2879 24.7849 17.0402 16.4362 9.43471 19.0556C0.364398 22.2017 1.94467 34.0429 11.4696 36.6478C13.7859 37.2828 16.2753 37.1024 18.5988 35.8324C19.0029 36.5756 19.407 37.1818 20.0997 37.9106C12.2922 41.4608 2.34876 37.4848 1.17257 28.8691ZM30.3751 24.6045C39.3155 28.4794 32.7924 40.8113 24.22 35.5871C26.7455 32.3688 27.2146 28.2125 26.1899 24.4386C27.5609 23.8541 28.9752 24.0489 30.3751 24.6045ZM21.5501 28.0104C21.6511 29.1217 21.5934 30.2185 21.2687 31.2936C21.0739 30.0886 21.2615 29.0062 21.5501 28.0104ZM18.137 34.8943C14.8682 36.7199 11.1088 36.0849 8.12143 33.8264C3.07034 29.8865 4.70834 24.8932 4.45578 26.257C5.33612 19.9936 13.6343 16.963 19.0895 22.7645C16.2176 25.9106 16.4702 31.1637 18.137 34.8943ZM26.8177 39.8805C22.5603 39.2671 20.3884 37.4415 18.9885 34.1944C17.4732 30.5215 18.0649 27.4692 18.0288 27.628C18.2453 26.1054 18.7432 24.6983 19.7678 23.551C20.7492 24.8787 20.9368 25.521 21.1677 26.2425C20.1502 27.1806 18.1515 34.8438 25.6704 37.4127C34.3655 40.3856 39.8062 28.7031 31.7461 24.085C29.9566 23.0676 27.7918 22.613 25.8652 23.4356C25.4178 22.1728 24.9488 21.3213 24.3859 20.4699C25.1075 20.1307 27.2146 18.2979 32.2801 20.4193C42.2019 24.7633 40.8597 41.6844 26.8177 39.8805ZM24.3066 11.1037C24.3066 11.1037 25.3312 9.06883 27.1929 9.50178C29.0546 9.93473 25.5982 15.9816 23.8736 16.0393C22.1418 16.1043 19.6163 11.414 21.2182 9.80484C22.8273 8.19571 24.3066 11.1037 24.3066 11.1037ZM25.2086 0.0923182C25.1869 -0.0447828 24.9993 -0.0159195 24.9632 0.0923182C24.6024 1.05924 24.5591 2.12719 24.4292 3.15184C24.321 4.05382 24.1839 4.96301 24.2344 5.87221C24.2416 5.98045 24.3715 5.98766 24.4076 5.89386C25.0354 4.28472 25.4611 1.82412 25.2086 0.0923182ZM30.2308 2.71167C28.8742 3.69302 27.2362 4.73211 26.1899 6.05261C26.1755 6.07425 26.1899 6.0959 26.2188 6.08868C27.7774 5.43926 29.2133 4.14762 30.5338 3.10854C30.7431 2.93536 30.4545 2.55292 30.2308 2.71167ZM19.6451 4.14762C19.1039 3.57757 18.5195 2.97144 17.8773 2.51684C17.8556 2.50241 17.834 2.53127 17.8412 2.55292C18.2092 3.33945 18.7576 4.07546 19.2699 4.76819C19.674 5.30937 20.0637 6.00931 20.7275 6.233C20.8935 6.29073 21.0089 6.11755 20.9873 5.97323C20.8718 5.25165 20.1286 4.65995 19.6451 4.14762Z" fill="white"/>
</svg>
