<svg xmlns="http://www.w3.org/2000/svg" width="31" height="23" viewBox="0 0 31 23" fill="none"><path d="M30.8007 5.19991C30.8007 5.29991 30.8007 5.39989 30.7007 5.39989C30.5007 5.59989 30.4008 5.89991 30.4008 6.19991C30.4008 6.29991 30.3007 6.29989 30.3007 6.39989C30.1007 6.49989 29.9008 6.6999 29.9008 6.9999C29.9008 7.0999 29.9007 7.09991 29.8007 7.19991C29.6007 7.29991 29.4008 7.49991 29.4008 7.69991C29.4008 7.79991 29.3007 7.89989 29.3007 7.89989L29.2007 7.9999C29.0007 8.0999 28.9007 8.19989 28.8007 8.39989C28.8007 8.59989 28.6008 8.79989 28.4008 8.89989C28.2008 8.99989 28.1007 9.19989 28.1007 9.39989C28.1007 9.59989 28.0008 9.69989 27.9008 9.89989C27.7008 9.99989 27.7007 10.1999 27.6007 10.4999C27.6007 10.6999 27.4007 10.8999 27.3007 11.0999C27.2007 11.1999 27.2007 11.2999 27.2007 11.4999C27.2007 11.6999 27.1007 11.7999 27.0007 11.9999C26.9007 12.1999 26.7007 12.3999 26.7007 12.6999C26.6007 13.2999 26.2007 13.7999 25.6007 13.8999C25.1007 13.9999 24.7007 14.1999 24.1007 14.0999C24.2007 14.0999 24.2007 14.1999 24.3007 14.1999C24.7007 14.3999 25.1008 14.5999 25.4008 14.8999C25.6008 15.0999 25.7007 15.3999 25.6007 15.5999V15.6999C25.5007 15.8999 25.5007 15.9999 25.6007 16.1999C25.7007 16.2999 25.7007 16.4999 25.6007 16.6999C25.6007 16.7999 25.6007 16.8999 25.6007 16.8999C25.8007 17.1999 25.7007 17.3999 25.5007 17.6999C25.4007 17.7999 25.4008 17.8999 25.4008 17.9999C25.4008 18.1999 25.3007 18.3999 25.2007 18.4999C25.1007 18.5999 25.0007 18.7999 25.1007 18.9999C25.1007 19.0999 25.1007 19.1999 25.1007 19.1999C25.2007 19.4999 25.1008 19.6999 24.9008 19.8999C24.8008 19.9999 24.8007 19.9999 24.7007 20.0999C24.5007 20.1999 24.4007 20.3999 24.5007 20.6999C24.5007 20.8999 24.4007 21.1999 24.2007 21.1999C24.0007 21.2999 23.9007 21.3999 23.8007 21.5999C23.7007 21.6999 23.6008 21.7999 23.4008 21.7999C23.3008 21.7999 23.3007 21.7999 23.2007 21.7999C22.9007 21.6999 22.7007 21.7999 22.6007 21.9999C22.4007 22.1999 22.2008 22.3999 21.9008 22.3999C21.7008 22.3999 21.5007 22.5999 21.2007 22.6999C21.1007 22.6999 21.0008 22.7999 20.9008 22.7999C19.6008 22.7999 18.6007 22.0999 17.8007 20.8999C17.3007 20.0999 17.1007 19.1999 17.2007 18.2999C17.3007 17.1999 17.2007 15.9999 16.7007 14.8999C16.7007 14.8999 16.7007 14.8999 16.6007 14.7999C16.6007 14.8999 16.6007 14.9999 16.6007 15.0999C16.6007 15.9999 16.5007 16.7999 16.1007 17.5999C16.0007 17.7999 16.0008 17.9999 15.9008 18.0999C15.8007 18.1999 15.7007 18.1999 15.7007 17.9999C15.2007 16.9999 14.9008 15.8999 14.9008 14.7999C14.8007 15.0999 14.7007 15.3999 14.7007 15.6999C14.5007 16.4999 14.5007 17.3999 14.7007 18.1999C14.9007 19.7999 14.2007 21.1999 12.8007 21.7999C12.3007 21.9999 11.7007 21.9999 11.1007 21.8999C11.1007 21.8999 11.0007 21.8999 11.0007 21.7999C10.7007 21.4999 10.4007 21.3999 10.0007 21.2999C9.90073 21.2999 9.80071 21.1999 9.80071 21.0999C9.60071 20.8999 9.50071 20.6999 9.30071 20.5999C9.20071 20.4999 9.10073 20.4999 9.00073 20.4999C8.90073 20.4999 8.90071 20.4999 8.80071 20.4999C8.60071 20.4999 8.40071 20.3999 8.30071 20.1999C8.20071 19.9999 8.00075 19.8999 7.90075 19.7999C7.70075 19.5999 7.6007 19.4999 7.6007 19.1999C7.6007 18.8999 7.50071 18.6999 7.30071 18.4999L7.20074 18.3999C7.00074 18.1999 6.80075 17.8999 6.90075 17.5999C6.90075 17.4999 6.90075 17.3999 6.90075 17.2999C6.90075 17.1999 6.90071 17.0999 6.80071 16.9999C6.60071 16.6999 6.50073 16.4999 6.50073 16.1999L6.40075 16.0999C6.30075 15.8999 6.30074 15.6999 6.20074 15.4999V15.3999C6.30074 15.1999 6.30074 14.9999 6.20074 14.7999C6.20074 14.6999 6.20071 14.4999 6.30071 14.3999C6.30071 14.2999 6.30071 14.1999 6.30071 14.1999C6.20071 13.9999 6.2007 13.8999 6.1007 13.6999C6.1007 13.5999 6.10074 13.3999 6.20074 13.3999C6.50074 12.9999 6.90075 12.7999 7.40075 12.6999H7.50073C7.10073 12.5999 6.70071 12.4999 6.30071 12.2999C6.10071 12.1999 5.90074 12.0999 5.70074 11.9999C5.40074 11.7999 5.10073 11.3999 5.00073 10.9999C4.90073 10.5999 4.70075 10.1999 4.40075 9.79989C4.30075 9.69989 4.30071 9.5999 4.30071 9.4999C4.30071 9.2999 4.2007 9.1999 4.1007 8.9999C3.9007 8.7999 3.80071 8.49989 3.80071 8.29989C3.80071 8.19989 3.7007 7.99989 3.6007 7.89989C3.4007 7.69989 3.30071 7.49991 3.30071 7.19991C3.30071 6.99991 3.20073 6.89991 3.00073 6.69991C2.70073 6.49991 2.6007 6.29989 2.6007 5.89989C2.6007 5.79989 2.50075 5.69991 2.40075 5.69991C2.30075 5.59991 2.2007 5.5999 2.1007 5.4999C2.0007 5.3999 1.90075 5.29991 1.90075 5.09991C1.80075 4.89991 1.70073 4.6999 1.50073 4.4999C1.50073 4.4999 1.40075 4.39989 1.40075 4.29989C1.40075 3.99989 1.20075 3.6999 0.900751 3.4999L0.800714 3.39989C0.800714 3.19989 0.700738 3.09989 0.700738 2.89989C0.700738 2.79989 0.600702 2.69991 0.600702 2.59991C0.300702 2.19991 0.300726 1.59991 0.500726 1.19991C0.600726 0.999912 0.800726 0.999894 1.00073 0.899894C1.80073 0.699894 2.60073 0.799894 3.50073 0.899894C4.50073 1.09989 5.40075 1.49989 6.40075 1.89989C7.70075 2.49989 8.90073 3.19991 10.0007 4.09991C11.5007 5.29991 12.9007 6.59991 14.0007 8.19991C14.4007 8.79991 14.8007 9.39989 15.1007 9.89989C15.2007 9.79989 15.2007 9.6999 15.3007 9.4999V9.39989C15.0007 8.59989 14.7008 7.89991 14.4008 7.09991C14.1007 6.49991 13.8007 5.79991 13.5007 5.19991C13.2007 4.69991 12.9007 4.09991 12.5007 3.59991C12.4007 3.39991 12.3007 3.19991 12.2007 3.09991C12.2007 2.99991 12.1007 2.99989 12.1007 2.89989C12.0007 2.79989 12.0007 2.59991 12.1007 2.59991C12.2007 2.59991 12.3007 2.59991 12.4008 2.59991C12.5008 2.69991 12.6007 2.79989 12.7007 2.89989C13.0007 3.39989 13.2008 3.89989 13.4008 4.39989C13.6007 4.89989 13.8007 5.29989 14.0007 5.79989C14.4007 6.89989 14.9007 8.09991 15.3007 9.19991V9.29989C15.5007 9.29989 15.7008 9.29989 15.9008 9.39989C15.9008 9.29989 16.0007 9.09989 16.1007 8.89989C16.7007 7.29989 17.3007 5.69991 18.0007 4.09991C18.1007 3.79991 18.3008 3.59989 18.4008 3.29989C18.5008 3.19989 18.6007 3.09991 18.8007 3.09991C19.0007 3.09991 19.1007 3.19989 19.1007 3.39989C19.1007 3.49989 19.0008 3.69989 18.9008 3.79989C18.5008 4.39989 18.1007 4.99991 17.7007 5.69991C17.0007 6.89991 16.5007 8.1999 16.1007 9.4999C16.1007 9.4999 16.1007 9.59991 16.1007 9.69991C16.2007 9.79991 16.3007 9.8999 16.3007 9.9999C16.5007 9.5999 16.7007 9.29989 17.0007 8.89989C17.5007 8.09989 18.2008 7.39989 18.9008 6.79989C19.6008 6.09989 20.4007 5.4999 21.3007 4.9999C22.5007 4.2999 23.7007 3.69989 25.1007 3.39989C25.8007 3.19989 26.4007 3.09991 27.1007 3.09991C28.1007 3.09991 29.1007 3.19991 30.0007 3.59991C30.8007 4.09991 30.9007 4.69991 30.8007 5.19991Z" fill="url(#paint0_linear_1972_6952)"></path><defs><linearGradient id="paint0_linear_1972_6952" x1="5.07784" y1="-3.40904" x2="26.8709" y2="18.6255" gradientUnits="userSpaceOnUse"><stop offset="0.00353982" stop-color="#9DE05E"></stop><stop offset="0.2876" stop-color="#8ED552"></stop><stop offset="0.8305" stop-color="#67BA33"></stop><stop offset="1" stop-color="#5AB028"></stop></linearGradient></defs></svg>