<svg width="40" height="37" viewBox="0 0 40 37" fill="none" xmlns="http://www.w3.org/2000/svg">
<path d="M1.05506 36.6938C0.784524 36.694 0.52459 36.5887 0.330784 36.4003C0.236156 36.3074 0.160905 36.1966 0.109326 36.0746C0.0577484 35.9525 0.0308807 35.8214 0.0302842 35.689L0 13.8879C0 13.8814 0 13.876 0 13.8695C0.00275906 13.7086 0.044396 13.5506 0.121368 13.4092C0.198339 13.2677 0.308368 13.1468 0.442122 13.0569L6.19519 9.15317V5.01095C6.19776 4.74207 6.30713 4.48523 6.49928 4.29682C6.69144 4.10842 6.95066 4.00389 7.21997 4.00619H13.7783L19.4179 0.179108C19.5899 0.0624146 19.7931 0 20.0011 0C20.2091 0 20.4122 0.0624146 20.5843 0.179108L26.1892 4.00507H32.7757C33.045 4.00277 33.3042 4.10736 33.4964 4.29577C33.6885 4.48418 33.7979 4.74102 33.8005 5.0099V9.20067L39.5297 13.1086C39.7259 13.2417 39.8687 13.4397 39.933 13.6677C39.9572 13.7315 39.9697 13.7991 39.9697 13.8674L40 35.6361C39.998 35.905 39.8892 36.1621 39.6974 36.3509C39.5057 36.5397 39.2467 36.6448 38.9774 36.6431L1.05615 36.6938H1.05506ZM4.05263 34.6788L35.9182 34.6345L20.0146 22.5209L4.05263 34.6788ZM2.07661 33.6373L14.4464 24.2165L2.05497 15.8036L2.07661 33.6373ZM25.5558 24.197L37.9461 33.6341L37.9212 15.7561L25.5558 24.197ZM8.24475 17.5606L16.1446 22.9224L19.3876 20.4531C19.5659 20.3183 19.7831 20.2447 20.0067 20.2431C20.2303 20.2416 20.4484 20.3121 20.6286 20.4444L20.6426 20.4531L23.8608 22.9051L31.752 17.5175V6.01578H8.24475V17.5606ZM2.82573 13.8836L6.19625 16.1716V11.5955L2.82573 13.8836ZM33.8005 16.1187L37.0738 13.8847L33.8005 11.6506V16.1187ZM17.3824 4.00507H22.6014L19.9984 2.22973L17.3824 4.00507ZM13.0649 17.28C12.7977 17.28 12.5414 17.174 12.3525 16.9854C12.1635 16.7968 12.0574 16.5409 12.0574 16.2742C12.0574 16.0074 12.1635 15.7515 12.3525 15.5629C12.5414 15.3742 12.7977 15.2683 13.0649 15.2683H26.9329C27.2001 15.2683 27.4564 15.3742 27.6453 15.5629C27.8343 15.7515 27.9404 16.0074 27.9404 16.2742C27.9404 16.5409 27.8343 16.7968 27.6453 16.9854C27.4564 17.174 27.2001 17.28 26.9329 17.28H13.0649ZM13.0649 12.0499C12.7977 12.0499 12.5414 11.9439 12.3525 11.7553C12.1635 11.5666 12.0574 11.3108 12.0574 11.0441C12.0574 10.7773 12.1635 10.5214 12.3525 10.3328C12.5414 10.1441 12.7977 10.0382 13.0649 10.0382H26.9329C27.2001 10.0382 27.4564 10.1441 27.6453 10.3328C27.8343 10.5214 27.9404 10.7773 27.9404 11.0441C27.9404 11.3108 27.8343 11.5666 27.6453 11.7553C27.4564 11.9439 27.2001 12.0499 26.9329 12.0499H13.0649Z" fill="#4BAF47"/>
</svg>
