<svg width="41" height="41" viewBox="0 0 41 41" fill="none" xmlns="http://www.w3.org/2000/svg">
<path d="M25.6777 11.8328C25.6775 10.8551 25.3875 9.89946 24.8442 9.08663C24.301 8.2738 23.5289 7.64032 22.6256 7.26628C21.7224 6.89224 20.7285 6.79444 19.7696 6.98525C18.8108 7.17606 17.93 7.64692 17.2388 8.33827C16.5475 9.02962 16.0768 9.91043 15.8861 10.8693C15.6954 11.8282 15.7933 12.8221 16.1675 13.7253C16.5417 14.6285 17.1752 15.4005 17.9881 15.9437C18.801 16.4868 19.7568 16.7767 20.7344 16.7767C22.0451 16.7751 23.3016 16.2537 24.2283 15.3269C25.155 14.4 25.6762 13.1434 25.6777 11.8328ZM16.962 11.8328C16.9621 11.0867 17.1835 10.3574 17.5981 9.73711C18.0127 9.11683 18.6019 8.63341 19.2912 8.34799C19.9806 8.06256 20.739 7.98795 21.4708 8.13359C22.2025 8.27922 22.8746 8.63856 23.4021 9.16617C23.9297 9.69378 24.2889 10.366 24.4344 11.0977C24.5799 11.8295 24.5052 12.588 24.2196 13.2772C23.9341 13.9665 23.4505 14.5557 22.8302 14.9701C22.2098 15.3846 21.4805 15.6059 20.7344 15.6059C19.7341 15.6047 18.7752 15.2068 18.0679 14.4994C17.3607 13.7921 16.963 12.833 16.962 11.8328Z" fill="#C78665"/>
<path d="M40.581 39.9488L35.8087 27.4376C35.7664 27.3269 35.6914 27.2316 35.5938 27.1643C35.4961 27.097 35.3803 27.061 35.2618 27.061H26.2296C26.2848 26.971 26.3397 26.8837 26.3949 26.7933C29.8702 21.0395 31.6191 16.0063 31.594 11.8354C31.5945 8.9552 30.4508 6.19273 28.4145 4.15575C26.3782 2.11876 23.6162 0.974121 20.7359 0.973633C17.8557 0.973145 15.0932 2.11685 13.0562 4.15315C11.0192 6.18944 9.87458 8.95153 9.87409 11.8318C9.849 16.0063 11.5979 21.0402 15.0733 26.7933C15.1285 26.8847 15.1833 26.972 15.2385 27.061H6.20638C6.0878 27.061 5.97202 27.097 5.87436 27.1643C5.7767 27.2316 5.70176 27.3269 5.65943 27.4376L0.887783 39.9488C0.853784 40.0375 0.841878 40.133 0.853095 40.2273C0.864312 40.3216 0.898313 40.4117 0.952163 40.4899C1.00601 40.5681 1.07809 40.632 1.16217 40.6761C1.24624 40.7202 1.33979 40.7431 1.43473 40.743H40.0341C40.129 40.7431 40.2226 40.7202 40.3066 40.6761C40.3907 40.632 40.4628 40.5681 40.5167 40.4899C40.5705 40.4117 40.6045 40.3216 40.6157 40.2273C40.6269 40.133 40.615 40.0375 40.581 39.9488ZM11.0453 11.8328C11.0455 10.5604 11.2963 9.30048 11.7834 8.12503C12.2706 6.94957 12.9845 5.88157 13.8843 4.982C14.7842 4.08244 15.8525 3.36893 17.0281 2.8822C18.2037 2.39548 19.4637 2.14508 20.7361 2.1453C22.0085 2.14552 23.2684 2.39636 24.4438 2.88348C25.6193 3.37061 26.6873 4.08449 27.5868 4.98437C28.4864 5.88424 29.1999 6.95249 29.6866 8.12812C30.1734 9.30374 30.4238 10.5637 30.4235 11.8361C30.4737 20.1517 22.6994 30.4079 20.7344 32.8673C18.7694 30.4089 10.9947 20.1554 11.0453 11.8328ZM20.2885 34.1719C20.3434 34.2365 20.4118 34.2884 20.4888 34.324C20.5658 34.3596 20.6496 34.3781 20.7344 34.3781C20.8192 34.3781 20.903 34.3596 20.98 34.324C21.057 34.2884 21.1254 34.2365 21.1803 34.1719C22.7346 32.2785 24.1756 30.2947 25.4957 28.2311H34.858L35.6073 30.1965L17.3119 36.7033L10.7907 28.2301H15.9725C17.2927 30.2941 18.7339 32.2782 20.2885 34.1719ZM17.2915 37.952H17.2948L28.2093 34.0716L32.4427 39.5721H12.7393L17.2915 37.952ZM6.61015 28.2301H9.3131L16.1514 37.1157L9.24586 39.5718H2.28442L6.61015 28.2301ZM33.9217 39.5721L29.3691 33.6571L36.0262 31.2897L39.1851 39.5721H33.9217Z" fill="#C78665"/>
</svg>
