<svg width="47" height="41" viewBox="0 0 47 41" fill="none" xmlns="http://www.w3.org/2000/svg">
<path d="M39.8225 40.7423H6.8406C6.17956 40.7416 5.54579 40.4787 5.07837 40.0113C4.61094 39.5439 4.34804 38.9101 4.34734 38.2491V33.8809C4.34734 33.7057 4.41694 33.5377 4.54083 33.4138C4.66473 33.2899 4.83276 33.2203 5.00798 33.2203H41.6551C41.8303 33.2203 41.9983 33.2899 42.1222 33.4138C42.2461 33.5377 42.3157 33.7057 42.3157 33.8809V38.2484C42.3152 38.9096 42.0524 39.5435 41.5849 40.0111C41.1175 40.4786 40.4836 40.7416 39.8225 40.7423ZM5.66862 34.5416V38.2484C5.66897 38.5591 5.79256 38.857 6.01227 39.0767C6.23198 39.2965 6.52988 39.42 6.8406 39.4204H39.8225C40.1332 39.42 40.4311 39.2965 40.6508 39.0767C40.8705 38.857 40.9941 38.5591 40.9945 38.2484V34.5416H5.66862Z" fill="#C78665"/>
<path d="M19.3954 13.6032H16.2244C16.0491 13.6032 15.8811 13.5336 15.7572 13.4097C15.6333 13.2858 15.5637 13.1177 15.5637 12.9425V11.0643C15.5639 10.6228 15.7393 10.1994 16.0515 9.88709C16.3636 9.57481 16.787 9.3992 17.2285 9.39885H18.3932C18.8348 9.3992 19.2583 9.57478 19.5705 9.88705C19.8828 10.1993 20.0584 10.6227 20.0587 11.0643V12.9425C20.0587 13.0295 20.0415 13.1156 20.0082 13.196C19.9748 13.2763 19.9259 13.3492 19.8643 13.4106C19.8027 13.472 19.7295 13.5206 19.6491 13.5536C19.5686 13.5867 19.4824 13.6035 19.3954 13.6032ZM16.885 12.2819H18.7348V11.0643C18.7348 10.973 18.6985 10.8855 18.634 10.8209C18.5694 10.7564 18.4819 10.7201 18.3906 10.7201H17.2318C17.1867 10.7201 17.1419 10.729 17.1002 10.7463C17.0585 10.7637 17.0206 10.789 16.9887 10.821C16.9568 10.853 16.9315 10.8909 16.9143 10.9327C16.897 10.9744 16.8882 11.0192 16.8883 11.0643L16.885 12.2819Z" fill="#C78665"/>
<path d="M30.4354 13.6032H27.2643C27.0891 13.6032 26.9211 13.5336 26.7972 13.4097C26.6733 13.2858 26.6037 13.1177 26.6037 12.9425V11.0643C26.604 10.6227 26.7796 10.1993 27.0919 9.88705C27.4042 9.57478 27.8276 9.3992 28.2692 9.39885H29.4279C29.8695 9.3992 30.2928 9.57481 30.605 9.88709C30.9171 10.1994 31.0926 10.6228 31.0928 11.0643V12.9425C31.0928 13.1172 31.0236 13.2847 30.9004 13.4085C30.7772 13.5323 30.6101 13.6023 30.4354 13.6032ZM27.925 12.2819H29.7748V11.0643C29.7749 11.0192 29.766 10.9744 29.7488 10.9327C29.7316 10.8909 29.7063 10.853 29.6744 10.821C29.6425 10.789 29.6046 10.7637 29.5629 10.7463C29.5211 10.729 29.4764 10.7201 29.4312 10.7201H28.2725C28.1812 10.7201 28.0936 10.7564 28.0291 10.8209C27.9645 10.8855 27.9283 10.973 27.9283 11.0643L27.925 12.2819Z" fill="#C78665"/>
<path d="M45.2596 14.9238C45.2077 14.924 45.156 14.918 45.1056 14.906L35.1418 12.5277C35.0564 12.5085 34.9757 12.4725 34.9043 12.4219C34.833 12.3712 34.7724 12.3069 34.7261 12.2326C34.6797 12.1584 34.6487 12.0757 34.6346 11.9893C34.6205 11.9029 34.6238 11.8146 34.6441 11.7295C34.6645 11.6443 34.7015 11.5641 34.7531 11.4934C34.8047 11.4228 34.8699 11.363 34.9448 11.3178C35.0197 11.2725 35.1028 11.2425 35.1894 11.2296C35.2759 11.2167 35.3642 11.2212 35.449 11.2427L45.4128 13.621C45.5698 13.659 45.7075 13.7531 45.7998 13.8856C45.892 14.0182 45.9326 14.1799 45.9137 14.3403C45.8949 14.5008 45.8179 14.6487 45.6973 14.7562C45.5768 14.8637 45.4211 14.9233 45.2596 14.9238Z" fill="#C78665"/>
<path d="M3.16148 18.0064C2.62545 18.0071 2.10735 17.8133 1.70338 17.4609C1.29941 17.1086 1.03699 16.6217 0.96485 16.0905L0.263909 10.9071C0.0945741 9.63068 0.328916 8.33327 0.934082 7.19675C1.53925 6.06023 2.4849 5.14157 3.63847 4.56956C10.6783 1.05627 18.2327 0.320312 23.3315 0.320312C28.4449 0.320312 36.0159 1.05693 43.0306 4.56758C44.1825 5.1404 45.1266 6.059 45.7308 7.19488C46.3349 8.33076 46.5688 9.62708 46.3998 10.9025L45.6982 16.0885C45.6568 16.3952 45.5516 16.6898 45.3893 16.9533C45.2271 17.2169 45.0114 17.4434 44.7562 17.6185C44.501 17.7935 44.2119 17.9131 43.9076 17.9696C43.6033 18.026 43.2906 18.0181 42.9896 17.9462L36.0238 16.2821C35.5012 16.1556 35.0422 15.844 34.7319 15.405C34.4215 14.966 34.2808 14.4293 34.3358 13.8945L34.7322 10.1289C34.7666 9.78551 34.6733 9.44153 34.4702 9.16259C34.267 8.88366 33.9683 8.68931 33.6309 8.61665C26.8584 7.09451 19.8324 7.09451 13.0599 8.61665C12.7227 8.68958 12.4242 8.88402 12.2212 9.16291C12.0183 9.4418 11.925 9.78563 11.9593 10.1289L12.3556 13.8985C12.4107 14.4336 12.2698 14.9705 11.959 15.4096C11.6482 15.8487 11.1887 16.1601 10.6657 16.286L3.67348 17.9469C3.50572 17.9866 3.33389 18.0066 3.16148 18.0064ZM23.3315 1.6416C18.3767 1.6416 11.0377 2.35509 4.22842 5.75277C3.32163 6.20168 2.57808 6.92314 2.10204 7.81598C1.626 8.70883 1.44134 9.72827 1.57396 10.7314L2.27358 15.9115C2.2902 16.0353 2.33261 16.1543 2.39808 16.2607C2.46355 16.3671 2.55062 16.4586 2.65367 16.5293C2.75671 16.6 2.87344 16.6482 2.9963 16.671C3.11917 16.6937 3.24543 16.6904 3.36694 16.6613L10.3618 14.9958C10.5728 14.945 10.7582 14.8193 10.8835 14.6422C11.0089 14.4651 11.0658 14.2485 11.0436 14.0326L10.6472 10.263C10.5792 9.59747 10.7582 8.93019 11.1502 8.38812C11.5422 7.84604 12.1199 7.46699 12.7732 7.32312C19.735 5.7588 26.9572 5.7588 33.919 7.32312C34.5731 7.46632 35.1516 7.84529 35.5442 8.38775C35.9368 8.9302 36.116 9.59818 36.0476 10.2643L35.6512 14.03C35.6288 14.2458 35.6855 14.4624 35.8108 14.6395C35.9361 14.8167 36.1214 14.9423 36.3323 14.9932L43.2961 16.6567C43.4172 16.6855 43.543 16.6887 43.6654 16.6661C43.7877 16.6435 43.9041 16.5956 44.0069 16.5254C44.1097 16.4553 44.1967 16.3644 44.2623 16.2587C44.328 16.153 44.3709 16.0347 44.3882 15.9115L45.0891 10.7254C45.2221 9.72317 45.0383 8.70442 44.5634 7.81188C44.0884 6.91934 43.3462 6.19773 42.4406 5.74815C35.6532 2.35311 28.3029 1.6416 23.3315 1.6416Z" fill="#C78665"/>
<path d="M1.40219 14.9238C1.24074 14.9232 1.08511 14.8634 0.9647 14.7559C0.844288 14.6483 0.767432 14.5004 0.748648 14.34C0.729863 14.1797 0.770452 14.018 0.862746 13.8855C0.955041 13.753 1.09265 13.6589 1.24959 13.621L11.3244 11.2143C11.4092 11.1928 11.4975 11.1883 11.584 11.2012C11.6706 11.2141 11.7537 11.2441 11.8286 11.2894C11.9035 11.3346 11.9687 11.3944 12.0203 11.465C12.0719 11.5357 12.109 11.6159 12.1293 11.7011C12.1497 11.7862 12.1529 11.8745 12.1388 11.9609C12.1248 12.0472 12.0937 12.13 12.0474 12.2042C12.001 12.2785 11.9404 12.3428 11.8691 12.3935C11.7977 12.4441 11.717 12.4801 11.6316 12.4992L1.55678 14.906C1.50614 14.918 1.45425 14.924 1.40219 14.9238Z" fill="#C78665"/>
<path d="M41.6551 34.5416H5.00798C4.83276 34.5416 4.66473 34.472 4.54083 34.3481C4.41694 34.2242 4.34734 34.0561 4.34734 33.8809L4.34734 27.5731C4.34495 26.7637 4.56684 25.9695 4.98841 25.2785C5.40998 24.5876 6.01472 24.0269 6.73556 23.6588C8.4725 22.7975 9.97397 21.5268 11.1106 19.9562C12.2472 18.3856 12.9849 16.5622 13.2601 14.643C13.3477 13.9873 13.6709 13.3858 14.1692 12.9507C14.6675 12.5155 15.3071 12.2764 15.9687 12.2779H30.6931C31.3547 12.2764 31.9942 12.5155 32.4926 12.9507C32.9909 13.3858 33.314 13.9873 33.4017 14.643C33.6773 16.5625 34.4156 18.3862 35.5529 19.9569C36.6902 21.5275 38.1925 22.798 39.9302 23.6588C40.651 24.0269 41.2557 24.5876 41.6773 25.2785C42.0989 25.9695 42.3208 26.7637 42.3184 27.5731V33.8809C42.3184 33.9679 42.3012 34.054 42.2678 34.1343C42.2345 34.2147 42.1856 34.2876 42.124 34.349C42.0623 34.4104 41.9892 34.459 41.9087 34.492C41.8283 34.5251 41.7421 34.5419 41.6551 34.5416ZM5.66862 33.2203H40.9945V27.5731C40.9982 27.0099 40.8458 26.4566 40.5543 25.9746C40.2628 25.4927 39.8435 25.1009 39.3429 24.8427C37.4135 23.8865 35.7456 22.4756 34.483 20.7314C33.2203 18.9872 32.4008 16.9621 32.095 14.8307C32.0507 14.4902 31.884 14.1774 31.626 13.9508C31.368 13.7242 31.0364 13.5992 30.6931 13.5992H15.97C15.6266 13.5992 15.295 13.7242 15.0371 13.9508C14.7791 14.1774 14.6124 14.4902 14.5681 14.8307C14.2626 16.9618 13.4434 18.9867 12.1812 20.7309C10.9191 22.4751 9.25171 23.8862 7.32287 24.8427C6.82226 25.1009 6.40295 25.4927 6.11142 25.9746C5.81989 26.4566 5.66754 27.0099 5.67126 27.5731L5.66862 33.2203Z" fill="#C78665"/>
<path d="M23.3315 31.2344C21.8753 31.2344 20.4518 30.8026 19.241 29.9935C18.0301 29.1845 17.0864 28.0346 16.5292 26.6892C15.9719 25.3438 15.8261 23.8634 16.1102 22.4351C16.3943 21.0069 17.0955 19.6949 18.1252 18.6652C19.1549 17.6355 20.4669 16.9343 21.8951 16.6502C23.3234 16.3661 24.8038 16.5119 26.1492 17.0691C27.4946 17.6264 28.6445 18.5701 29.4535 19.781C30.2626 20.9918 30.6944 22.4153 30.6944 23.8715C30.6923 25.8236 29.9159 27.6952 28.5355 29.0755C27.1552 30.4559 25.2836 31.2323 23.3315 31.2344ZM23.3315 17.83C22.1366 17.83 20.9686 18.1843 19.975 18.8482C18.9815 19.512 18.2071 20.4556 17.7499 21.5595C17.2926 22.6635 17.1729 23.8782 17.4061 25.0502C17.6392 26.2221 18.2146 27.2986 19.0595 28.1436C19.9044 28.9885 20.9809 29.5639 22.1529 29.797C23.3248 30.0301 24.5396 29.9105 25.6435 29.4532C26.7475 28.9959 27.6911 28.2216 28.3549 27.228C29.0188 26.2345 29.3731 25.0664 29.3731 23.8715C29.3719 22.2693 28.7351 20.7331 27.6024 19.5999C26.4697 18.4667 24.9337 17.8292 23.3315 17.8273V17.83Z" fill="#C78665"/>
<path d="M23.3315 20.5042C23.1563 20.5042 22.9883 20.4346 22.8644 20.3107C22.7405 20.1868 22.6709 20.0188 22.6709 19.8436V19.434C22.6709 19.2588 22.7405 19.0908 22.8644 18.9669C22.9883 18.843 23.1563 18.7734 23.3315 18.7734C23.5068 18.7734 23.6748 18.843 23.7987 18.9669C23.9226 19.0908 23.9922 19.2588 23.9922 19.434V19.8436C23.9922 20.0188 23.9226 20.1868 23.7987 20.3107C23.6748 20.4346 23.5068 20.5042 23.3315 20.5042Z" fill="#C78665"/>
<path d="M20.4829 21.6835C20.308 21.6834 20.1402 21.6141 20.0164 21.4906L19.7264 21.2012C19.665 21.1399 19.6163 21.0671 19.5831 20.9869C19.5499 20.9067 19.5327 20.8208 19.5327 20.734C19.5327 20.6473 19.5497 20.5613 19.5829 20.4812C19.6161 20.401 19.6648 20.3281 19.7261 20.2667C19.7874 20.2054 19.8603 20.1567 19.9404 20.1234C20.0206 20.0902 20.1065 20.0731 20.1933 20.073C20.28 20.073 20.366 20.0901 20.4461 20.1232C20.5263 20.1564 20.5992 20.2051 20.6606 20.2664L20.9499 20.5558C21.0423 20.6482 21.1052 20.7659 21.1307 20.894C21.1561 21.0221 21.1431 21.1549 21.0931 21.2756C21.0431 21.3963 20.9584 21.4995 20.8498 21.5721C20.7412 21.6447 20.6135 21.6835 20.4829 21.6835Z" fill="#C78665"/>
<path d="M19.3029 24.5322H18.894C18.7188 24.5322 18.5508 24.4626 18.4269 24.3387C18.303 24.2148 18.2334 24.0467 18.2334 23.8715C18.2334 23.6963 18.303 23.5283 18.4269 23.4044C18.5508 23.2805 18.7188 23.2109 18.894 23.2109H19.3029C19.4782 23.2109 19.6462 23.2805 19.7701 23.4044C19.894 23.5283 19.9636 23.6963 19.9636 23.8715C19.9636 24.0467 19.894 24.2148 19.7701 24.3387C19.6462 24.4626 19.4782 24.5322 19.3029 24.5322Z" fill="#C78665"/>
<path d="M20.1935 27.6709C20.0627 27.671 19.9348 27.6323 19.8261 27.5596C19.7173 27.487 19.6326 27.3837 19.5826 27.2629C19.5325 27.1421 19.5195 27.0091 19.5451 26.8809C19.5707 26.7526 19.6338 26.6349 19.7264 26.5425L20.0164 26.2531C20.1411 26.1329 20.3081 26.0664 20.4813 26.068C20.6545 26.0697 20.8201 26.1393 20.9425 26.2618C21.0649 26.3844 21.1343 26.5502 21.1357 26.7234C21.1371 26.8966 21.0704 27.0634 20.9499 27.188L20.6606 27.4773C20.5367 27.6012 20.3687 27.6708 20.1935 27.6709Z" fill="#C78665"/>
<path d="M23.3315 28.9704C23.1563 28.9704 22.9883 28.9008 22.8644 28.7769C22.7405 28.653 22.6709 28.4849 22.6709 28.3097V27.9001C22.6709 27.7249 22.7405 27.5569 22.8644 27.433C22.9883 27.3091 23.1563 27.2395 23.3315 27.2395C23.5068 27.2395 23.6748 27.3091 23.7987 27.433C23.9226 27.5569 23.9922 27.7249 23.9922 27.9001V28.3097C23.9922 28.4849 23.9226 28.653 23.7987 28.7769C23.6748 28.9008 23.5068 28.9704 23.3315 28.9704Z" fill="#C78665"/>
<path d="M26.4696 27.6709C26.2944 27.6708 26.1264 27.6012 26.0025 27.4773L25.7132 27.188C25.65 27.1271 25.5996 27.0542 25.565 26.9736C25.5303 26.893 25.512 26.8064 25.5112 26.7186C25.5103 26.6309 25.527 26.5439 25.5602 26.4627C25.5933 26.3815 25.6423 26.3077 25.7043 26.2456C25.7663 26.1836 25.84 26.1345 25.9212 26.1012C26.0023 26.0679 26.0893 26.0511 26.177 26.0518C26.2648 26.0525 26.3515 26.0707 26.4321 26.1052C26.5127 26.1398 26.5857 26.1901 26.6466 26.2531L26.9367 26.5425C27.0293 26.6349 27.0924 26.7526 27.118 26.8809C27.1436 27.0091 27.1305 27.1421 27.0805 27.2629C27.0305 27.3837 26.9457 27.487 26.837 27.5596C26.7282 27.6323 26.6004 27.671 26.4696 27.6709Z" fill="#C78665"/>
<path d="M27.7691 24.5322H27.3601C27.1849 24.5322 27.0169 24.4626 26.893 24.3387C26.7691 24.2148 26.6995 24.0467 26.6995 23.8715C26.6995 23.6963 26.7691 23.5283 26.893 23.4044C27.0169 23.2805 27.1849 23.2109 27.3601 23.2109H27.7691C27.9443 23.2109 28.1123 23.2805 28.2362 23.4044C28.3601 23.5283 28.4297 23.6963 28.4297 23.8715C28.4297 24.0467 28.3601 24.2148 28.2362 24.3387C28.1123 24.4626 27.9443 24.5322 27.7691 24.5322Z" fill="#C78665"/>
<path d="M26.1802 21.6835C26.0496 21.6835 25.9219 21.6447 25.8133 21.5721C25.7047 21.4995 25.62 21.3963 25.57 21.2756C25.52 21.1549 25.5069 21.0221 25.5324 20.894C25.5579 20.7659 25.6208 20.6482 25.7132 20.5558L26.0025 20.2664C26.0639 20.2051 26.1368 20.1564 26.2169 20.1232C26.2971 20.0901 26.383 20.073 26.4698 20.073C26.5566 20.0731 26.6425 20.0902 26.7227 20.1234C26.8028 20.1567 26.8757 20.2054 26.937 20.2667C26.9983 20.3281 27.047 20.401 27.0802 20.4812C27.1133 20.5613 27.1304 20.6473 27.1304 20.734C27.1303 20.8208 27.1132 20.9067 27.08 20.9869C27.0467 21.0671 26.998 21.1399 26.9367 21.2012L26.6466 21.4906C26.5228 21.6141 26.3551 21.6834 26.1802 21.6835Z" fill="#C78665"/>
</svg>
