<svg width="79" height="94" viewBox="0 0 79 94" fill="none" xmlns="http://www.w3.org/2000/svg">
<path d="M30.1353 88.6856C28.225 87.3603 26.3147 86.035 24.4044 84.7098C22.5777 83.4442 19.6526 82.2623 19.2586 79.8505C18.9482 78.0119 20.1899 74.8958 20.5481 73.0571C20.9301 71.0752 21.3361 69.1053 21.7301 67.1233C22.124 65.1414 22.53 63.1715 22.9359 61.1896C23.2583 59.6255 23.318 55.6139 24.3209 54.4081C25.5984 52.8799 27.6041 53.3455 29.5025 52.4023C35.2094 49.5488 36.7854 42.9823 38.1823 37.3589C40.1403 29.4432 41.7879 21.5156 42.6117 13.3969C43.2206 13.5999 43.6743 12.7164 43.0535 12.4776C38.9703 10.9613 34.5766 10.3763 30.3143 9.52859C28.2966 9.1346 26.2789 8.63315 24.2373 8.38243C23.7836 8.32273 20.4884 8.39437 20.0944 8.40631C20.0824 8.33467 20.0108 8.29885 19.9392 8.31079C19.7243 8.16752 19.39 8.17946 19.2825 8.44212C19.2586 8.50182 19.2467 8.54958 19.2228 8.60927C19.1154 8.90775 19.2228 9.24205 19.5571 9.33756C17.229 16.919 15.6649 24.6317 14.3874 32.4638C13.4562 38.1827 12.31 44.8328 16.441 49.704C17.814 51.3278 19.8437 51.6859 20.4048 53.5843C20.8585 55.0767 19.3303 58.8017 19.0079 60.3538C18.602 62.3238 18.196 64.3057 17.7782 66.2757C17.3603 68.2456 16.9544 70.2275 16.5365 72.1975C16.1425 74.0361 16.047 77.3791 15.0441 78.9551C13.7308 81.0086 10.5788 80.937 8.39396 81.3907C6.11357 81.8563 3.83318 82.322 1.56473 82.7876C0.442442 83.0144 1.01552 84.6859 2.12587 84.4591C2.35272 84.4113 2.57956 84.3636 2.81834 84.3158C7.52239 85.4858 12.3936 85.8798 17.0738 87.2409C21.0495 88.399 24.9536 90.4287 29.1562 90.0466C30.0278 90.4764 31.0188 89.2945 30.1353 88.6856ZM14.9008 85.8201C11.4146 85.0083 7.797 84.3636 4.20329 84.0651C8.05966 83.2771 11.916 82.4891 15.7604 81.6414C16.047 81.5817 16.2738 81.2952 16.3335 81.0206C18.196 71.3976 20.0347 61.7746 22.1599 52.2113C22.2196 51.9367 22.0644 51.5307 21.7659 51.4352C12.7876 48.343 15.3784 37.3111 16.5126 30.4103C17.6588 23.402 18.9482 16.4533 19.9511 9.43308C22.924 9.99422 26.1595 9.94647 29.204 10.5434C33.4902 11.3911 38.1703 11.8567 42.3133 13.3014C40.391 20.3694 38.7912 27.4971 37.0481 34.6129C35.3766 41.3943 33.4066 52.5694 23.9388 51.865C23.6284 51.8412 23.318 52.1516 23.2702 52.4262C21.4555 62.0492 19.3542 71.6364 17.2767 81.1997C17.217 81.4743 17.3125 81.8205 17.5513 81.9996C20.8465 84.3516 24.1895 86.6678 27.5206 88.984C23.1628 88.3871 19.2228 86.823 14.9008 85.8201Z" fill="#C78665"/>
<path d="M36.284 30.1715C36.5705 28.7388 37.5376 26.0883 35.7706 25.0734C33.4782 23.7601 32.547 26.7927 29.2159 26.8046C27.6877 26.8046 23.7239 25.0854 22.8762 24.9899C21.5629 24.8585 20.5123 25.0973 19.187 26.2674C18.9005 26.6375 18.6736 27.0912 18.5065 27.6404C15.9157 33.5503 14.9247 43.2449 19.5452 47.8535C24.5477 52.856 30.6486 48.4743 32.941 43.3046C34.7318 39.2333 35.4004 34.5054 36.284 30.1715ZM35.1497 31.5564C34.6125 34.0278 34.1707 36.547 33.5021 38.9946C32.738 41.7883 31.6874 44.6299 29.4667 46.6237C26.1476 49.5966 21.5987 48.6653 19.2228 45C16.1306 40.2243 17.3364 32.9891 19.1631 27.6642C20.0227 26.1241 22.0882 24.954 24.8462 26.3629C28.5354 27.8075 30.2427 27.3658 31.5441 26.9598C33.4066 26.3748 36.1526 23.2945 35.8303 28.4522C35.7825 29.1328 35.3049 30.864 35.1497 31.5564Z" fill="#C78665"/>
<path d="M29.5264 21.2529C29.2517 20.0829 27.8429 19.4143 26.84 20.1903C25.9326 20.8947 25.9685 22.2439 26.649 23.0677C26.8281 23.581 27.437 23.9512 28.0339 23.8437C29.1682 23.6407 29.7771 22.3035 29.5264 21.2529ZM28.3563 22.7692C28.1892 23.008 27.9623 23.199 27.6519 23.199C27.5803 23.199 27.5086 23.1751 27.437 23.1632C27.437 23.1393 27.4489 23.1154 27.437 23.0915C27.2937 22.6378 27.2101 22.017 27.3415 21.5514C27.4967 21.038 28.022 20.847 28.3921 21.3126C28.7384 21.7185 28.6428 22.3632 28.3563 22.7692Z" fill="#C78665"/>
<path d="M34.9229 16.7279C34.7557 16.2265 34.3498 15.8564 33.6215 15.7967C32.6186 15.725 31.5202 16.525 31.162 17.4204C30.768 18.4114 31.3411 19.5456 32.4634 19.6172C32.4992 19.6172 32.5112 19.5933 32.547 19.5933C32.6425 19.6411 32.7261 19.6889 32.8335 19.7127C33.7767 19.9276 34.6244 19.4143 34.9706 18.5546C35.1975 17.9816 35.2691 17.2652 34.9229 16.7279ZM34.2543 16.8473C34.8512 17.8263 33.8006 18.8889 32.941 18.9844C32.8574 18.9606 32.7738 18.9367 32.7022 18.9009C32.6783 18.877 32.6664 18.8412 32.6306 18.8292C32.1888 18.6143 32.0217 18.3039 32.0217 17.9816V17.9696C32.0217 17.9219 32.0336 17.8741 32.0455 17.8263C32.2604 17.0503 33.323 16.4653 34.0274 16.6205C34.111 16.6682 34.1826 16.7399 34.2543 16.8473Z" fill="#C78665"/>
<path d="M50.1573 93.0195C54.3122 93.7478 58.3715 92.0285 62.4189 91.1928C67.1826 90.2138 72.0777 90.2138 76.8653 89.4258C77.0922 89.4855 77.319 89.5571 77.5339 89.6168C78.6204 89.9392 79.3248 88.3154 78.2264 87.9931C75.9938 87.3484 73.7611 86.6917 71.5285 86.047C69.3914 85.4261 66.2514 85.2351 65.0933 83.0861C64.2217 81.4384 64.3888 78.0955 64.1501 76.233C63.8874 74.2272 63.6367 72.2333 63.386 70.2275C63.1352 68.2217 62.8845 66.2279 62.6338 64.2221C62.4428 62.6461 61.213 58.8137 61.7861 57.3571C62.5144 55.5065 64.556 55.3035 66.0603 53.7992C70.5614 49.2742 69.9645 42.5524 69.4869 36.7739C68.8422 28.8701 67.899 21.0499 66.1917 13.3014C66.526 13.2297 66.6692 12.9074 66.5857 12.597C66.5737 12.5373 66.5498 12.4895 66.5379 12.4298C66.4543 12.1552 66.12 12.1075 65.8932 12.2388C65.8216 12.2149 65.7499 12.2388 65.738 12.3224C65.344 12.2866 62.0726 11.9523 61.607 11.9761C59.5535 12.0597 57.4999 12.394 55.4583 12.6328C51.1483 13.1342 46.7188 13.3611 42.5282 14.5431C41.8834 14.7221 42.2655 15.6415 42.8863 15.4863C43.0654 23.6527 44.0564 31.6758 45.3816 39.7348C46.3129 45.4537 47.3635 52.1158 52.8198 55.4229C54.6345 56.5213 56.6761 56.2228 57.8223 57.8466C58.7297 59.1241 58.467 63.1356 58.658 64.7116C58.8968 66.7174 59.1475 68.7113 59.3744 70.717C59.6132 72.7228 59.8519 74.7286 60.0788 76.7225C60.2937 78.585 61.2727 81.7966 60.819 83.5994C60.2221 85.9634 57.2134 86.9066 55.2912 88.0289C53.2854 89.1989 51.2677 90.369 49.2619 91.539C48.3306 92.1002 49.2261 93.3538 50.1573 93.0195ZM51.8646 92.0644C55.3747 90.0228 58.8729 87.9931 62.3592 85.9037C62.6099 85.7485 62.7293 85.4023 62.6935 85.1277C61.3921 75.4211 60.0669 65.7026 59.0281 55.9602C58.9923 55.6856 58.7177 55.3513 58.4073 55.3393C48.9156 55.2677 47.853 43.9852 46.7308 37.0843C45.5607 29.8611 44.5339 22.6259 43.1968 15.4266C47.4352 14.3162 52.1392 14.2326 56.4851 13.7312C59.5654 13.373 62.789 13.6834 65.7977 13.3611C66.2394 20.4291 66.9558 27.4732 67.5408 34.5293C68.1139 41.4899 69.8092 52.7127 60.6161 55.0647C60.3176 55.1364 60.1265 55.5304 60.1624 55.8169C61.4996 65.5235 62.5741 75.2659 63.6486 85.0083C63.6844 85.2829 63.8874 85.5933 64.162 85.6769C67.9229 86.823 71.7076 87.9214 75.4923 89.0199C71.8867 89.0437 68.2333 89.378 64.6873 89.9153C60.2937 90.5839 56.2463 91.8256 51.8646 92.0644Z" fill="#C78665"/>
<path d="M50.1334 46.1103C51.9959 51.4472 57.7148 56.3064 63.1113 51.7218C68.078 47.4953 67.8751 37.7529 65.7618 31.6519C65.6424 31.0908 65.4514 30.6252 65.2007 30.2192C63.9709 28.9417 62.9442 28.6194 61.6189 28.6552C60.7593 28.6791 56.6761 30.076 55.1479 29.9446C51.8288 29.67 51.1482 26.5778 48.7485 27.7001C46.8979 28.5716 47.65 31.2818 47.8172 32.7384C48.3783 37.132 48.6529 41.8958 50.1334 46.1103ZM48.438 31.0669C48.5216 25.8972 51.0169 29.1925 52.8317 29.9208C54.0972 30.4341 55.7687 31.0072 59.5534 29.8611C62.4069 28.6791 64.3769 30.0163 65.1171 31.6161C66.514 37.0604 67.1229 44.3791 63.6605 48.8802C60.9981 52.3545 56.3895 52.9157 53.3212 49.6802C51.2676 47.5192 50.4558 44.5941 49.9066 41.7525C49.4409 39.2572 49.1902 36.7142 48.8559 34.2069C48.7723 33.5145 48.4261 31.7475 48.438 31.0669Z" fill="#C78665"/>
<path d="M56.5925 27.1031C57.1775 27.2583 57.8103 26.936 58.0252 26.4345C58.7774 25.6585 58.9087 24.3213 58.061 23.5452C57.1178 22.6856 55.6613 23.2467 55.2911 24.381C54.9688 25.4197 55.4702 26.8046 56.5925 27.1031ZM56.4015 24.5481C56.8074 24.1183 57.3208 24.3452 57.4283 24.8705C57.5357 25.348 57.3924 25.945 57.2134 26.3987C57.2014 26.4226 57.2134 26.4465 57.2134 26.4703C57.1417 26.4823 57.0701 26.4942 56.9984 26.4942C56.688 26.4703 56.4731 26.2674 56.3299 26.0166C56.0911 25.5749 56.0433 24.9302 56.4015 24.5481Z" fill="#C78665"/>
<path d="M50.0976 21.2768C50.3722 22.1603 51.1721 22.7334 52.1273 22.602C52.2347 22.5901 52.3302 22.5304 52.4257 22.5065C52.4496 22.5185 52.4735 22.5423 52.4974 22.5423C53.6197 22.5543 54.2763 21.4797 53.9659 20.453C53.6913 19.5337 52.6526 18.6502 51.6497 18.6382C50.9214 18.6382 50.4797 18.9845 50.2767 19.462C49.8946 19.9515 49.9066 20.6679 50.0976 21.2768ZM51.196 19.4023C51.9004 19.3068 52.9153 19.9754 53.0705 20.7634C53.0705 20.8112 53.0824 20.8589 53.0824 20.9067V20.9186C53.0585 21.241 52.8675 21.5394 52.4138 21.7185C52.378 21.7305 52.3661 21.7663 52.3422 21.7902C52.2586 21.814 52.175 21.8379 52.0914 21.8499C51.2438 21.6827 50.2767 20.5485 50.9572 19.6172C51.0169 19.5217 51.1005 19.462 51.196 19.4023Z" fill="#C78665"/>
<path d="M44.725 0.395096C44.6891 0.168251 44.3787 0.216008 44.319 0.395096C43.7221 1.99495 43.6504 3.76195 43.4355 5.45732C43.2564 6.94972 43.0296 8.45406 43.1132 9.9584C43.1251 10.1375 43.34 10.1494 43.3997 9.99422C44.4384 7.33178 45.1548 3.26051 44.725 0.395096Z" fill="#C78665"/>
<path d="M53.2973 5.31405C51.0528 6.93778 48.3426 8.65702 46.6114 10.8419C46.5875 10.8777 46.6114 10.9135 46.6591 10.9016C49.238 9.82707 51.6139 7.68995 53.7988 5.9707C54.145 5.67222 53.6794 5.03944 53.2973 5.31405Z" fill="#C78665"/>
<path d="M37.6808 5.86326C36.7854 4.92006 35.8183 3.91717 34.7557 3.165C34.7199 3.14112 34.6841 3.18887 34.696 3.22469C35.3049 4.52607 36.2123 5.74387 37.06 6.89003C37.7286 7.78547 38.3733 8.94357 39.4717 9.31369C39.7463 9.4092 39.9373 9.12266 39.9015 8.88388C39.7105 7.67802 38.4927 6.699 37.6808 5.86326Z" fill="#C78665"/>
<path d="M41.6208 54.2648C41.6088 54.229 41.5253 54.229 41.5133 54.2648C40.2358 61.9059 41.1193 69.8932 41.3939 77.5582C41.3939 77.6776 41.7282 77.6776 41.7282 77.5582C42.0148 69.8813 42.9102 61.894 41.6208 54.2648Z" fill="#C78665"/>
<path d="M35.5915 53.7275C33.1439 56.4736 31.1143 59.9837 29.6815 63.3625C29.5502 63.6729 29.9681 63.9356 30.1472 63.6251C32.0813 60.4613 34.0871 57.1541 35.7108 53.8231C35.7586 53.7395 35.6631 53.6559 35.5915 53.7275Z" fill="#C78665"/>
<path d="M50.3245 59.6016C49.2261 57.7869 47.7575 56.2109 46.3965 54.5872C46.3368 54.5155 46.2293 54.611 46.2651 54.6827C47.1606 56.6168 48.1276 58.5749 49.5962 60.1628C49.9543 60.5329 50.5991 60.0434 50.3245 59.6016Z" fill="#C78665"/>
</svg>
