<svg width="80" height="83" viewBox="0 0 80 83" fill="none" xmlns="http://www.w3.org/2000/svg">
<path d="M65.6097 39.4718C56.5904 35.5919 49.569 37.8359 47.7014 39.9206C39.3192 29.3088 24.6248 26.4423 13.2023 32.4504C-11.4378 45.4653 0.0715332 86.7108 33.8033 80.7896C36.6553 80.2974 39.5218 79.313 42.0119 78.0969C49.9888 84.38 64.5384 84.6261 72.5153 78.2417C83.6193 69.3527 82.3887 46.6959 65.6097 39.4718ZM2.34445 58.4369C3.11174 62.7221 -2.11452 41.3393 16.2136 33.4782C18.2259 32.6675 20.383 32.0595 22.6414 31.7555C22.6125 31.7555 22.5835 31.7699 22.5546 31.7699C26.2897 31.3211 29.3299 31.7989 29.1706 31.7699C33.7889 32.4069 37.828 34.0863 41.4907 36.8369C41.4762 36.8225 41.4473 36.808 41.4328 36.7935C41.4762 36.8225 41.621 36.9383 41.6645 36.9672C41.65 36.9528 41.6355 36.9383 41.621 36.9383C55.0993 47.5645 50.4666 64.0396 51.176 60.0583C50.2494 66.8771 46.8762 70.4674 47.2816 69.9752C47.05 70.2647 46.9631 70.3516 46.7894 70.6122C45.3417 69.3527 44.169 67.9484 43.4307 66.0808C43.6913 66.0084 43.9663 65.8347 44.0821 65.5886C50.7272 50.2428 34.1798 33.4927 18.9208 38.7479C0.723007 45.06 3.89351 68.817 23.0034 74.0433C27.6505 75.3173 32.6452 74.9553 37.3068 72.4074C38.1175 73.8985 38.9283 75.1146 40.3181 76.5768C24.6538 83.6996 4.70423 75.7226 2.34445 58.4369ZM60.9336 49.8809C78.8708 57.6551 65.7834 82.3966 48.5845 71.9151C53.6515 65.4583 54.5926 57.1195 52.5368 49.5479C55.2875 48.3753 58.125 48.7661 60.9336 49.8809ZM43.228 56.7141C43.4307 58.9436 43.3148 61.1441 42.6634 63.3012C42.2725 60.8835 42.6489 58.712 43.228 56.7141ZM36.3803 70.5253C29.8221 74.1881 22.2795 72.9141 16.286 68.3827C6.15195 60.4782 9.43826 50.46 8.93156 53.1962C10.6978 40.63 27.3465 34.5496 38.2913 46.1892C32.5294 52.5012 33.0361 63.0406 36.3803 70.5253ZM53.7963 80.5291C45.2548 79.2985 40.8972 75.6358 38.0886 69.121C35.0484 61.7522 36.2355 55.6283 36.1631 55.9468C36.5974 52.8921 37.5964 50.0691 39.6521 47.7672C41.621 50.431 41.9974 51.7195 42.4607 53.1672C40.4194 55.0492 36.4092 70.424 51.4945 75.5779C68.9394 81.5425 79.8552 58.1039 63.6842 48.8385C60.0939 46.7972 55.7507 45.8852 51.8853 47.5356C50.9878 45.0021 50.0467 43.2938 48.9175 41.5855C50.3652 40.905 54.5926 37.2278 64.7555 41.4841C84.6617 50.1994 81.9689 84.1483 53.7963 80.5291ZM48.7583 22.7941C48.7583 22.7941 50.814 18.7115 54.5491 19.5802C58.2842 20.4488 51.3497 32.5807 47.8896 32.6965C44.4151 32.8268 39.3481 23.4166 42.562 20.1882C45.7904 16.9598 48.7583 22.7941 48.7583 22.7941ZM50.5679 0.701927C50.5245 0.42686 50.1481 0.484769 50.0757 0.701927C49.3518 2.64187 49.265 4.78449 49.0044 6.84025C48.7872 8.64989 48.5122 10.474 48.6135 12.2981C48.628 12.5153 48.8886 12.5298 48.9609 12.3416C50.2205 9.11316 51.0746 4.17645 50.5679 0.701927ZM60.644 5.95714C57.9223 7.92604 54.636 10.0107 52.5368 12.6601C52.5079 12.7035 52.5368 12.7469 52.5947 12.7325C55.7218 11.4295 58.6027 8.8381 61.2521 6.75338C61.6719 6.40593 61.0928 5.63864 60.644 5.95714ZM39.406 8.8381C38.3202 7.6944 37.1476 6.47832 35.8591 5.56626C35.8157 5.5373 35.7722 5.59521 35.7867 5.63864C36.5251 7.21665 37.6253 8.69333 38.6532 10.0831C39.4639 11.1689 40.2457 12.5732 41.5776 13.022C41.9106 13.1378 42.1422 12.7904 42.0988 12.5008C41.8671 11.0531 40.376 9.86598 39.406 8.8381Z" fill="#C78665"/>
</svg>
