<svg id="Layer_1" data-name="Layer 1" xmlns="http://www.w3.org/2000/svg" viewBox="0 0 483.7 57.51"><path d="M225.2,38H207.64q-.16,1.19-.93,4.17a22,22,0,0,1-1.3,4l.5.63H225.7a29.28,29.28,0,0,1,2.2-8l-.63-.79Z" transform="translate(-8.09 -6.21)" style="fill:#002b52"/><path d="M72.69,11.36a2.79,2.79,0,0,1,1.62-.87c.16,0,.76-.07,1.81-.12l.33-.35V7.48l-.33-.38-2,.06,0-.06-7.15.22c-1.14,0-2.86-.11-5.18-.22l-.08.09-2-.09-.36.42V10l.33.39c2,.16,3.18.27,3.56.36a1.78,1.78,0,0,1,1.57,2,30.42,30.42,0,0,1-.66,4.13L59,40.75Q50.76,16.83,47.6,6.4H42.46q-.63,2-1.73,5.1L36.8,22.63c-1.69,4.7-3,8.2-3.8,10.54l-2.84,8-1.25-6.73c-.84-4.57-1.44-7.88-1.77-9.92L26,17.38a47.77,47.77,0,0,1-.63-4.87,2.14,2.14,0,0,1,.4-1.43,2.73,2.73,0,0,1,1.66-.59c.21,0,1.06-.08,2.57-.16l.33-.35V7.48L30,7.1l-2,.07-.06-.07c-3.95.14-7.08.21-9.41.23-2,0-4.62-.09-8-.23l-.07.08-2-.08-.36.42V10l.32.35a18.63,18.63,0,0,1,2.61.31c.82.21,1.46,1.14,1.9,2.77q.28,1,.93,4.47l8.22,44.63H29l1.47-4.28q2.32-6.85,3.62-10.42l7.6-21,.33,1,1.9,5.56q3.56,10.5,7.8,23.81l1.69,5.37h7.17q.24-2.34,2.1-10.67l3-13.45q2-9,3.1-13.55,2.16-8.94,3-11.51a5.74,5.74,0,0,1,.94-2Z" transform="translate(-8.09 -6.21)" style="fill:#002b52"/><path d="M201.41,48.62l0,0,0,0h-2L199,49l-.8,4.84a8,8,0,0,1-.63,2.32,1.2,1.2,0,0,1-.54.44q-2.19.9-11.93.89h-2.45c-.12-3.19-.17-6.48-.17-9.88V24.38a104,104,0,0,1,.43-12.06,1.62,1.62,0,0,1,1.14-1.45,34.1,34.1,0,0,1,3.9-.38l.33-.35V7.46L188,7.1c-.59,0-1.25.07-2,.1l-.09-.1c-2.19.15-5.33.22-9.38.24s-6.94-.09-9-.24l-.1.11c-.73,0-1.39-.07-2-.11l-.33.36V10.1l.33.39a35.38,35.38,0,0,1,3.9.38,1.63,1.63,0,0,1,1.12,1.45,99.42,99.42,0,0,1,.43,12.06V44.1l-.1,8.73a22.61,22.61,0,0,1-.36,5.16,12,12,0,0,1-2.66,2.3l-.17.46v1.1l.34.39c.53-.05,1.19-.09,2-.12l.11.12c1.43-.13,3.76-.21,7-.23l23.74.23,0,0,2.05,0,.34-.39A101.26,101.26,0,0,1,203.81,49l-.37-.38Z" transform="translate(-8.09 -6.21)" style="fill:#002b52"/><path d="M86.94,40.91l5.82-17.36,6.07,17.36C97.3,41,95.34,41,93,41s-4.46-.05-6-.12Zm31.62,17.55c-.56-.23-1.19-1.26-1.87-3.11L99,6.83h-6.8c-1.3,4-2.28,6.94-2.93,8.91L80.6,41.15Q75.51,56,74.72,57.37c-.52.92-1.92,1.45-4.21,1.59l-.36.4v2.52l.33.36,2-.08.08.08q4-.18,5.84-.22,2.14,0,6.78.22l.06-.07,2,.07.33-.39V59.36l-.33-.4a31.13,31.13,0,0,1-3.4-.3,1.66,1.66,0,0,1-1.57-1.76,34.24,34.24,0,0,1,1.67-6.77l1.47-4.74c2.72,0,4.88-.07,6.53-.08,2.9,0,5.74,0,8.53.08l2.69,8.21a15.83,15.83,0,0,1,.93,3.66c0,.93-.61,1.44-1.83,1.52l-2.9.18L99,59.4v2.45l.3.39,2-.07.06.07c3.1-.14,6.44-.21,10-.23,1.38,0,4.12.1,8.26.23l0-.06,2,.06.29-.39V59.36l-.29-.42a8.15,8.15,0,0,1-3.16-.48Z" transform="translate(-8.09 -6.21)" style="fill:#002b52"/><path d="M160.06,48.62v0l0,0h-2l-.33.42-.79,4.84a7.91,7.91,0,0,1-.64,2.32,1.17,1.17,0,0,1-.53.44q-2.2.9-11.93.89h-2.46q-.17-4.78-.17-9.88V24.38a104,104,0,0,1,.43-12.06,1.64,1.64,0,0,1,1.14-1.45,34.41,34.41,0,0,1,3.9-.38l.33-.35V7.46l-.33-.36c-.59,0-1.25.07-2,.1l-.1-.1c-2.19.15-5.32.22-9.37.24s-6.95-.09-9-.24l-.1.11c-.73,0-1.38-.07-2-.11l-.33.36V10.1l.33.39a35.05,35.05,0,0,1,3.9.38,1.64,1.64,0,0,1,1.13,1.45,101.65,101.65,0,0,1,.43,12.06V44.1l-.1,8.73A22.31,22.31,0,0,1,129,58a11.42,11.42,0,0,1-2.66,2.3l-.17.46v1.1l.34.39c.53-.05,1.19-.09,2-.12l.11.12c1.43-.13,3.76-.21,7-.23l23.73.23,0,0,2,0,.34-.39A101.26,101.26,0,0,1,162.46,49l-.36-.38Z" transform="translate(-8.09 -6.21)" style="fill:#002b52"/><path d="M442.71,48.62l0,0,0,0h-2l-.33.42-.8,4.84a8,8,0,0,1-.63,2.32,1.2,1.2,0,0,1-.54.44q-2.2.9-11.93.89H424c-.12-3.19-.17-6.48-.17-9.88V35.77c1.08-.09,2.25-.14,3.47-.16s2.27.07,3.31.16c1.81.19,2.88.56,3.24,1.12s.53,2.32.53,5.31l.34.39H439l.33-.35c-.08-3.12-.13-6-.13-8.6,0-2.41.05-5.08.13-8l-.33-.4h-4.14l-.33.4c-.11,3-.34,4.78-.7,5.24s-1.42.56-3.46.59l-3.1,0c-1,0-2.11-.09-3.46-.19v-8c0-4.82.12-8.61.36-11.33,1.7-.15,3.37-.22,5-.25,1.33,0,2.79.14,4.42.29,2.14.21,3.33.49,3.57.86s.51,2.5.53,6l.34.39H440l.06-.08.07.08h1.94l.33-.43.23-3.61q.09-1.45.3-3.51l.43-4.31L443,7.1l-2,0,0,0c-10.71.15-18.25.22-22.66.24-4.22,0-7.4-.09-9.49-.24l-.09.11c-.74,0-1.4-.07-2-.11l-.33.36V10.1l.33.39a34.73,34.73,0,0,1,3.9.38,1.63,1.63,0,0,1,1.13,1.45,99.42,99.42,0,0,1,.43,12.06V44.1l-.1,8.73a22,22,0,0,1-.37,5.16,11.5,11.5,0,0,1-2.65,2.3l-.18.46v1.1l.34.39c.53-.05,1.2-.09,2-.12l.12.12c1.43-.13,3.76-.21,7-.23l23.74.23,0,0,2.05,0,.34-.39A101.26,101.26,0,0,1,445.11,49l-.37-.38Z" transform="translate(-8.09 -6.21)" style="fill:#002b52"/><path d="M260.28,31.27a16.37,16.37,0,0,0-3.63-1.13c-2.14-.45-3.43-.7-3.9-.78-4.47-.84-7.3-1.7-8.49-2.6q-2.77-2.11-2.77-6.58a9.44,9.44,0,0,1,2.44-6.73,8.79,8.79,0,0,1,5.9-2.71A12.85,12.85,0,0,1,254.61,12a8.17,8.17,0,0,1,3.6,3.12,52.28,52.28,0,0,1,.33,6.07l.34.38H263l.38-.38a78.83,78.83,0,0,1,.95-11.13l-.23-.93q-4.78-2.93-12.58-2.92c-.28,0-.55,0-.82,0s-.83,0-1.25,0q-8.67,0-13.54,5c-3,3.16-4.59,7.4-4.59,12.72q0,7.68,4.23,11.32,2.81,2.42,11.69,4A17.9,17.9,0,0,1,253,41c2.38,1.42,3.57,3.8,3.57,7.12a13.15,13.15,0,0,1-1.31,5.73,9,9,0,0,1-8.14,5.31,13.36,13.36,0,0,1-5.64-1.82,10.11,10.11,0,0,1-4.3-4.28,53.45,53.45,0,0,1-.4-5.75v-.9l-.3-.39h-4.2l-.33.39A67.09,67.09,0,0,1,231,59.12l.39.86a28,28,0,0,0,13.73,3.74c.42,0,.84,0,1.25,0l.82,0a22.22,22.22,0,0,0,9.69-1.95A17,17,0,0,0,264,55.35,20.57,20.57,0,0,0,267.18,44a16.78,16.78,0,0,0-1.84-8.25,10.47,10.47,0,0,0-5.06-4.5Z" transform="translate(-8.09 -6.21)" style="fill:#002b52"/><path d="M491.45,6.94c-.47.07-1.12.12-1.92.17l-.14-.17q-2.94.4-14.33.4H463.63q-12.35,0-14.33-.4l-.14.19a16.5,16.5,0,0,1-1.93-.19l-.29.4a53.36,53.36,0,0,1,.4,5.79l.06,6.65.37.4h4.17l.33-.4c.05-1.44.15-2.86.31-4.23a8.21,8.21,0,0,1,.5-2.5,1.5,1.5,0,0,1,.73-.59c.67-.27,3-.42,6.95-.42h2.7c.07.81.1,4.41.1,10.82V45A104.11,104.11,0,0,1,463.13,57,1.6,1.6,0,0,1,462,58.46a29.6,29.6,0,0,1-3.89.4l-.34.38v2.64l.31.36,2-.11.1.11c1.92-.14,5-.22,9.21-.23s7.21.09,9.23.23l.1-.1c.74,0,1.4.06,2,.1l.34-.39V59.24l-.34-.38a29.85,29.85,0,0,1-3.89-.4A1.6,1.6,0,0,1,475.63,57,101.77,101.77,0,0,1,475.2,45V22.86c0-6.3,0-9.9.06-10.82h2.39q5.6,0,6.27.12A2.37,2.37,0,0,1,486.05,14a54.15,54.15,0,0,1,.37,5.83l.36.36H491l.33-.4.06-6.49a47.1,47.1,0,0,1,.43-5.92v0l-.33-.39Z" transform="translate(-8.09 -6.21)" style="fill:#002b52"/><path d="M401.36,48.62l0,0,0,0h-2L399,49l-.79,4.84a8.25,8.25,0,0,1-.64,2.32,1.15,1.15,0,0,1-.54.44q-2.19.9-11.93.89h-2.45q-.17-4.78-.17-9.88V35.77c1.08-.09,2.25-.14,3.47-.16s2.27.07,3.32.16c1.81.19,2.87.56,3.24,1.12s.52,2.32.52,5.31l.34.39h4.3l.33-.35c-.08-3.12-.12-6-.12-8.6,0-2.41,0-5.08.12-8l-.33-.4h-4.14l-.33.4c-.11,3-.34,4.78-.69,5.24s-1.42.56-3.47.59l-3.09,0c-1,0-2.12-.09-3.47-.19v-8c0-4.82.13-8.61.36-11.33,1.7-.15,3.38-.22,5-.25,1.32,0,2.79.14,4.41.29,2.14.21,3.33.49,3.57.86s.52,2.5.54,6l.34.39h1.93l.07-.08.07.08h1.93l.33-.43.23-3.61c.07-1,.17-2.14.31-3.51L402,7.42l-.37-.32-2,0,0,0q-16.06.23-22.65.24c-4.22,0-7.4-.09-9.49-.24l-.1.11c-.74,0-1.4-.07-2-.11l-.33.36V10.1l.33.39a35.05,35.05,0,0,1,3.9.38,1.62,1.62,0,0,1,1.12,1.45,98.65,98.65,0,0,1,.44,12.06V44.1l-.11,8.73a23,23,0,0,1-.36,5.16,11.42,11.42,0,0,1-2.66,2.3l-.17.46v1.1l.34.39c.53-.05,1.19-.09,2-.12l.11.12c1.43-.13,3.76-.21,7-.23l23.73.23,0,0,2.05,0,.34-.39A101.26,101.26,0,0,1,403.76,49l-.36-.38Z" transform="translate(-8.09 -6.21)" style="fill:#002b52"/><path d="M361.52,58.39c-1-.76-3-3.86-6-9.31l-5.13-9.22q-1.86-3.34-3.54-6.61,10.21-4.44,10.2-15a15.18,15.18,0,0,0-.6-4.52,8.64,8.64,0,0,0-4.86-5.52c-1.8-.8-4.62-1.21-8.47-1.21H341c-1.65,0-4.17.08-7.52.24-1.52.07-3.49.11-5.84.12q-6,0-8.94-.24l-.1.11c-.74,0-1.4-.07-2-.11l-.33.36V10.1l.33.39a35.38,35.38,0,0,1,3.9.38,1.63,1.63,0,0,1,1.12,1.45,99.42,99.42,0,0,1,.43,12.06V45A99.53,99.53,0,0,1,321.67,57a1.61,1.61,0,0,1-1.12,1.44,30.65,30.65,0,0,1-3.9.4l-.33.38v2.64l.33.36,2-.11.11.11c1.9-.14,5-.22,9.2-.23s7.19.09,9.24.23l.08-.1c.75,0,1.41.06,2,.1l.3-.39V59.24l-.32-.38a29.37,29.37,0,0,1-3.9-.4A1.6,1.6,0,0,1,334.17,57,101.77,101.77,0,0,1,333.74,45V24.62q0-9.2.33-13a15.47,15.47,0,0,1,2.39-.26A10.64,10.64,0,0,1,341,12.4q4.2,2.3,4.2,8.87a13.91,13.91,0,0,1-1.43,6.5,9.71,9.71,0,0,1-3.13,3.81,9.32,9.32,0,0,1-5.13,1.2l-1.13,0L334,34.06a10.71,10.71,0,0,1,2,2.38L339.69,43,348,59.12a12.09,12.09,0,0,1,1.26,3.12l2-.12a.7.7,0,0,1,0,.12c1.8-.11,3.23-.19,4.32-.22l4.71.18,1.26,0,.06-.07.75,0,1.27,0,.32-.39V59.36l-.32-.4a3.45,3.45,0,0,1-2.14-.57Z" transform="translate(-8.09 -6.21)" style="fill:#002b52"/><path d="M312.62,7.11l-.14-.17q-2.93.4-14.32.4H286.73q-12.35,0-14.33-.4l-.14.19a14.52,14.52,0,0,1-1.93-.19l-.3.4a48.74,48.74,0,0,1,.4,5.79l.07,6.65.36.4H275l.33-.4c0-1.44.15-2.86.3-4.23a8.89,8.89,0,0,1,.5-2.5,1.61,1.61,0,0,1,.73-.59c.67-.27,3-.42,7-.42h2.7c.06.81.1,4.41.1,10.82V45A104.11,104.11,0,0,1,286.23,57a1.61,1.61,0,0,1-1.14,1.44,29.85,29.85,0,0,1-3.89.4l-.34.38v2.64l.31.36,2-.11.09.11c1.93-.14,5-.22,9.22-.23s7.2.09,9.23.23l.09-.1c.74,0,1.41.06,2,.1l.34-.39V59.24l-.34-.38a29.85,29.85,0,0,1-3.89-.4A1.61,1.61,0,0,1,298.72,57,104.11,104.11,0,0,1,298.29,45V22.86c0-6.3,0-9.9.07-10.82h2.39q5.6,0,6.26.12A2.39,2.39,0,0,1,309.15,14a52.63,52.63,0,0,1,.36,5.83l.37.36h4.17l.33-.4.07-6.49a45.76,45.76,0,0,1,.43-5.95l-.33-.4c-.47.07-1.12.12-1.93.17Z" transform="translate(-8.09 -6.21)" style="fill:#002b52"/></svg>