<svg xmlns="http://www.w3.org/2000/svg" width="35" height="66" viewBox="0 0 35 66" fill="none"><path d="M34.4639 65.6198C29.1915 63.8615 16.6696 48.4761 14.9121 32.4313C13.594 20.1229 8.10196 10.4521 4.80672 5.17711C4.58704 5.17711 4.36737 5.17711 4.36737 5.17711C7.00356 9.13336 -2.88216 27.3761 2.39021 44.7396C7.6626 61.6636 32.9261 65.4 34.4639 65.6198Z" fill="url(#paint0_linear_1981_1221)"></path><path d="M14.6934 32.4313C16.4508 48.4761 28.9727 63.8615 34.2451 65.6198C27.2153 58.5865 32.0483 37.7063 28.9727 26.4969C25.0185 11.9906 7.00449 6.05627 4.3683 5.39689C8.1029 10.4521 13.3753 20.1229 14.6934 32.4313Z" fill="url(#paint1_linear_1981_1221)"></path><path d="M9.6377 13.749L4.14563 23.4199C4.14563 23.4199 4.14563 23.4199 3.92595 23.4199C3.92595 23.4199 3.92595 23.4198 3.92595 23.2001L8.75896 13.3094C8.97865 13.0896 9.19833 12.8699 9.41802 13.0896C9.6377 13.3094 9.6377 13.5292 9.6377 13.749Z" fill="url(#paint2_linear_1981_1221)"></path><path d="M12.0574 20.7823L5.90632 31.9916C5.90632 31.9916 5.90633 31.9916 5.68664 31.9916C5.68664 31.9916 5.68664 31.9916 5.68664 31.7718L11.1787 20.3427C11.3984 20.1229 11.6181 19.9031 11.8378 20.1229C12.0574 20.1229 12.2771 20.3427 12.0574 20.7823Z" fill="url(#paint3_linear_1981_1221)"></path><path d="M14.4725 29.1344L7.66232 39.6844C7.66232 39.6844 7.66233 39.6844 7.44264 39.6844C7.44264 39.6844 7.44264 39.6844 7.44264 39.4646L13.5937 28.6948C13.8134 28.475 14.0331 28.2552 14.2528 28.475C14.4725 28.475 14.6922 28.9146 14.4725 29.1344Z" fill="url(#paint4_linear_1981_1221)"></path><path d="M15.791 36.6073L11.8367 49.7948C11.8367 49.7948 11.8367 49.7948 11.6171 49.7948L14.9123 36.6073C14.9123 36.3875 15.3517 36.1677 15.5713 36.1677C15.5713 36.1677 15.791 36.3875 15.791 36.6073Z" fill="url(#paint5_linear_1981_1221)"></path><path d="M17.7686 43.4208L16.2308 54.6302C16.2308 54.6302 16.2308 54.6302 16.0111 54.6302L16.6701 43.4208C16.6701 43.201 16.8898 42.9812 17.1095 42.9812C17.5489 42.9812 17.7686 43.201 17.7686 43.4208Z" fill="url(#paint6_linear_1981_1221)"></path><path d="M22.1621 51.5531L21.7228 57.2676C21.7228 57.2676 21.7228 57.2676 21.5031 57.2676L21.0637 51.5531C21.0637 51.3333 21.2834 51.1135 21.5031 51.1135C21.7228 51.1135 22.1621 51.3333 22.1621 51.5531Z" fill="url(#paint7_linear_1981_1221)"></path><path d="M19.9641 17.0459L9.63907 14.6282C9.41939 14.6282 9.19971 14.4084 9.41939 13.9688C9.63908 13.749 9.85875 13.5292 10.0784 13.749L19.9641 17.0459C20.1838 16.8261 20.1838 16.8261 19.9641 17.0459Z" fill="url(#paint8_linear_1981_1221)"></path><path d="M21.9417 24.7386L11.8363 22.1011C11.6166 22.1011 11.3969 21.8813 11.6166 21.4417C11.8363 21.2219 12.056 21.0021 12.2756 21.2219L21.9417 24.7386C22.1614 24.5188 22.1614 24.5188 21.9417 24.7386Z" fill="url(#paint9_linear_1981_1221)"></path><path d="M23.2591 31.3323L14.0324 29.1344C13.8127 29.1344 13.593 28.9146 13.8127 28.6948C13.8127 28.475 14.2521 28.2552 14.4718 28.2552L23.2591 31.3323C23.4787 31.1125 23.4787 31.1125 23.2591 31.3323C23.4787 31.3323 23.4787 31.3323 23.2591 31.3323Z" fill="url(#paint10_linear_1981_1221)"></path><path d="M25.6751 38.8054L15.35 37.7064C15.1303 37.7064 14.9107 37.4866 14.9107 37.2668C14.9107 37.047 15.35 36.8272 15.5697 36.8272L25.6751 38.8054C25.8948 38.5856 25.8948 38.8054 25.6751 38.8054Z" fill="url(#paint11_linear_1981_1221)"></path><path d="M25.8955 46.278L17.5476 44.2999C17.3279 44.2999 17.1082 44.0801 17.3279 43.8603C17.3279 43.6405 17.7672 43.4207 17.9869 43.4207L25.8955 46.278C25.8955 46.0582 25.8955 46.0582 25.8955 46.278Z" fill="url(#paint12_linear_1981_1221)"></path><path d="M27.4339 52.8719L21.2828 51.9927C21.0631 51.9927 20.8434 51.7729 20.8434 51.5531C20.8434 51.3333 21.2828 51.1136 21.5024 51.1136L27.4339 52.8719C27.6536 52.6521 27.6536 52.6521 27.4339 52.8719Z" fill="url(#paint13_linear_1981_1221)"></path><path d="M2.39186 0.561612C2.61154 0.781408 2.83123 1.00119 2.83123 1.22098C3.2706 1.66057 3.70996 2.31994 4.14933 3.19911C5.24774 4.73765 6.78552 7.15537 8.3233 10.2325C9.86108 13.3095 11.3989 16.8262 12.7169 21.0022C13.376 22.9804 13.8154 25.1783 14.2547 27.3762C14.2547 28.0356 14.4744 28.4752 14.4744 29.1345C14.4744 29.7939 14.6941 30.2335 14.6941 30.8929C14.9138 31.9918 14.9138 33.0908 15.1335 34.4095C15.5728 36.6075 16.0122 38.8054 16.6712 41.0033C17.3303 43.2012 18.209 45.1793 19.0877 46.9377C20.8452 50.6741 23.042 53.971 25.0192 56.8283C26.9963 59.4658 28.9735 61.6637 30.5112 62.9824C31.1703 63.6418 31.8293 64.3012 32.2687 64.521C32.708 64.9606 32.9277 64.9606 32.9277 64.9606L32.9277 65.1804L32.7081 65.1804C32.7081 65.1804 32.4884 64.9606 32.049 64.7408C31.6096 64.3012 30.9506 63.8616 30.2916 63.2022C28.7538 61.8835 26.7766 59.6856 24.7995 57.0481C22.6027 54.4106 20.4058 51.1137 18.6484 47.1574C17.7696 45.1793 16.8909 43.2012 16.2319 41.0033C15.5728 38.8054 14.9138 36.6075 14.4744 34.4095C14.2547 33.3106 14.035 32.2116 14.035 31.1127C14.035 30.4533 13.8154 30.0137 13.8154 29.3543C13.8154 28.6949 13.5957 28.2554 13.376 27.8158C12.9366 25.6179 12.2776 23.6397 11.6185 21.6616C10.3004 17.7054 8.54297 14.1887 7.00519 11.1116C5.46741 8.25432 3.92963 5.83661 2.61154 4.29807C1.95249 3.4189 1.51313 2.97933 1.29345 2.53974C1.07376 2.31995 1.07377 2.10015 0.854086 2.10015L0.634409 1.88036C0.414724 1.44078 0.414724 1.0012 0.854086 0.561612C1.51314 0.122029 2.17218 0.341825 2.39186 0.561612Z" fill="url(#paint14_linear_1981_1221)"></path><defs><linearGradient id="paint0_linear_1981_1221" x1="16.4122" y1="65.0414" x2="20.8599" y2="0.842809" gradientUnits="userSpaceOnUse"><stop offset="0.0792079" stop-color="#B0E355"></stop><stop offset="0.2109" stop-color="#ADE152"></stop><stop offset="0.3205" stop-color="#A2DA4A"></stop><stop offset="0.4222" stop-color="#91CE3B"></stop><stop offset="0.5191" stop-color="#79BE27"></stop><stop offset="0.6118" stop-color="#5AA90D"></stop><stop offset="0.651" stop-color="#4A9F00"></stop><stop offset="1" stop-color="#346D0A"></stop></linearGradient><linearGradient id="paint1_linear_1981_1221" x1="53.3733" y1="53.2723" x2="3.39906" y2="26.3006" gradientUnits="userSpaceOnUse"><stop offset="0.0792079" stop-color="#B0E355"></stop><stop offset="0.2109" stop-color="#ADE152"></stop><stop offset="0.3205" stop-color="#A2DA4A"></stop><stop offset="0.4222" stop-color="#91CE3B"></stop><stop offset="0.5191" stop-color="#79BE27"></stop><stop offset="0.6118" stop-color="#5AA90D"></stop><stop offset="0.651" stop-color="#4A9F00"></stop><stop offset="1" stop-color="#346D0A"></stop></linearGradient><linearGradient id="paint2_linear_1981_1221" x1="23.9971" y1="81.3186" x2="8.76975" y2="25.7829" gradientUnits="userSpaceOnUse"><stop offset="0.0792079" stop-color="#B0E355"></stop><stop offset="0.2109" stop-color="#ADE152"></stop><stop offset="0.3205" stop-color="#A2DA4A"></stop><stop offset="0.4222" stop-color="#91CE3B"></stop><stop offset="0.5191" stop-color="#79BE27"></stop><stop offset="0.6118" stop-color="#5AA90D"></stop><stop offset="0.651" stop-color="#4A9F00"></stop><stop offset="1" stop-color="#346D0A"></stop></linearGradient><linearGradient id="paint3_linear_1981_1221" x1="23.9603" y1="81.3292" x2="8.7332" y2="25.794" gradientUnits="userSpaceOnUse"><stop offset="0.0792079" stop-color="#B0E355"></stop><stop offset="0.2109" stop-color="#ADE152"></stop><stop offset="0.3205" stop-color="#A2DA4A"></stop><stop offset="0.4222" stop-color="#91CE3B"></stop><stop offset="0.5191" stop-color="#79BE27"></stop><stop offset="0.6118" stop-color="#5AA90D"></stop><stop offset="0.651" stop-color="#4A9F00"></stop><stop offset="1" stop-color="#346D0A"></stop></linearGradient><linearGradient id="paint4_linear_1981_1221" x1="23.8822" y1="81.3506" x2="8.65504" y2="25.8148" gradientUnits="userSpaceOnUse"><stop offset="0.0792079" stop-color="#B0E355"></stop><stop offset="0.2109" stop-color="#ADE152"></stop><stop offset="0.3205" stop-color="#A2DA4A"></stop><stop offset="0.4222" stop-color="#91CE3B"></stop><stop offset="0.5191" stop-color="#79BE27"></stop><stop offset="0.6118" stop-color="#5AA90D"></stop><stop offset="0.651" stop-color="#4A9F00"></stop><stop offset="1" stop-color="#346D0A"></stop></linearGradient><linearGradient id="paint5_linear_1981_1221" x1="24.1143" y1="81.2874" x2="8.88666" y2="25.7513" gradientUnits="userSpaceOnUse"><stop offset="0.0792079" stop-color="#B0E355"></stop><stop offset="0.2109" stop-color="#ADE152"></stop><stop offset="0.3205" stop-color="#A2DA4A"></stop><stop offset="0.4222" stop-color="#91CE3B"></stop><stop offset="0.5191" stop-color="#79BE27"></stop><stop offset="0.6118" stop-color="#5AA90D"></stop><stop offset="0.651" stop-color="#4A9F00"></stop><stop offset="1" stop-color="#346D0A"></stop></linearGradient><linearGradient id="paint6_linear_1981_1221" x1="25.6487" y1="80.8667" x2="10.4211" y2="25.3303" gradientUnits="userSpaceOnUse"><stop offset="0.0792079" stop-color="#B0E355"></stop><stop offset="0.2109" stop-color="#ADE152"></stop><stop offset="0.3205" stop-color="#A2DA4A"></stop><stop offset="0.4222" stop-color="#91CE3B"></stop><stop offset="0.5191" stop-color="#79BE27"></stop><stop offset="0.6118" stop-color="#5AA90D"></stop><stop offset="0.651" stop-color="#4A9F00"></stop><stop offset="1" stop-color="#346D0A"></stop></linearGradient><linearGradient id="paint7_linear_1981_1221" x1="28.7837" y1="80.0067" x2="13.5564" y2="24.4711" gradientUnits="userSpaceOnUse"><stop offset="0.0792079" stop-color="#B0E355"></stop><stop offset="0.2109" stop-color="#ADE152"></stop><stop offset="0.3205" stop-color="#A2DA4A"></stop><stop offset="0.4222" stop-color="#91CE3B"></stop><stop offset="0.5191" stop-color="#79BE27"></stop><stop offset="0.6118" stop-color="#5AA90D"></stop><stop offset="0.651" stop-color="#4A9F00"></stop><stop offset="1" stop-color="#346D0A"></stop></linearGradient><linearGradient id="paint8_linear_1981_1221" x1="32.1804" y1="79.075" x2="16.953" y2="23.5393" gradientUnits="userSpaceOnUse"><stop offset="0.0792079" stop-color="#B0E355"></stop><stop offset="0.2109" stop-color="#ADE152"></stop><stop offset="0.3205" stop-color="#A2DA4A"></stop><stop offset="0.4222" stop-color="#91CE3B"></stop><stop offset="0.5191" stop-color="#79BE27"></stop><stop offset="0.6118" stop-color="#5AA90D"></stop><stop offset="0.651" stop-color="#4A9F00"></stop><stop offset="1" stop-color="#346D0A"></stop></linearGradient><linearGradient id="paint9_linear_1981_1221" x1="32.1198" y1="79.0925" x2="16.8921" y2="23.5562" gradientUnits="userSpaceOnUse"><stop offset="0.0792079" stop-color="#B0E355"></stop><stop offset="0.2109" stop-color="#ADE152"></stop><stop offset="0.3205" stop-color="#A2DA4A"></stop><stop offset="0.4222" stop-color="#91CE3B"></stop><stop offset="0.5191" stop-color="#79BE27"></stop><stop offset="0.6118" stop-color="#5AA90D"></stop><stop offset="0.651" stop-color="#4A9F00"></stop><stop offset="1" stop-color="#346D0A"></stop></linearGradient><linearGradient id="paint10_linear_1981_1221" x1="32.1252" y1="79.0911" x2="16.8975" y2="23.5547" gradientUnits="userSpaceOnUse"><stop offset="0.0792079" stop-color="#B0E355"></stop><stop offset="0.2109" stop-color="#ADE152"></stop><stop offset="0.3205" stop-color="#A2DA4A"></stop><stop offset="0.4222" stop-color="#91CE3B"></stop><stop offset="0.5191" stop-color="#79BE27"></stop><stop offset="0.6118" stop-color="#5AA90D"></stop><stop offset="0.651" stop-color="#4A9F00"></stop><stop offset="1" stop-color="#346D0A"></stop></linearGradient><linearGradient id="paint11_linear_1981_1221" x1="31.7261" y1="79.2012" x2="16.4982" y2="23.6636" gradientUnits="userSpaceOnUse"><stop offset="0.0792079" stop-color="#B0E355"></stop><stop offset="0.2109" stop-color="#ADE152"></stop><stop offset="0.3205" stop-color="#A2DA4A"></stop><stop offset="0.4222" stop-color="#91CE3B"></stop><stop offset="0.5191" stop-color="#79BE27"></stop><stop offset="0.6118" stop-color="#5AA90D"></stop><stop offset="0.651" stop-color="#4A9F00"></stop><stop offset="1" stop-color="#346D0A"></stop></linearGradient><linearGradient id="paint12_linear_1981_1221" x1="30.9473" y1="79.4137" x2="15.72" y2="23.8775" gradientUnits="userSpaceOnUse"><stop offset="0.0792079" stop-color="#B0E355"></stop><stop offset="0.2109" stop-color="#ADE152"></stop><stop offset="0.3205" stop-color="#A2DA4A"></stop><stop offset="0.4222" stop-color="#91CE3B"></stop><stop offset="0.5191" stop-color="#79BE27"></stop><stop offset="0.6118" stop-color="#5AA90D"></stop><stop offset="0.651" stop-color="#4A9F00"></stop><stop offset="1" stop-color="#346D0A"></stop></linearGradient><linearGradient id="paint13_linear_1981_1221" x1="31.7064" y1="79.2052" x2="16.4791" y2="23.6696" gradientUnits="userSpaceOnUse"><stop offset="0.0792079" stop-color="#B0E355"></stop><stop offset="0.2109" stop-color="#ADE152"></stop><stop offset="0.3205" stop-color="#A2DA4A"></stop><stop offset="0.4222" stop-color="#91CE3B"></stop><stop offset="0.5191" stop-color="#79BE27"></stop><stop offset="0.6118" stop-color="#5AA90D"></stop><stop offset="0.651" stop-color="#4A9F00"></stop><stop offset="1" stop-color="#346D0A"></stop></linearGradient><linearGradient id="paint14_linear_1981_1221" x1="29.568" y1="79.7928" x2="14.3403" y2="24.2565" gradientUnits="userSpaceOnUse"><stop offset="0.0792079" stop-color="#B0E355"></stop><stop offset="0.2109" stop-color="#ADE152"></stop><stop offset="0.3205" stop-color="#A2DA4A"></stop><stop offset="0.4222" stop-color="#91CE3B"></stop><stop offset="0.5191" stop-color="#79BE27"></stop><stop offset="0.6118" stop-color="#5AA90D"></stop><stop offset="0.651" stop-color="#4A9F00"></stop><stop offset="1" stop-color="#346D0A"></stop></linearGradient></defs></svg>