<svg xmlns="http://www.w3.org/2000/svg" width="66" height="31" viewBox="0 0 66 31" fill="none"><path d="M63.885 22.1468C64.3244 22.5864 64.7638 23.026 65.2031 23.4656C64.1047 19.5093 56.1961 8.29993 39.2806 2.80514C19.7288 -3.56882 7.64629 5.88226 7.20692 15.5531C7.20692 15.7729 7.20692 15.9926 7.20692 16.2124C51.1434 9.3989 63.885 22.1468 63.885 22.1468Z" fill="url(#paint0_linear_1981_992)"></path><path d="M37.5231 26.7624C56.6355 19.0697 64.5441 23.026 65.2031 23.2458C64.7638 22.8062 64.3244 22.3666 63.885 21.927C63.885 21.927 51.1434 9.17911 7.20693 15.7729C6.98725 26.3229 15.7745 35.5541 37.5231 26.7624Z" fill="url(#paint1_linear_1981_992)"></path><path d="M25.2178 3.68439C25.2178 3.68439 24.9981 3.68434 24.5587 3.90413C24.339 3.90413 24.1194 4.12395 23.68 4.34374C23.4603 4.34374 23.2406 4.56354 23.2406 4.56354C23.0209 4.56354 22.8013 4.78335 22.5816 4.78335C22.3619 4.78335 22.1422 5.00309 21.9225 5.00309C21.7029 5.22288 21.4832 5.2229 21.2635 5.4427C20.8241 5.66249 20.3848 5.88227 19.9454 6.32185C19.506 6.54164 19.0667 6.98121 18.6273 7.201C18.4076 7.42079 18.1879 7.64061 17.9683 7.64061C17.7486 7.8604 17.5289 8.08017 17.3092 8.29996C16.8698 8.73954 16.4305 9.17913 15.9911 9.39892C15.5517 9.8385 15.1124 10.2781 14.8927 10.7177C14.4533 11.1573 14.2336 11.5968 13.7943 11.8166C13.5746 12.2562 13.1352 12.476 12.9155 12.9156C12.4762 13.575 12.0368 14.2344 11.8171 14.674C11.5974 14.8938 11.5975 15.1135 11.5975 15.1135C11.5975 15.3333 11.5975 15.3333 11.5975 15.3333C11.3778 15.5531 11.1581 15.7729 10.9384 15.5531C10.7187 15.3333 10.499 15.1135 10.7187 14.8937C10.7187 14.8937 10.7187 14.8938 10.9384 14.674C10.9384 14.4542 11.1581 14.4542 11.1581 14.2344C11.3778 13.7948 11.8171 13.1354 12.4762 12.4761C12.6959 12.0365 13.1352 11.8167 13.3549 11.3771C13.7943 10.9375 14.014 10.4979 14.4533 10.2781C14.8927 9.83856 15.3321 9.39897 15.7714 9.17918C16.2108 8.7396 16.6502 8.30001 17.0895 8.08022C17.3092 7.86043 17.5289 7.6406 17.7486 7.42081C17.9682 7.20102 18.1879 6.98126 18.4076 6.98126C18.847 6.54168 19.2863 6.32184 19.7257 6.10204C20.1651 5.88225 20.6044 5.44268 21.0438 5.22289C21.2635 5.0031 21.4832 5.00314 21.7028 4.78335C21.9225 4.78335 22.1422 4.56354 22.3619 4.56354C22.5816 4.56354 22.8013 4.34374 23.0209 4.34374C23.2406 4.34374 23.4603 4.12393 23.4603 4.12393C23.8997 3.90414 24.1194 3.90413 24.339 3.90413C24.7784 3.68434 25.2178 3.4646 25.2178 3.68439C25.2178 3.4646 25.2178 3.4646 25.2178 3.68439Z" fill="url(#paint2_linear_1981_992)"></path><path d="M17.0931 14.2346C17.0931 14.2346 17.3127 14.0148 17.7521 13.795C18.1915 13.3554 18.6308 12.9159 19.2899 12.4763C20.608 11.3773 22.3654 10.0585 24.3426 8.73979C24.7819 8.52 25.2213 8.08043 25.8804 7.86064C26.3197 7.64085 26.7591 7.42107 27.4181 6.98149C27.8575 6.7617 28.2969 6.54186 28.7362 6.32207C29.1756 6.10228 29.615 5.88253 30.0543 5.88253C30.4937 5.66274 30.9331 5.66271 31.1527 5.44292C31.5921 5.44292 31.8118 5.22312 32.0315 5.22312C32.2512 5.22312 32.4708 5.22312 32.6905 5.22312C32.9102 5.22312 32.9102 5.22312 32.9102 5.22312C32.9102 5.22312 32.9102 5.22312 33.1299 5.22312C33.1299 5.22312 33.1299 5.22313 33.1299 5.44292C33.1299 5.44292 33.1299 5.44292 32.9102 5.44292C32.6905 5.44292 32.6905 5.44293 32.2512 5.66273C32.0315 5.66273 31.8118 5.88253 31.3724 5.88253C31.1527 5.88253 30.7134 6.10228 30.274 6.32207C29.8346 6.54186 29.3953 6.76168 28.9559 6.76168C28.5166 6.98147 28.0772 7.20124 27.6378 7.42103C27.1985 7.64082 26.7591 7.8606 26.3197 8.30018C25.8804 8.51998 25.441 8.95961 25.0016 9.1794C23.2442 10.4982 21.4867 11.8169 20.1686 13.1356C19.5096 13.795 19.0702 14.2346 18.6308 14.4544C18.1915 14.894 18.1915 14.8939 18.1915 14.8939C17.9718 15.1137 17.7521 15.1137 17.5324 14.8939C16.8734 14.6741 16.8734 14.4544 17.0931 14.2346Z" fill="url(#paint3_linear_1981_992)"></path><path d="M24.9982 13.7949C24.9982 13.7949 25.2179 13.5751 25.6573 13.3553C26.0967 13.1355 26.536 12.6959 27.1951 12.2564C27.8541 11.8168 28.7328 11.3772 29.6116 10.9376C30.0509 10.7178 30.4903 10.498 30.9297 10.2783C31.369 10.0585 31.8084 9.83863 32.4674 9.61884C32.9068 9.39905 33.5659 9.17928 34.0052 8.95949C34.2249 8.95949 34.4446 8.73969 34.6643 8.73969C34.884 8.73969 35.1036 8.51988 35.3233 8.51988C35.543 8.51988 35.7627 8.30008 35.9824 8.30008C36.202 8.30008 36.4217 8.08034 36.6414 8.08034C36.8611 8.08034 37.0808 8.08033 37.3005 7.86053C37.5201 7.86053 37.7398 7.86053 37.9595 7.86053C38.3989 7.86053 38.8382 7.86052 39.0579 7.64073C39.2776 7.64073 39.717 7.64073 39.9367 7.64073C39.717 7.64073 39.4973 7.64073 39.0579 7.64073C38.8382 7.64073 38.3989 7.64074 37.9595 7.86053C37.7398 7.86053 37.5201 7.86055 37.3005 8.08034C37.0808 8.08034 36.8611 8.08029 36.6414 8.30008C36.4217 8.30008 36.202 8.51988 35.9824 8.51988C35.7627 8.51988 35.543 8.73969 35.3233 8.73969C35.1036 8.73969 34.884 8.95949 34.6643 8.95949C34.4446 8.95949 34.2249 9.1793 34.0052 9.1793C33.5659 9.39909 33.1265 9.61885 32.4674 9.83864C32.0281 10.0584 31.5887 10.2782 31.1494 10.498C30.71 10.7178 30.2706 10.9376 29.8313 11.1574C28.9525 11.597 28.2935 12.2563 27.6344 12.6959C26.9754 13.1355 26.536 13.5751 26.0966 13.7949C25.6573 14.0147 25.4376 14.2345 25.4376 14.2345C25.2179 14.4543 24.9982 14.4543 24.7786 14.2345C24.7786 14.4543 24.7786 14.0147 24.9982 13.7949Z" fill="url(#paint4_linear_1981_992)"></path><path d="M32.9104 14.0145C33.13 13.7947 33.3497 13.7947 33.5694 13.7947C33.7891 13.7947 34.0088 13.575 34.2284 13.3552C34.4481 13.1354 34.8875 13.1354 35.1072 12.9156C35.5465 12.6958 35.7662 12.6958 36.2056 12.476C36.645 12.2562 37.0843 12.2562 37.5237 12.0364C37.963 11.8166 38.4024 11.8166 38.8418 11.5968C39.2811 11.377 39.7205 11.3771 40.3796 11.1573C40.8189 10.9375 41.478 10.9375 41.9173 10.9375C42.137 10.9375 42.3567 10.9375 42.5764 10.7177C42.7961 10.7177 43.0158 10.7177 43.2354 10.7177C43.4551 10.7177 43.6748 10.7177 43.8945 10.7177C44.1142 10.7177 44.3338 10.7177 44.5535 10.7177C44.9929 10.7177 45.4323 10.7177 45.8716 10.7177C46.311 10.7177 46.5307 10.7177 46.97 10.7177C47.1897 10.7177 47.6291 10.7177 47.8488 10.7177C47.6291 10.7177 47.4094 10.7177 46.97 10.7177C46.7504 10.7177 46.311 10.7177 45.8716 10.7177C45.4323 10.7177 44.9929 10.7177 44.7732 10.9375C44.5535 10.9375 44.3338 10.9375 44.1142 10.9375C43.8945 10.9375 43.6748 10.9375 43.4551 11.1573C43.2354 11.1573 43.0158 11.1573 42.7961 11.3771C42.5764 11.3771 42.3567 11.5968 42.137 11.5968C41.6977 11.5968 41.2583 11.8166 40.5992 12.0364C40.1599 12.2562 39.7205 12.2562 39.2811 12.476C38.8418 12.6958 38.4024 12.9156 37.9631 12.9156C37.5237 13.1354 37.0843 13.3552 36.645 13.3552C36.2056 13.575 35.9859 13.7947 35.5465 13.7947C35.1072 14.0145 34.8875 14.0145 34.6678 14.2343C34.4481 14.4541 34.2284 14.4542 34.0088 14.674C33.7891 14.674 33.5694 14.8937 33.5694 14.8937L33.3497 14.8937C33.13 15.1135 32.9103 14.8937 32.6907 14.674C32.6907 14.4542 32.6907 14.0145 32.9104 14.0145Z" fill="url(#paint5_linear_1981_992)"></path><path d="M53.5608 14.0146C53.3411 14.0146 53.1215 13.7948 53.1215 13.7948C52.9018 13.7948 52.6821 13.7948 52.4624 13.575C52.2427 13.575 52.023 13.575 51.8034 13.3552C51.5837 13.3552 51.1443 13.3552 50.9246 13.3552C50.705 13.3552 50.2656 13.3552 49.8262 13.3552C49.3869 13.3552 49.1672 13.3552 48.7278 13.3552C48.2884 13.3552 48.0688 13.3552 47.6294 13.575C46.0916 13.7948 44.5538 14.0146 43.4554 14.4542C42.7964 14.674 42.357 14.6739 42.1373 14.8937C41.9177 14.8937 41.698 15.1135 41.698 15.1135C41.4783 15.1135 41.2586 15.1136 41.0389 14.674C41.0389 14.4542 41.0389 14.2344 41.4783 14.0146C41.4783 14.0146 41.698 14.0146 41.9177 13.7948C42.357 13.7948 42.7964 13.575 43.2358 13.575C44.3342 13.3552 45.8719 13.1354 47.4097 13.1354C47.8491 13.1354 48.2884 13.1354 48.5081 13.1354C48.9475 13.1354 49.1672 13.1354 49.6065 13.1354C50.0459 13.1354 50.2656 13.1354 50.705 13.1354C51.1443 13.1354 51.364 13.1354 51.5837 13.3552C51.8034 13.3552 52.023 13.575 52.4624 13.575C52.6821 13.575 52.9018 13.7948 53.1215 13.7948C53.3411 13.7948 53.3411 14.0146 53.5608 14.0146C53.7805 14.0146 53.7805 13.7948 53.5608 14.0146C53.7805 14.0146 53.7805 14.0146 53.5608 14.0146C53.7805 14.0146 53.7805 14.2344 53.5608 14.0146Z" fill="url(#paint6_linear_1981_992)"></path><path d="M11.5975 15.1135C11.5975 15.1135 11.8171 15.3333 12.0368 15.7729C12.2565 16.2125 12.6959 16.8719 13.1352 17.5312C14.2336 19.0698 15.5517 20.8281 17.3092 22.5865C17.7486 23.026 18.1879 23.4656 18.6273 23.9052C18.847 24.125 19.0667 24.3448 19.2863 24.5646C19.506 24.7844 19.7257 25.0042 19.9454 25.224C20.3848 25.6635 20.8241 25.8833 21.2635 26.1031C21.7029 26.3229 22.1422 26.7625 22.3619 26.9823C22.5816 27.2021 22.8013 27.2021 23.0209 27.2021C23.2406 27.2021 23.4603 27.4219 23.4603 27.4219C23.68 27.4219 23.68 27.6417 23.8997 27.6417C24.1194 27.6417 24.1194 27.8614 24.339 27.8614C24.5587 27.8614 24.7784 28.0813 24.9981 28.0813C25.2178 28.0813 25.2178 28.0813 25.2178 28.0813C25.2178 28.0813 25.2178 28.0812 25.2178 28.301C25.2178 28.301 25.2178 28.301 24.9981 28.301C24.9981 28.301 24.9981 28.301 24.7784 28.301C24.5587 28.301 24.339 28.301 24.1194 28.0813C23.8997 28.0813 23.8997 28.0812 23.68 27.8614C23.4603 27.8614 23.4603 27.6417 23.2406 27.6417C23.0209 27.6417 22.8013 27.4219 22.8013 27.4219C22.5816 27.4219 22.3619 27.2021 22.1422 27.2021C21.7028 26.9823 21.2635 26.7625 20.8241 26.5427C20.3848 26.3229 19.9454 25.8833 19.506 25.6635C19.2863 25.4437 19.0667 25.224 18.847 25.224C18.6273 25.0042 18.4076 24.7844 18.1879 24.5646C17.7486 24.125 17.3092 23.6854 16.8698 23.2458C15.1124 21.4875 13.5746 19.7292 12.4762 18.1906C12.0368 17.5313 11.5975 16.8719 11.1581 16.4323C10.9384 16.2125 10.9384 15.9927 10.7187 15.9927C10.7187 15.7729 10.499 15.7729 10.499 15.7729C10.2794 15.5531 10.499 15.3333 10.7187 15.1135C10.9384 14.6739 11.3778 14.8937 11.5975 15.1135Z" fill="url(#paint7_linear_1981_992)"></path><path d="M17.7506 14.674C17.7506 14.674 17.9702 14.8938 18.1899 15.3333C18.4096 15.7729 18.849 16.2125 19.508 16.8719C20.6064 18.1906 21.9245 19.7292 23.4623 21.2677C23.9017 21.7073 24.341 21.9271 24.5607 22.3667C25.0001 22.8062 25.4394 23.026 25.6591 23.4656C26.0985 23.6854 26.5379 24.125 26.7575 24.3448C26.9772 24.5646 27.1969 24.5646 27.4166 24.7844C27.6363 25.0042 27.856 25.0042 27.856 25.224C28.2953 25.4438 28.515 25.6635 28.7347 25.6635C28.9544 25.6635 28.9544 25.8833 29.174 25.8833C29.3937 25.8833 29.3937 25.8833 29.6134 26.1031C29.8331 26.1031 30.0528 26.3229 30.0528 26.3229C30.2725 26.3229 30.2725 26.3229 30.2725 26.3229C30.2725 26.3229 30.2725 26.3229 30.2725 26.5427C30.2725 26.5427 30.2725 26.5427 30.0528 26.5427C30.0528 26.5427 30.0528 26.5427 29.8331 26.5427C29.6134 26.5427 29.6134 26.5427 29.3937 26.3229C29.174 26.3229 29.1741 26.3229 28.9544 26.1031C28.7347 26.1031 28.7347 25.8833 28.515 25.8833C28.2953 25.6636 27.856 25.6636 27.4166 25.4438C27.1969 25.4438 26.9772 25.224 26.7575 25.224C26.5379 25.0042 26.3182 25.0042 26.0985 24.7844C25.6591 24.5646 25.2198 24.3448 24.7804 23.9052C24.341 23.6854 23.9017 23.2458 23.4623 22.8062C23.0229 22.3667 22.5836 22.1469 22.1442 21.7073C20.3867 20.1687 19.0686 18.6302 17.7506 17.3114C17.0915 16.6521 16.6521 16.2125 16.4325 15.7729C16.2128 15.3333 15.9931 15.1135 15.9931 15.1135C15.7734 14.8937 15.7734 14.674 15.9931 14.4542C17.3112 14.4542 17.5309 14.4542 17.7506 14.674Z" fill="url(#paint8_linear_1981_992)"></path><path d="M25.4379 14.2345C25.4379 14.2345 25.6576 14.4542 25.8773 14.8938C26.097 15.3334 26.5363 15.773 26.9757 16.4324C27.4151 17.0918 28.0741 17.7511 28.5135 18.4105C28.7332 18.8501 29.1725 19.0699 29.3922 19.5095C29.8316 19.949 30.0513 20.1688 30.4906 20.6084C30.7103 20.8282 30.93 21.048 30.93 21.048C31.1497 21.2678 31.3693 21.4876 31.589 21.4876C32.0284 21.9272 32.2481 22.147 32.6874 22.3668C32.9071 22.5866 33.1268 22.5865 33.3465 22.8063C33.5662 23.0261 33.7859 23.0262 34.0055 23.2459L34.2252 23.4657L34.4449 23.6855C34.4449 23.6855 34.6646 23.6855 34.6646 23.9053C34.6646 23.9053 34.8843 23.9053 34.8843 24.1251C34.8843 24.1251 35.104 24.1251 35.104 24.3449C35.104 24.3449 35.3236 24.3449 35.3236 24.5647C35.5433 24.5647 35.5433 24.7845 35.763 24.7845C35.9827 24.7845 35.9827 25.0043 36.2024 25.0043C36.4221 25.0043 36.4221 25.0043 36.6417 25.2241C36.8614 25.2241 37.0811 25.2241 37.0811 25.4439C37.3008 25.4439 37.3008 25.4439 37.3008 25.4439C37.3008 25.4439 37.3008 25.4438 37.3008 25.6636C37.3008 25.6636 37.3008 25.6636 37.0811 25.6636C37.0811 25.6636 37.0811 25.6636 36.8614 25.6636C36.6417 25.6636 36.6417 25.6637 36.422 25.4439C36.2024 25.4439 36.2024 25.4439 35.9827 25.4439C35.763 25.4439 35.763 25.4439 35.5433 25.2241C35.3236 25.2241 35.3236 25.0043 35.104 25.0043C35.104 25.0043 34.8843 25.0043 34.8843 24.7845C34.8843 24.7845 34.6646 24.7845 34.6646 24.5647C34.6646 24.5647 34.4449 24.5647 34.4449 24.3449C34.4449 24.3449 34.2252 24.3449 34.2252 24.1251C34.2252 24.1251 34.0055 24.1251 34.0055 23.9053L33.7859 23.6855C33.5662 23.4657 33.3465 23.4657 33.1268 23.2459C32.9071 23.0262 32.6874 23.0261 32.4678 22.8063C32.0284 22.5865 31.589 22.147 31.3694 21.9272C31.1497 21.7074 30.93 21.4876 30.7103 21.4876C30.4906 21.2678 30.2709 21.048 30.0513 21.048C29.6119 20.6084 29.3922 20.3887 28.9528 19.9491C28.5135 19.5095 28.2938 19.2897 27.8544 18.8501C27.1954 18.1907 26.5363 17.5313 26.097 16.872C25.6576 16.2126 25.2182 15.773 24.9986 15.3334C24.7789 14.8938 24.5592 14.6741 24.5592 14.6741C24.3395 14.4543 24.5592 14.2345 24.7789 14.0147C24.9986 14.0147 25.2182 14.0147 25.4379 14.2345Z" fill="url(#paint9_linear_1981_992)"></path><path d="M33.5695 14.2344C33.7892 14.4542 33.7892 14.674 33.7892 14.674C34.0089 14.8938 34.2285 15.3333 34.6679 15.9927C34.8876 16.2125 35.1073 16.4323 35.327 16.8719C35.5466 17.0917 35.7663 17.5313 36.2057 17.7511C36.4254 17.9709 36.8647 18.4104 37.0844 18.6302C37.3041 18.85 37.7435 19.2896 37.9631 19.5094C38.1828 19.7292 38.4025 19.7292 38.4025 19.949C38.6222 20.1688 38.8419 20.1688 38.8419 20.3886C39.2812 20.6083 39.5009 20.8281 39.9403 21.0479C40.3797 21.2677 40.5993 21.4875 41.0387 21.4875C41.2584 21.4875 41.4781 21.7073 41.4781 21.7073C41.6977 21.7073 41.6977 21.9271 41.9174 21.9271C42.1371 21.9271 42.5765 22.1469 42.7962 22.1469C43.0158 22.1469 43.2355 22.3667 43.4552 22.3667C43.8946 22.3667 44.1143 22.5865 44.1143 22.5865C44.1143 22.5865 44.1143 22.5865 44.1143 22.8062C44.1143 22.8062 44.1143 22.8062 43.8946 22.8062C43.8946 22.8062 43.6749 22.8062 43.2355 22.8062C43.0159 22.8062 42.7962 22.8063 42.5765 22.5865C42.3568 22.5865 41.9174 22.3667 41.6978 22.3667C41.4781 22.3667 41.4781 22.3667 41.2584 22.1469C41.0387 22.1469 40.819 21.9271 40.819 21.9271C40.3797 21.7073 40.16 21.7073 39.7206 21.4875C39.2812 21.2677 39.0616 21.0479 38.6222 20.8281C38.4025 20.8281 38.1828 20.6083 37.9631 20.3886C37.7435 20.1688 37.5238 20.1688 37.3041 19.949C36.8647 19.7292 36.6451 19.5094 36.2057 19.0698C35.7663 18.85 35.5466 18.4104 35.327 18.1906C35.1073 17.9708 34.6679 17.5312 34.4482 17.3115C34.2285 17.0917 34.0089 16.6521 33.7892 16.4323C33.3498 15.9927 33.1301 15.5531 32.9105 15.1135C32.6908 14.8937 32.6908 14.8938 32.6908 14.674L32.6908 14.4542C32.4711 14.2344 32.6908 14.0146 32.9105 13.7948C33.1301 13.7948 33.5695 13.7948 33.5695 14.2344Z" fill="url(#paint10_linear_1981_992)"></path><path d="M41.9178 14.4543C41.9178 14.4543 42.1375 14.4543 42.3571 14.6741C42.5768 14.8939 42.7965 15.1136 43.2359 15.3334C44.1146 15.9928 44.9933 16.872 46.0917 17.5313C47.1902 18.4105 48.2886 19.0699 49.1673 19.5094C49.387 19.7292 49.6067 19.7292 49.8264 19.7292C50.046 19.7292 50.2657 19.9491 50.2657 19.9491C50.4854 19.9491 50.4854 19.9491 50.4854 19.9491L50.7051 19.9491C50.7051 19.9491 50.7051 19.949 50.7051 20.1688C50.7051 20.1688 50.7051 20.1688 50.4854 20.1688C50.4854 20.1688 50.4854 20.1688 50.2657 20.1688C50.2657 20.1688 50.046 20.1688 49.8264 20.1688C49.6067 20.1688 49.6067 20.1688 49.387 19.9491C49.1673 19.9491 48.9476 19.7292 48.7279 19.7292C47.8492 19.2897 46.5311 18.6303 45.4327 17.9709C44.3343 17.3115 43.2359 16.4324 42.3571 15.9928C41.9178 15.773 41.6981 15.5532 41.2587 15.3334C41.039 15.1136 40.8194 15.1136 40.8194 15.1136C40.5997 14.8938 40.5997 14.6741 40.5997 14.4543C41.4784 14.4543 41.6981 14.4543 41.9178 14.4543Z" fill="url(#paint11_linear_1981_992)"></path><path d="M63.6642 22.3667C63.4445 22.1469 63.2248 22.1469 63.2248 21.9271C62.7855 21.7073 62.3461 21.2677 61.4674 20.8281C60.8083 20.3886 59.7099 19.949 58.6115 19.5094C57.5131 19.0698 56.195 18.6302 54.8769 17.9708C54.4375 17.751 54.2178 17.751 53.7785 17.5313C53.3391 17.5313 53.1194 17.3115 52.6801 17.3115C52.2407 17.0917 51.8013 17.0917 51.5817 17.0917C51.1423 17.0917 50.7029 16.8719 50.2636 16.8719C49.8242 16.8719 49.3848 16.6521 48.9455 16.6521C48.5061 16.6521 48.0667 16.4323 47.6274 16.4323C47.4077 16.4323 47.188 16.4323 46.9683 16.2125C46.7486 16.2125 46.529 16.2125 46.3093 16.2125C45.8699 16.2125 45.4305 15.9927 44.9912 15.9927C44.5518 15.9927 44.1124 15.7729 43.6731 15.7729C43.2337 15.7729 42.7944 15.5531 42.355 15.5531C41.9156 15.5531 41.4763 15.5531 40.8172 15.3333C40.5975 15.3333 40.3778 15.3333 40.1582 15.3333C39.9385 15.3333 39.7188 15.3333 39.4991 15.3333C39.0598 15.3333 38.6204 15.3333 37.9613 15.3333C37.522 15.3333 37.0826 15.3333 36.4236 15.3333C35.9842 15.3333 35.3251 15.3333 34.8858 15.3333C34.4464 15.3333 33.7874 15.3333 33.348 15.3333L31.8102 15.3333C31.3709 15.3333 30.7118 15.3333 30.2724 15.3333C29.8331 15.3333 29.174 15.3333 28.7347 15.3333C28.2953 15.3333 27.8559 15.3333 27.1969 15.3333C25.2197 15.3333 23.2426 15.5531 21.4851 15.7729C20.6064 15.7729 19.7277 15.9927 18.849 15.9927C18.6293 15.9927 18.4096 15.9927 18.1899 15.9927C17.9702 15.9927 17.7505 15.9927 17.5309 15.9927C17.0915 15.9927 16.6521 15.9927 16.2128 16.2125C15.7734 16.2125 15.334 16.2125 14.8947 16.4323C14.4553 16.4323 14.0159 16.4323 13.5766 16.6521C12.6978 16.6521 12.0388 16.8719 11.1601 16.8719C10.7207 16.8719 10.501 16.8719 10.0617 17.0917C9.62229 17.0917 9.40261 17.0917 8.96325 17.3114C8.3042 17.3114 7.64515 17.5313 6.9861 17.5313C6.32705 17.5313 5.88768 17.7511 5.22863 17.7511C4.78927 17.7511 4.13022 17.9708 3.91054 17.9708C2.15308 18.1906 1.27436 18.4104 1.27436 18.4104C0.834992 18.4104 0.175945 18.1906 0.175945 17.5313C0.175945 17.0917 0.395614 16.4323 1.05466 16.4323C1.05466 16.4323 2.15308 16.2125 3.69086 15.9927C4.13023 15.9927 4.56959 15.7729 5.22863 15.7729C5.668 15.7729 6.32705 15.5531 6.9861 15.5531C7.64515 15.5531 8.3042 15.3333 8.96325 15.3333C9.40261 15.3333 9.62229 15.3333 10.0617 15.1135C10.501 15.1135 10.7207 15.1135 11.1601 14.8937C11.8191 14.8937 12.6978 14.674 13.5766 14.674C14.0159 14.674 14.4553 14.674 14.8947 14.4542C15.334 14.4542 15.7734 14.4542 16.2128 14.2344C16.6521 14.2344 17.0915 14.2344 17.5309 14.0146C17.7505 14.0146 17.9702 14.0146 18.1899 14.0146C18.4096 14.0146 18.6293 14.0146 18.849 14.0146C19.7277 14.0146 20.6064 13.7948 21.7048 13.7948C23.682 13.7948 25.4394 13.575 27.4166 13.575C27.8559 13.575 28.515 13.575 28.9544 13.575C29.3937 13.575 30.0528 13.575 30.4921 13.575C30.9315 13.575 31.5905 13.575 32.0299 13.575L33.5677 13.575C34.0071 13.575 34.6661 13.575 35.1055 13.575C35.5448 13.575 36.2039 13.575 36.6432 13.575C37.0826 13.575 37.7417 13.575 38.181 13.575C38.6204 13.575 39.2794 13.575 39.7188 13.7948C39.9385 13.7948 40.1582 13.7948 40.3778 13.7948C40.5975 13.7948 40.8172 13.7948 41.0369 13.7948C41.4763 13.7948 41.9156 14.0146 42.5747 14.0146C43.014 14.0146 43.4534 14.2344 44.1124 14.2344C44.5518 14.2344 44.9912 14.4542 45.4305 14.4542C45.8699 14.4542 46.3093 14.674 46.7486 14.674C46.9683 14.674 47.188 14.6739 47.4077 14.8937C47.6274 14.8937 47.847 14.8937 48.0667 15.1135C48.5061 15.1135 48.9455 15.3333 49.3848 15.3333C49.8242 15.3333 50.2636 15.5531 50.7029 15.5531C51.1423 15.5531 51.5817 15.7729 52.021 15.7729C52.4604 15.9927 52.8998 15.9927 53.1194 16.2125C53.5588 16.4323 53.9982 16.4323 54.2178 16.6521C54.6572 16.8719 54.8769 16.8719 55.3163 17.0917C56.6344 17.5313 57.9524 18.1906 59.0509 18.6302C60.1493 19.0698 61.028 19.7292 61.9067 20.1688C62.5658 20.6083 63.2248 21.0479 63.6642 21.2677C63.8839 21.4875 63.8839 21.4875 64.1036 21.7073L64.3232 21.9271L64.3232 22.1469C63.8839 22.3667 63.6642 22.3667 63.6642 22.3667Z" fill="url(#paint12_linear_1981_992)"></path><defs><linearGradient id="paint0_linear_1981_992" x1="55.7394" y1="-0.899441" x2="27.5532" y2="24.5471" gradientUnits="userSpaceOnUse"><stop offset="0.0792079" stop-color="#B0E355"></stop><stop offset="0.2109" stop-color="#ADE152"></stop><stop offset="0.3205" stop-color="#A2DA4A"></stop><stop offset="0.4222" stop-color="#91CE3B"></stop><stop offset="0.5191" stop-color="#79BE27"></stop><stop offset="0.6118" stop-color="#5AA90D"></stop><stop offset="0.651" stop-color="#4A9F00"></stop><stop offset="1" stop-color="#346D0A"></stop></linearGradient><linearGradient id="paint1_linear_1981_992" x1="55.8986" y1="35.6661" x2="-13.9893" y2="-7.31285" gradientUnits="userSpaceOnUse"><stop offset="0.0792079" stop-color="#B0E355"></stop><stop offset="0.2109" stop-color="#ADE152"></stop><stop offset="0.3205" stop-color="#A2DA4A"></stop><stop offset="0.4222" stop-color="#91CE3B"></stop><stop offset="0.5191" stop-color="#79BE27"></stop><stop offset="0.6118" stop-color="#5AA90D"></stop><stop offset="0.651" stop-color="#4A9F00"></stop><stop offset="1" stop-color="#346D0A"></stop></linearGradient><linearGradient id="paint2_linear_1981_992" x1="72.2913" y1="19.8253" x2="19.934" y2="10.04" gradientUnits="userSpaceOnUse"><stop offset="0.0792079" stop-color="#B0E355"></stop><stop offset="0.2109" stop-color="#ADE152"></stop><stop offset="0.3205" stop-color="#A2DA4A"></stop><stop offset="0.4222" stop-color="#91CE3B"></stop><stop offset="0.5191" stop-color="#79BE27"></stop><stop offset="0.6118" stop-color="#5AA90D"></stop><stop offset="0.651" stop-color="#4A9F00"></stop><stop offset="1" stop-color="#346D0A"></stop></linearGradient><linearGradient id="paint3_linear_1981_992" x1="72.4444" y1="19.0248" x2="20.0873" y2="9.23954" gradientUnits="userSpaceOnUse"><stop offset="0.0792079" stop-color="#B0E355"></stop><stop offset="0.2109" stop-color="#ADE152"></stop><stop offset="0.3205" stop-color="#A2DA4A"></stop><stop offset="0.4222" stop-color="#91CE3B"></stop><stop offset="0.5191" stop-color="#79BE27"></stop><stop offset="0.6118" stop-color="#5AA90D"></stop><stop offset="0.651" stop-color="#4A9F00"></stop><stop offset="1" stop-color="#346D0A"></stop></linearGradient><linearGradient id="paint4_linear_1981_992" x1="72.5343" y1="18.5275" x2="20.1766" y2="8.74219" gradientUnits="userSpaceOnUse"><stop offset="0.0792079" stop-color="#B0E355"></stop><stop offset="0.2109" stop-color="#ADE152"></stop><stop offset="0.3205" stop-color="#A2DA4A"></stop><stop offset="0.4222" stop-color="#91CE3B"></stop><stop offset="0.5191" stop-color="#79BE27"></stop><stop offset="0.6118" stop-color="#5AA90D"></stop><stop offset="0.651" stop-color="#4A9F00"></stop><stop offset="1" stop-color="#346D0A"></stop></linearGradient><linearGradient id="paint5_linear_1981_992" x1="72.5363" y1="18.5335" x2="20.179" y2="8.74823" gradientUnits="userSpaceOnUse"><stop offset="0.0792079" stop-color="#B0E355"></stop><stop offset="0.2109" stop-color="#ADE152"></stop><stop offset="0.3205" stop-color="#A2DA4A"></stop><stop offset="0.4222" stop-color="#91CE3B"></stop><stop offset="0.5191" stop-color="#79BE27"></stop><stop offset="0.6118" stop-color="#5AA90D"></stop><stop offset="0.651" stop-color="#4A9F00"></stop><stop offset="1" stop-color="#346D0A"></stop></linearGradient><linearGradient id="paint6_linear_1981_992" x1="72.4435" y1="19.0301" x2="20.0869" y2="9.24487" gradientUnits="userSpaceOnUse"><stop offset="0.0792079" stop-color="#B0E355"></stop><stop offset="0.2109" stop-color="#ADE152"></stop><stop offset="0.3205" stop-color="#A2DA4A"></stop><stop offset="0.4222" stop-color="#91CE3B"></stop><stop offset="0.5191" stop-color="#79BE27"></stop><stop offset="0.6118" stop-color="#5AA90D"></stop><stop offset="0.651" stop-color="#4A9F00"></stop><stop offset="1" stop-color="#346D0A"></stop></linearGradient><linearGradient id="paint7_linear_1981_992" x1="70.1366" y1="31.3524" x2="17.7795" y2="21.5674" gradientUnits="userSpaceOnUse"><stop offset="0.0792079" stop-color="#B0E355"></stop><stop offset="0.2109" stop-color="#ADE152"></stop><stop offset="0.3205" stop-color="#A2DA4A"></stop><stop offset="0.4222" stop-color="#91CE3B"></stop><stop offset="0.5191" stop-color="#79BE27"></stop><stop offset="0.6118" stop-color="#5AA90D"></stop><stop offset="0.651" stop-color="#4A9F00"></stop><stop offset="1" stop-color="#346D0A"></stop></linearGradient><linearGradient id="paint8_linear_1981_992" x1="70.5487" y1="29.1577" x2="18.1918" y2="19.3727" gradientUnits="userSpaceOnUse"><stop offset="0.0792079" stop-color="#B0E355"></stop><stop offset="0.2109" stop-color="#ADE152"></stop><stop offset="0.3205" stop-color="#A2DA4A"></stop><stop offset="0.4222" stop-color="#91CE3B"></stop><stop offset="0.5191" stop-color="#79BE27"></stop><stop offset="0.6118" stop-color="#5AA90D"></stop><stop offset="0.651" stop-color="#4A9F00"></stop><stop offset="1" stop-color="#346D0A"></stop></linearGradient><linearGradient id="paint9_linear_1981_992" x1="70.9292" y1="27.1112" x2="18.573" y2="17.326" gradientUnits="userSpaceOnUse"><stop offset="0.0792079" stop-color="#B0E355"></stop><stop offset="0.2109" stop-color="#ADE152"></stop><stop offset="0.3205" stop-color="#A2DA4A"></stop><stop offset="0.4222" stop-color="#91CE3B"></stop><stop offset="0.5191" stop-color="#79BE27"></stop><stop offset="0.6118" stop-color="#5AA90D"></stop><stop offset="0.651" stop-color="#4A9F00"></stop><stop offset="1" stop-color="#346D0A"></stop></linearGradient><linearGradient id="paint10_linear_1981_992" x1="71.4682" y1="24.2476" x2="19.1114" y2="14.4626" gradientUnits="userSpaceOnUse"><stop offset="0.0792079" stop-color="#B0E355"></stop><stop offset="0.2109" stop-color="#ADE152"></stop><stop offset="0.3205" stop-color="#A2DA4A"></stop><stop offset="0.4222" stop-color="#91CE3B"></stop><stop offset="0.5191" stop-color="#79BE27"></stop><stop offset="0.6118" stop-color="#5AA90D"></stop><stop offset="0.651" stop-color="#4A9F00"></stop><stop offset="1" stop-color="#346D0A"></stop></linearGradient><linearGradient id="paint11_linear_1981_992" x1="71.8335" y1="22.2962" x2="19.4762" y2="12.5111" gradientUnits="userSpaceOnUse"><stop offset="0.0792079" stop-color="#B0E355"></stop><stop offset="0.2109" stop-color="#ADE152"></stop><stop offset="0.3205" stop-color="#A2DA4A"></stop><stop offset="0.4222" stop-color="#91CE3B"></stop><stop offset="0.5191" stop-color="#79BE27"></stop><stop offset="0.6118" stop-color="#5AA90D"></stop><stop offset="0.651" stop-color="#4A9F00"></stop><stop offset="1" stop-color="#346D0A"></stop></linearGradient><linearGradient id="paint12_linear_1981_992" x1="71.2544" y1="25.382" x2="18.8975" y2="15.5968" gradientUnits="userSpaceOnUse"><stop offset="0.0792079" stop-color="#B0E355"></stop><stop offset="0.2109" stop-color="#ADE152"></stop><stop offset="0.3205" stop-color="#A2DA4A"></stop><stop offset="0.4222" stop-color="#91CE3B"></stop><stop offset="0.5191" stop-color="#79BE27"></stop><stop offset="0.6118" stop-color="#5AA90D"></stop><stop offset="0.651" stop-color="#4A9F00"></stop><stop offset="1" stop-color="#346D0A"></stop></linearGradient></defs></svg>