<svg xmlns="http://www.w3.org/2000/svg" width="108" height="196" viewBox="0 0 108 196" fill="none"><path d="M81.1258 190.324C80.6864 192.302 80.0273 194.06 79.1486 195.819C89.0343 187.467 111.662 150.981 106.609 95.1541C100.678 30.5354 58.4985 7.45724 30.1594 18.227C29.5004 18.4468 28.8413 18.6666 28.1823 19.1062C101.996 138.013 81.1258 190.324 81.1258 190.324Z" fill="url(#paint0_linear_1981_1142)"></path><path d="M34.9913 120.21C80.9049 165.927 79.3671 193.841 79.1475 195.819C80.0262 194.06 80.6852 192.302 81.1246 190.324C81.1246 190.324 101.994 137.794 28.1811 19.1062C-1.47602 31.6343 -17.0735 68.3395 34.9913 120.21Z" fill="url(#paint1_linear_1981_1142)"></path><path d="M86.6183 55.8112C86.6183 55.8112 85.9593 55.1519 84.8609 54.0529C84.2018 53.3935 83.5428 52.7342 82.8837 52.0748C82.4443 51.6352 82.005 51.1956 81.5656 50.9758C81.1263 50.5362 80.6869 50.0967 80.0278 49.6571C79.5885 49.2175 78.9294 48.7779 78.2704 48.3383C77.6113 47.8987 77.172 47.4591 76.5129 47.0196C75.1948 46.1404 73.8767 45.0415 72.339 44.1623C70.8012 43.2831 69.2634 42.4039 67.7256 41.5248C66.8469 41.0852 66.1878 40.6456 65.3091 40.206C64.4304 39.7665 63.7713 39.3269 62.8926 39.1071C61.1351 38.4477 59.5974 37.5685 57.8399 36.9092C56.0824 36.2498 54.5447 35.5904 52.7872 35.1508C51.2494 34.7112 49.492 34.0519 48.1739 33.8321C46.6361 33.3925 45.318 33.1727 43.9999 32.7331C41.3637 32.0737 39.1669 31.8539 37.6291 31.6341C36.7504 31.6341 36.311 31.4144 35.8716 31.4144C35.4323 31.4144 35.2126 31.4144 35.2126 31.4144C34.3339 31.4144 33.6748 30.5352 33.6748 29.656C33.6748 28.7769 34.5535 28.1175 35.4323 28.1175C35.4323 28.1175 35.652 28.1175 36.0913 28.1175C36.5307 28.1175 37.1897 28.3373 38.0685 28.3373C39.6062 28.5571 42.0228 28.9967 44.6589 29.8758C45.977 30.3154 47.5148 30.755 49.0526 31.1946C50.5904 31.6342 52.1282 32.2935 53.8856 32.7331C55.4234 33.3925 57.1808 34.0519 58.9383 34.7113C60.6958 35.3706 62.2336 36.2498 63.991 37.1289C64.8697 37.5685 65.5288 38.0081 66.4075 38.4477C67.2863 38.8873 67.9453 39.3269 68.824 39.7665C70.3618 40.6456 71.8996 41.7446 73.4374 42.6237C74.9751 43.7227 76.2932 44.6019 77.3916 45.7008C78.0507 46.1404 78.7097 46.7998 79.1491 47.2394C79.8082 47.679 80.2475 48.1185 80.6869 48.7779C81.1263 49.2175 81.7853 49.6571 82.2247 50.0967C82.664 50.5363 83.1034 50.9758 83.5428 51.4154C84.4215 52.2946 85.0805 52.9539 85.5199 53.6133C86.6183 54.9321 87.2774 55.5915 87.2774 55.5915C87.497 55.8113 87.2774 56.031 87.2774 56.031C86.838 56.031 86.6183 56.031 86.6183 55.8112Z" fill="url(#paint2_linear_1981_1142)"></path><path d="M45.9769 45.2615C45.9769 45.2615 46.8556 45.701 48.1737 46.3604C49.4918 47.0198 51.6886 47.8989 54.1051 49.2177C58.9382 51.6354 65.0893 55.1521 71.0207 59.1083C72.5585 60.2073 73.8766 61.0864 75.4143 62.1854C76.7324 63.2844 78.2702 64.3833 79.3686 65.4823C80.6867 66.5812 81.7851 67.6802 82.8836 68.7792C83.982 69.8781 85.0804 70.9771 85.9591 71.8562C86.8378 72.9552 87.7166 73.8344 88.3756 74.7135C89.0347 75.5927 89.6937 76.2521 90.1331 76.9114C90.5724 77.5708 90.7921 78.0104 91.0118 78.45C91.2315 78.8896 91.4512 78.8896 91.4512 78.8896C91.4512 79.1093 91.4512 79.3292 91.4512 79.3292C91.2315 79.3292 91.0118 79.3292 91.0118 79.3292C91.0118 79.3292 90.7921 79.1093 90.5724 78.8896C90.3528 78.45 90.1331 78.0104 89.474 77.351C89.0347 76.6916 88.3756 76.0323 87.7166 75.1531C87.0575 74.2739 86.1788 73.3948 85.3001 72.5156C84.4213 71.6364 83.3229 70.5375 82.2245 69.6583C81.1261 68.7791 79.808 67.6802 78.4899 66.5812C77.1718 65.4823 75.8537 64.6031 74.3159 63.7239C72.9978 62.8448 71.4601 61.7458 69.9223 60.8666C63.9909 57.1302 57.6201 54.0531 52.787 51.8552C50.3705 50.7562 48.3934 49.8771 46.8556 49.4375C45.5375 48.7781 44.6588 48.5583 44.6588 48.5583C43.7801 48.3385 43.3407 47.2396 43.7801 46.5802C43.9997 45.4812 45.0982 45.0417 45.9769 45.2615C45.7572 45.2615 45.7572 45.2615 45.9769 45.2615Z" fill="url(#paint3_linear_1981_1142)"></path><path d="M56.9617 67.8998C56.9617 67.8998 57.8404 68.3394 58.9388 68.9988C60.2569 69.878 62.0144 70.9769 64.2112 72.2957C66.408 73.8342 68.8245 75.5926 71.241 77.5707C72.5591 78.6696 73.8772 79.5488 74.9756 80.6478C76.2937 81.7467 77.6118 82.8457 78.7102 84.1644C80.0283 85.2634 81.1268 86.5821 82.2252 87.6811C82.8842 88.3405 83.3236 88.9998 83.9826 89.4394C84.6417 90.0988 85.081 90.7582 85.5204 91.1978C85.9598 91.8571 86.6188 92.5165 87.0582 92.9561C87.4975 93.6155 87.9369 94.2749 88.3763 94.7144C88.8156 95.3738 89.255 95.8134 89.6944 96.4727C90.1337 97.1321 90.3534 97.5717 90.7928 98.2311C91.4518 99.33 92.1109 100.429 92.5502 101.308C92.9896 102.187 93.429 103.067 93.8683 103.726C94.5274 105.045 94.7471 105.924 94.7471 105.924C94.7471 106.144 94.7471 106.363 94.5274 106.363C94.3077 106.363 94.088 106.363 94.088 106.144C94.088 106.144 93.6487 105.484 92.9896 104.165C92.5502 103.506 92.1109 102.847 91.6715 101.968C91.2322 101.088 90.5731 100.209 89.6944 99.1103C89.255 98.6707 89.0353 98.0113 88.596 97.5717C88.1566 97.1321 87.7172 96.4728 87.2779 95.8134C86.8385 95.154 86.3991 94.7144 85.9598 94.0551C85.5204 93.3957 84.8614 92.9561 84.422 92.2967C83.9826 91.6373 83.3236 91.1978 82.8842 90.5384C82.2252 89.879 81.7858 89.4394 81.1268 88.78C80.0283 87.6811 78.7102 86.5821 77.3922 85.4832C76.0741 84.3842 74.756 83.2853 73.4379 82.4061C72.1198 81.3071 70.8017 80.428 69.4836 79.5488C66.8474 77.7905 64.4309 76.0321 62.2341 74.7134C60.0372 73.3946 58.2798 72.2957 56.9617 71.6363C55.6436 70.9769 54.9845 70.5374 54.9845 70.5374C54.1058 70.0978 53.8861 69.2186 54.3255 68.3394C55.2042 67.8999 56.0829 67.4602 56.9617 67.8998Z" fill="url(#paint4_linear_1981_1142)"></path><path d="M66.4084 91.1978C66.4084 91.1978 66.6281 91.4176 66.8478 91.6374C67.0675 91.8572 67.5068 92.2968 68.1659 92.7363C68.6052 93.1759 69.2643 93.8353 70.143 94.4947C70.8021 95.1541 71.6808 95.8134 72.5595 96.6926C73.4383 97.5718 74.317 98.4509 75.4154 99.5499C76.2941 100.429 77.3925 101.528 78.491 102.627C79.5894 103.726 80.4681 104.825 81.5665 106.144C82.4452 107.462 83.5437 108.561 84.6421 109.88C85.5208 111.199 86.6192 112.518 87.4979 113.836C87.9373 114.496 88.3767 115.155 88.816 115.814C89.2554 116.474 89.6948 117.133 89.9145 117.793C90.3538 118.452 90.7932 119.111 91.0129 119.771C91.4522 120.43 91.6719 121.089 92.1113 121.529C92.7703 122.848 93.4294 123.947 93.8687 125.046C94.3081 126.145 94.7475 127.244 95.1868 128.123C95.6262 129.002 95.8459 129.881 96.0656 130.54C96.5049 131.859 96.7246 132.519 96.7246 132.519C96.7246 132.738 96.7246 132.958 96.5049 132.958C96.2852 132.958 96.0656 132.958 96.0656 132.738C96.0656 132.738 95.8459 132.079 95.1868 130.76C94.9672 130.101 94.5278 129.442 94.0884 128.562C93.6491 127.683 93.2097 126.804 92.5506 125.705C92.1113 124.606 91.2325 123.507 90.5735 122.408C90.1341 121.749 89.9145 121.309 89.4751 120.65C89.0357 119.99 88.5964 119.551 88.157 118.892C87.7176 118.232 87.2783 117.573 86.8389 117.133C86.3995 116.474 85.9602 115.814 85.5208 115.375C84.6421 114.056 83.5437 112.957 82.6649 111.638C81.7862 110.32 80.6878 109.221 79.5894 108.122C78.491 107.023 77.3925 105.924 76.5138 104.825C75.4154 103.726 74.5367 102.847 73.4383 101.968C72.5595 101.088 71.4611 100.209 70.5824 99.3301C69.7037 98.4509 68.8249 97.7915 68.1659 97.1322C67.5068 96.4728 66.8478 96.0332 66.1887 95.5936C65.7494 95.1541 65.31 94.9343 64.8706 94.7145C64.651 94.4947 64.4313 94.2749 64.4313 94.2749C63.7722 93.8353 63.5526 92.7363 63.9919 92.077C64.8706 90.7582 65.7494 90.5384 66.4084 91.1978C66.4084 90.978 66.4084 90.978 66.4084 91.1978Z" fill="url(#paint5_linear_1981_1142)"></path><path d="M91.672 150.981C91.672 150.981 91.672 150.761 91.672 150.542C91.672 150.322 91.672 149.882 91.672 149.443C91.672 149.003 91.4523 148.344 91.4523 147.684C91.2326 147.025 91.013 146.146 90.7933 145.267C90.5736 144.387 90.1342 143.508 89.9146 142.629C89.4752 141.75 89.0358 140.651 88.5965 139.772C88.1571 138.673 87.498 137.794 87.0587 136.695C86.3996 135.596 85.9603 134.717 85.3012 133.618C82.8847 129.442 80.0288 125.705 78.0517 122.628C76.9533 121.089 76.0745 119.991 75.4155 119.111C74.7565 118.232 74.3171 117.793 74.3171 117.793C73.8777 117.133 73.8777 116.034 74.5368 115.595C75.1958 115.155 76.2942 115.155 76.7336 115.814C76.7336 115.814 77.173 116.254 77.6123 117.133C78.2714 118.012 79.1501 119.331 80.0288 120.87C82.006 123.947 84.6422 128.123 86.839 132.519C87.498 133.618 87.9374 134.717 88.3768 135.816C88.8161 136.914 89.2555 138.013 89.6949 139.112C90.1342 140.211 90.5736 141.31 90.7933 142.189C91.013 143.288 91.4523 144.168 91.672 145.047C91.8917 145.926 92.1114 146.805 92.1114 147.464C92.1114 148.124 92.3311 148.783 92.3311 149.443C92.3311 150.102 92.3311 150.322 92.3311 150.761C92.3311 150.981 92.3311 151.201 92.3311 151.201C92.3311 151.421 92.1114 151.421 91.8917 151.421C91.8917 151.421 91.672 151.201 91.672 150.981Z" fill="url(#paint6_linear_1981_1142)"></path><path d="M36.5292 30.3155C36.5292 30.3155 36.0899 30.9749 34.9915 32.2936C34.1127 33.6123 32.7946 35.5905 31.2568 38.0082C28.1813 42.8436 24.6664 49.2176 21.5908 56.2509C20.9318 58.0092 20.2727 59.7676 19.6137 61.5259C19.394 62.4051 18.9546 63.2842 18.7349 64.1634C18.5153 65.0426 18.0759 65.9217 17.8562 66.8009C17.4168 68.5592 16.9775 70.0978 16.5381 71.6363C16.0987 73.1749 15.8791 74.7134 15.6594 76.0322C15.6594 76.6915 15.4397 77.3509 15.4397 78.0103C15.4397 78.6696 15.4397 79.329 15.22 79.7686C15.22 80.428 15.22 80.8676 15.22 81.3071C15.22 81.7467 15.22 82.1863 15.22 82.6259C15.22 83.5051 15.22 84.1644 15.22 84.604C15.22 85.0436 15.22 85.2634 15.22 85.2634C15.22 85.4832 15.0003 85.703 15.0003 85.703C14.7807 85.703 14.7807 85.4832 14.561 85.4832C14.561 85.4832 14.561 85.2634 14.561 84.8238C14.561 84.3842 14.561 83.7248 14.3413 82.8457C14.3413 82.4061 14.3413 81.9665 14.3413 81.5269C14.3413 81.0874 14.3413 80.428 14.3413 79.9884C14.3413 79.329 14.3413 78.8894 14.3413 78.2301C14.3413 77.5707 14.3413 76.9113 14.561 76.2519C14.7807 74.9332 15.0003 73.3947 15.22 71.6363C15.4397 70.0978 15.8791 68.3394 16.3184 66.5811C16.5381 65.7019 16.7578 64.8228 16.9775 63.9436C17.1972 63.0644 17.4168 62.1853 17.8562 61.3061C18.5153 59.5478 18.9546 57.7894 19.8334 56.0311C22.4695 48.9978 25.9845 42.1842 28.8403 37.129C30.1584 34.7113 31.4765 32.7332 32.3553 31.1946C32.7946 30.5353 33.234 29.8759 33.4537 29.6561C33.6734 29.2165 33.893 28.9967 33.893 28.9967C34.3324 28.3374 35.4308 28.1176 36.0899 28.5571C36.7489 28.5571 36.9686 29.6561 36.5292 30.3155Z" fill="url(#paint7_linear_1981_1142)"></path><path d="M45.5381 47.6791C45.5381 47.6791 45.0988 48.3384 44.4397 49.6572C43.7807 50.9759 42.6823 52.9541 41.5838 55.152C39.1673 59.7676 36.3115 65.9218 33.6753 72.2957C33.0162 73.8343 32.3572 75.5926 31.9178 77.1312C31.4784 78.6697 30.8194 80.428 30.38 81.9666C29.9407 83.5051 29.5013 85.0436 29.2816 86.5822C29.0619 87.2415 29.0619 87.9009 28.8423 88.7801C28.6226 89.4395 28.6226 90.0989 28.6226 90.7582C28.4029 92.077 28.4029 93.1759 28.1832 94.2749C28.1832 94.7145 28.1832 95.3739 28.1832 95.8134C28.1832 96.253 28.1832 96.6926 28.1832 97.1322C28.1832 97.7915 28.1832 98.4509 28.4029 98.8905C28.4029 99.3301 28.4029 99.5499 28.4029 99.5499C28.4029 99.7697 28.1832 99.9895 28.1832 99.9895C27.9635 99.9895 27.7438 99.9895 27.7438 99.7697C27.7438 99.7697 27.7438 99.5499 27.7438 99.1103C27.7438 98.6707 27.5242 98.0114 27.5242 97.352C27.5242 96.9124 27.5242 96.4728 27.5242 96.0332C27.5242 95.5936 27.5242 95.1541 27.5242 94.4947C27.5242 93.3957 27.5242 92.2967 27.7438 90.978C27.7438 90.3186 27.9635 89.6593 27.9635 88.9999C27.9635 88.3405 28.1832 87.6811 28.4029 86.802C28.6226 85.2634 29.0619 83.7249 29.2816 82.1863C29.721 80.6478 30.1603 78.8895 30.5997 77.3509C31.0391 75.5926 31.6981 74.054 32.1375 72.2957C34.3343 65.702 37.1902 59.328 39.387 54.4926C40.4854 52.0749 41.3642 50.0968 42.2429 48.778C42.9019 47.4593 43.3413 46.5801 43.3413 46.5801C43.7807 45.9207 44.6594 45.4811 45.5381 45.9207C45.5381 45.9207 45.9775 47.0197 45.5381 47.6791Z" fill="url(#paint8_linear_1981_1142)"></path><path d="M56.3008 69.6581C56.3008 69.6581 55.8615 70.3175 55.2024 71.4165C54.5434 72.5154 53.445 74.2738 52.1269 76.4717C50.8088 78.6696 49.4907 81.0873 48.1726 83.7248C47.5135 85.0436 46.8545 86.5821 46.1954 87.9008C45.5364 89.4394 44.8773 90.7581 44.2183 92.2967C43.9986 92.9561 43.5592 93.8352 43.3396 94.4946C43.1199 95.154 42.6805 96.0331 42.4608 96.6925C42.0215 98.2311 41.3624 99.7696 41.1427 101.088C40.923 101.748 40.7034 102.627 40.4837 103.286C40.264 103.946 40.0443 104.605 40.0443 105.484C40.0443 105.924 39.8246 106.144 39.8246 106.583C39.8246 107.023 39.8246 107.243 39.6049 107.462C39.6049 107.682 39.605 108.122 39.3853 108.341C39.3853 108.561 39.3853 109.001 39.3853 109.221C39.3853 109.44 39.3853 109.88 39.3853 110.1C39.3853 110.32 39.3853 110.759 39.3853 110.979C39.3853 111.638 39.3853 112.078 39.3853 112.518C39.3853 112.957 39.3853 113.397 39.3853 113.836C39.3853 114.276 39.3853 114.715 39.3853 114.935C39.3853 115.595 39.6049 116.254 39.6049 116.474C39.6049 116.913 39.6049 117.133 39.6049 117.133C39.6049 117.353 39.605 117.573 39.3853 117.573C39.1656 117.573 38.9459 117.573 38.9459 117.353C38.9459 117.353 38.9459 117.133 38.7262 116.694C38.7262 116.254 38.5065 115.814 38.5065 114.935C38.5065 114.496 38.5065 114.276 38.2869 113.836C38.2869 113.397 38.2869 112.957 38.2869 112.518C38.2869 112.078 38.2869 111.419 38.2869 110.979C38.2869 110.759 38.2869 110.32 38.2869 110.1C38.2869 109.88 38.2869 109.44 38.2869 109.221C38.2869 109.001 38.2869 108.561 38.2869 108.341C38.2869 108.122 38.2869 107.682 38.2869 107.462C38.2869 107.023 38.2869 106.803 38.2869 106.363C38.2869 105.924 38.2869 105.704 38.5065 105.264C38.5065 104.605 38.7262 103.946 38.9459 103.066C39.1656 102.407 39.1656 101.528 39.3853 100.869C39.8246 99.33 40.0443 97.7915 40.7034 96.2529C40.923 95.3738 41.1427 94.7144 41.3624 93.8352C41.5821 92.9561 41.8018 92.2967 42.2411 91.4175C42.9002 89.879 43.3396 88.3404 43.9986 86.8019C44.6576 85.2633 45.3167 83.7248 45.7561 82.4061C47.0742 79.5488 48.1726 76.9113 49.4907 74.7134C50.5891 72.5154 51.6875 70.7571 52.3465 69.4384C53.0056 68.1196 53.445 67.4602 53.445 67.4602C53.8843 66.8008 54.763 66.5811 55.6418 67.0206C56.5205 67.8998 56.7402 68.779 56.3008 69.6581Z" fill="url(#paint9_linear_1981_1142)"></path><path d="M66.8471 93.3956C66.8471 93.3956 66.8471 93.6154 66.6274 93.8352C66.4077 94.055 66.1881 94.4946 65.7487 94.9342C65.0897 95.8133 64.2109 97.3519 63.1125 99.1102C62.6731 99.9894 62.0141 100.869 61.5747 101.967C61.1354 103.066 60.4763 104.165 60.037 105.264C59.5976 106.363 59.1582 107.682 58.7189 109.001C58.2795 110.32 57.8401 111.638 57.6204 112.957C57.4008 113.616 57.4008 114.276 57.1811 114.935C56.9614 115.595 56.9614 116.254 56.7417 116.913C56.522 118.232 56.3024 119.551 56.3024 120.87C56.0827 122.188 56.0827 123.287 56.0827 124.606C56.0827 125.265 56.0827 125.705 56.0827 126.364C56.0827 126.804 56.0827 127.463 56.0827 127.903C56.0827 129.002 56.3024 129.881 56.3024 130.76C56.522 131.639 56.522 132.299 56.522 132.958C56.7417 134.057 56.9614 134.716 56.9614 134.716C56.9614 134.936 56.9614 135.156 56.7417 135.156C56.522 135.156 56.3024 135.156 56.3024 134.936C56.3024 134.936 56.0827 134.277 55.863 133.178C55.6433 132.519 55.6433 131.859 55.4236 130.98C55.2039 130.101 55.2039 129.222 54.9843 128.123C54.9843 127.683 54.7646 127.024 54.7646 126.584C54.7646 125.925 54.7646 125.485 54.7646 124.826C54.7646 123.727 54.7646 122.408 54.7646 121.089C54.7646 119.771 54.9843 118.452 54.9843 117.133C54.9843 116.474 55.2039 115.814 55.2039 115.155C55.4236 114.496 55.4236 113.836 55.6433 113.177C55.863 111.858 56.3023 110.539 56.7417 109.001C57.1811 107.682 57.6204 106.363 58.0598 105.045C58.4992 103.726 58.9385 102.627 59.3779 101.528C59.8173 100.429 60.2566 99.33 60.9157 98.4508C61.7944 96.4727 62.6731 94.9342 63.3322 94.055C63.7716 93.6154 63.9912 93.1758 64.2109 92.7362C64.4306 92.5164 64.4306 92.2967 64.4306 92.2967C64.87 91.6373 65.9684 91.4175 66.6274 91.8571C67.2865 91.4175 67.2865 92.5165 66.8471 93.3956C66.8471 93.1758 66.8471 93.1758 66.8471 93.3956Z" fill="url(#paint10_linear_1981_1142)"></path><path d="M76.0731 117.793C76.0731 117.793 75.8534 118.232 75.6338 119.111C75.4141 119.99 74.9747 121.309 74.5353 122.848C73.6566 125.925 72.5582 129.881 71.6795 134.057C70.8007 138.233 70.1417 142.189 69.7023 145.486C69.7023 146.365 69.7023 147.025 69.7023 147.684C69.7023 148.344 69.7023 148.783 69.7023 149.223C69.7023 149.662 69.7023 150.102 69.922 150.322C69.922 150.542 69.922 150.761 69.922 150.761C69.922 150.981 69.922 151.201 69.7023 151.201C69.4826 151.201 69.4826 151.201 69.263 150.981C69.263 150.981 69.263 150.761 69.263 150.542C69.263 150.322 69.0433 149.882 69.0433 149.443C69.0433 149.003 68.8236 148.344 68.8236 147.684C68.8236 147.025 68.8236 146.365 68.8236 145.486C68.8236 142.189 69.263 138.013 69.922 133.837C70.5811 129.661 71.2401 125.485 71.8992 122.408C72.1188 120.87 72.5582 119.551 72.7779 118.672C72.9976 117.793 72.9976 117.133 72.9976 117.133C73.2172 116.254 74.096 115.814 74.9747 116.034C75.6338 116.034 76.2928 116.913 76.0731 117.793Z" fill="url(#paint11_linear_1981_1142)"></path><path d="M80.4675 190.104C80.4675 190.104 80.4675 189.884 80.6871 189.664C80.6871 189.225 80.9068 188.785 81.1265 188.126C81.5659 186.807 82.0052 184.609 82.2249 181.972C82.6643 179.334 82.884 176.037 82.884 172.081C82.884 168.345 82.884 163.949 82.4446 159.333C82.2249 158.234 82.2249 156.916 82.0052 155.817C81.7856 154.498 81.7856 153.399 81.5659 152.08C81.3462 150.761 81.1265 149.662 80.9068 148.344C80.6871 147.025 80.4675 145.706 80.2478 144.387C80.0281 143.069 79.8084 141.75 79.369 140.431C79.1494 139.112 78.71 137.794 78.4903 136.255C78.2706 135.596 78.2706 134.936 78.051 134.277C77.8313 133.618 77.6116 132.958 77.6116 132.299C77.1722 130.98 76.9525 129.442 76.5132 128.123C76.0738 126.804 75.6344 125.266 75.1951 123.947C74.7557 122.628 74.3164 121.089 73.877 119.551C73.4376 118.012 72.9983 116.694 72.5589 115.155C72.3392 114.496 72.1195 113.617 71.8998 112.957C71.6802 112.298 71.4605 111.419 71.0211 110.759C70.5818 109.221 69.9227 107.902 69.4833 106.363C69.044 104.825 68.3849 103.506 67.7259 101.968C67.0668 100.429 66.6275 99.1103 65.9684 97.5718C65.3094 96.0332 64.87 94.7145 64.211 93.1759L62.4535 88.7801C61.7945 87.2415 61.1354 85.9228 60.4764 84.3843C59.8173 83.0655 59.1583 81.527 58.4992 80.2082C57.8402 78.8895 57.1811 77.351 56.5221 76.0322C53.8859 70.5374 51.03 65.0426 48.3938 59.7676C47.0757 57.1301 45.5379 54.7124 44.2199 52.0749C43.7805 51.4155 43.5608 50.7561 43.1214 50.3165C42.6821 49.6572 42.4624 48.9978 42.023 48.5582C41.364 47.4593 40.7049 46.1405 40.0459 45.0416C39.3868 43.9426 38.7278 42.6238 38.0687 41.5249C37.4097 40.4259 36.7506 39.327 36.0916 38.228C34.7735 36.0301 33.4554 34.052 32.357 31.8541C31.6979 30.7551 31.2586 29.8759 30.5995 28.9968C29.9405 28.1176 29.5011 27.0186 28.8421 26.1395C27.7437 24.3811 26.6453 22.6228 25.5468 21.0843C24.4484 19.5457 23.5697 18.0072 22.691 16.4686C21.8122 15.1499 20.9335 13.8312 20.2745 12.7322C17.1989 8.11657 15.4414 5.47906 15.4414 5.47906C14.5627 3.94052 14.7824 1.9624 16.3202 1.08323C17.8579 0.204064 19.6154 0.423843 20.7138 1.96238C20.7138 1.96238 22.4713 4.5999 25.3272 9.43532C25.9862 10.5343 26.8649 11.853 27.7437 13.3916C28.6224 14.7103 29.5011 16.4686 30.5995 18.0072C31.6979 19.7655 32.5767 21.5239 33.6751 23.2822C34.3341 24.1614 34.7735 25.2603 35.4326 26.1395C36.0916 27.0186 36.531 28.1176 37.19 29.2166C38.2884 31.1947 39.6065 33.3926 40.9246 35.5905C41.5837 36.6895 42.2427 37.7884 42.9018 39.1072C43.5608 40.2062 44.2199 41.5249 44.8789 42.6238C45.5379 43.7228 46.197 45.0416 46.856 46.3603C47.2954 47.0197 47.5151 47.679 47.9545 48.1186C48.1741 48.778 48.6135 49.4374 48.8332 50.0968C50.1513 52.7343 51.4694 55.152 52.7875 57.7895C55.4237 63.0645 58.0599 68.5593 60.696 74.2739C61.3551 75.5926 62.0141 77.1312 62.6732 78.6697C63.3322 80.2082 63.9913 81.527 64.4306 83.0655C65.0897 84.6041 65.7487 85.9228 66.1881 87.4614L67.9456 91.8572C68.6046 93.3957 69.044 94.7145 69.703 96.253C70.1424 97.7916 70.8014 99.3301 71.2408 100.649C71.6802 102.187 72.3392 103.506 72.7786 105.045C73.2179 106.583 73.6573 108.122 74.3164 109.441C74.536 110.1 74.7557 110.979 74.9754 111.638C75.1951 112.298 75.4148 113.177 75.6345 113.836C76.0738 115.375 76.5132 116.694 76.9525 118.232C77.3919 119.771 77.8313 121.089 78.051 122.628C78.4903 124.167 78.9297 125.485 79.1494 127.024C79.5887 128.562 79.8084 129.881 80.2478 131.42C80.4675 132.079 80.6871 132.738 80.6871 133.618C80.9068 134.277 80.9068 134.936 81.1265 135.816C81.3462 137.134 81.7856 138.673 82.0052 139.992C82.2249 141.31 82.4446 142.629 82.6643 144.168C82.884 145.486 83.1037 146.805 83.3233 148.124C83.543 149.443 83.7627 150.761 83.7627 152.08C83.9824 153.399 83.9824 154.718 84.2021 155.817C84.4217 157.135 84.4217 158.234 84.4217 159.553C84.6414 164.388 84.8611 168.784 84.6414 172.521C84.4217 176.477 84.2021 179.774 83.7627 182.631C83.3233 185.488 82.884 187.467 82.4446 189.005C82.2249 189.664 82.0052 190.324 82.0052 190.763C81.7856 191.203 81.7856 191.423 81.7856 191.423C81.5659 191.862 81.3462 191.862 80.9068 191.862C80.6871 190.763 80.4675 190.544 80.4675 190.104Z" fill="url(#paint12_linear_1981_1142)"></path><defs><linearGradient id="paint0_linear_1981_1142" x1="137.751" y1="138.444" x2="29.1082" y2="88.6166" gradientUnits="userSpaceOnUse"><stop offset="0.0792079" stop-color="#B0E355"></stop><stop offset="0.2109" stop-color="#ADE152"></stop><stop offset="0.3205" stop-color="#A2DA4A"></stop><stop offset="0.4222" stop-color="#91CE3B"></stop><stop offset="0.5191" stop-color="#79BE27"></stop><stop offset="0.6118" stop-color="#5AA90D"></stop><stop offset="0.651" stop-color="#4A9F00"></stop><stop offset="1" stop-color="#346D0A"></stop></linearGradient><linearGradient id="paint1_linear_1981_1142" x1="32.2492" y1="184.363" x2="69.7493" y2="-71.2698" gradientUnits="userSpaceOnUse"><stop offset="0.0792079" stop-color="#B0E355"></stop><stop offset="0.2109" stop-color="#ADE152"></stop><stop offset="0.3205" stop-color="#A2DA4A"></stop><stop offset="0.4222" stop-color="#91CE3B"></stop><stop offset="0.5191" stop-color="#79BE27"></stop><stop offset="0.6118" stop-color="#5AA90D"></stop><stop offset="0.651" stop-color="#4A9F00"></stop><stop offset="1" stop-color="#346D0A"></stop></linearGradient><linearGradient id="paint2_linear_1981_1142" x1="98.4245" y1="212.112" x2="61.6134" y2="48.4497" gradientUnits="userSpaceOnUse"><stop offset="0.0792079" stop-color="#B0E355"></stop><stop offset="0.2109" stop-color="#ADE152"></stop><stop offset="0.3205" stop-color="#A2DA4A"></stop><stop offset="0.4222" stop-color="#91CE3B"></stop><stop offset="0.5191" stop-color="#79BE27"></stop><stop offset="0.6118" stop-color="#5AA90D"></stop><stop offset="0.651" stop-color="#4A9F00"></stop><stop offset="1" stop-color="#346D0A"></stop></linearGradient><linearGradient id="paint3_linear_1981_1142" x1="100.924" y1="211.549" x2="64.1133" y2="47.8882" gradientUnits="userSpaceOnUse"><stop offset="0.0792079" stop-color="#B0E355"></stop><stop offset="0.2109" stop-color="#ADE152"></stop><stop offset="0.3205" stop-color="#A2DA4A"></stop><stop offset="0.4222" stop-color="#91CE3B"></stop><stop offset="0.5191" stop-color="#79BE27"></stop><stop offset="0.6118" stop-color="#5AA90D"></stop><stop offset="0.651" stop-color="#4A9F00"></stop><stop offset="1" stop-color="#346D0A"></stop></linearGradient><linearGradient id="paint4_linear_1981_1142" x1="102.478" y1="211.2" x2="65.6675" y2="47.5383" gradientUnits="userSpaceOnUse"><stop offset="0.0792079" stop-color="#B0E355"></stop><stop offset="0.2109" stop-color="#ADE152"></stop><stop offset="0.3205" stop-color="#A2DA4A"></stop><stop offset="0.4222" stop-color="#91CE3B"></stop><stop offset="0.5191" stop-color="#79BE27"></stop><stop offset="0.6118" stop-color="#5AA90D"></stop><stop offset="0.651" stop-color="#4A9F00"></stop><stop offset="1" stop-color="#346D0A"></stop></linearGradient><linearGradient id="paint5_linear_1981_1142" x1="102.459" y1="211.204" x2="65.6476" y2="47.5438" gradientUnits="userSpaceOnUse"><stop offset="0.0792079" stop-color="#B0E355"></stop><stop offset="0.2109" stop-color="#ADE152"></stop><stop offset="0.3205" stop-color="#A2DA4A"></stop><stop offset="0.4222" stop-color="#91CE3B"></stop><stop offset="0.5191" stop-color="#79BE27"></stop><stop offset="0.6118" stop-color="#5AA90D"></stop><stop offset="0.651" stop-color="#4A9F00"></stop><stop offset="1" stop-color="#346D0A"></stop></linearGradient><linearGradient id="paint6_linear_1981_1142" x1="100.909" y1="211.553" x2="64.0976" y2="47.8916" gradientUnits="userSpaceOnUse"><stop offset="0.0792079" stop-color="#B0E355"></stop><stop offset="0.2109" stop-color="#ADE152"></stop><stop offset="0.3205" stop-color="#A2DA4A"></stop><stop offset="0.4222" stop-color="#91CE3B"></stop><stop offset="0.5191" stop-color="#79BE27"></stop><stop offset="0.6118" stop-color="#5AA90D"></stop><stop offset="0.651" stop-color="#4A9F00"></stop><stop offset="1" stop-color="#346D0A"></stop></linearGradient><linearGradient id="paint7_linear_1981_1142" x1="62.4224" y1="220.207" x2="25.6119" y2="56.5473" gradientUnits="userSpaceOnUse"><stop offset="0.0792079" stop-color="#B0E355"></stop><stop offset="0.2109" stop-color="#ADE152"></stop><stop offset="0.3205" stop-color="#A2DA4A"></stop><stop offset="0.4222" stop-color="#91CE3B"></stop><stop offset="0.5191" stop-color="#79BE27"></stop><stop offset="0.6118" stop-color="#5AA90D"></stop><stop offset="0.651" stop-color="#4A9F00"></stop><stop offset="1" stop-color="#346D0A"></stop></linearGradient><linearGradient id="paint8_linear_1981_1142" x1="69.2781" y1="218.666" x2="32.468" y2="55.0053" gradientUnits="userSpaceOnUse"><stop offset="0.0792079" stop-color="#B0E355"></stop><stop offset="0.2109" stop-color="#ADE152"></stop><stop offset="0.3205" stop-color="#A2DA4A"></stop><stop offset="0.4222" stop-color="#91CE3B"></stop><stop offset="0.5191" stop-color="#79BE27"></stop><stop offset="0.6118" stop-color="#5AA90D"></stop><stop offset="0.651" stop-color="#4A9F00"></stop><stop offset="1" stop-color="#346D0A"></stop></linearGradient><linearGradient id="paint9_linear_1981_1142" x1="75.6693" y1="217.229" x2="38.858" y2="53.5682" gradientUnits="userSpaceOnUse"><stop offset="0.0792079" stop-color="#B0E355"></stop><stop offset="0.2109" stop-color="#ADE152"></stop><stop offset="0.3205" stop-color="#A2DA4A"></stop><stop offset="0.4222" stop-color="#91CE3B"></stop><stop offset="0.5191" stop-color="#79BE27"></stop><stop offset="0.6118" stop-color="#5AA90D"></stop><stop offset="0.651" stop-color="#4A9F00"></stop><stop offset="1" stop-color="#346D0A"></stop></linearGradient><linearGradient id="paint10_linear_1981_1142" x1="84.6126" y1="215.217" x2="47.8025" y2="51.5565" gradientUnits="userSpaceOnUse"><stop offset="0.0792079" stop-color="#B0E355"></stop><stop offset="0.2109" stop-color="#ADE152"></stop><stop offset="0.3205" stop-color="#A2DA4A"></stop><stop offset="0.4222" stop-color="#91CE3B"></stop><stop offset="0.5191" stop-color="#79BE27"></stop><stop offset="0.6118" stop-color="#5AA90D"></stop><stop offset="0.651" stop-color="#4A9F00"></stop><stop offset="1" stop-color="#346D0A"></stop></linearGradient><linearGradient id="paint11_linear_1981_1142" x1="90.7073" y1="213.847" x2="53.8958" y2="50.1859" gradientUnits="userSpaceOnUse"><stop offset="0.0792079" stop-color="#B0E355"></stop><stop offset="0.2109" stop-color="#ADE152"></stop><stop offset="0.3205" stop-color="#A2DA4A"></stop><stop offset="0.4222" stop-color="#91CE3B"></stop><stop offset="0.5191" stop-color="#79BE27"></stop><stop offset="0.6118" stop-color="#5AA90D"></stop><stop offset="0.651" stop-color="#4A9F00"></stop><stop offset="1" stop-color="#346D0A"></stop></linearGradient><linearGradient id="paint12_linear_1981_1142" x1="81.0701" y1="216.014" x2="44.2594" y2="52.3533" gradientUnits="userSpaceOnUse"><stop offset="0.0792079" stop-color="#B0E355"></stop><stop offset="0.2109" stop-color="#ADE152"></stop><stop offset="0.3205" stop-color="#A2DA4A"></stop><stop offset="0.4222" stop-color="#91CE3B"></stop><stop offset="0.5191" stop-color="#79BE27"></stop><stop offset="0.6118" stop-color="#5AA90D"></stop><stop offset="0.651" stop-color="#4A9F00"></stop><stop offset="1" stop-color="#346D0A"></stop></linearGradient></defs></svg>