<svg xmlns="http://www.w3.org/2000/svg" width="32" height="39" viewBox="0 0 32 39" fill="none"><path d="M30.2 35.8C30.1 35.8 30 35.9 29.9 35.8C29.5 35.7 29.2 35.7999 28.8 35.8999C28.7 35.8999 28.6 35.8999 28.6 35.8999C28.3 35.6999 28 35.6999 27.7 35.8999C27.6 35.9999 27.5 35.9999 27.4 35.8999C27.2 35.6999 26.9 35.7 26.6 35.7C26.5 35.7 26.4 35.7 26.3 35.7C26.2 35.7 26.2 35.6 26.1 35.6C25.9 35.4 25.7 35.4 25.4 35.5C25.1 35.6 24.9 35.4999 24.6 35.3999C24.4 35.2999 24.2 35.2999 23.9 35.3999C23.7 35.4999 23.5 35.4999 23.3 35.3999C23 35.2999 22.8 35.2999 22.5 35.3999C22.2 35.4999 22 35.3999 21.7 35.3999C21.5 35.3999 21.4 35.4 21.2 35.5C21 35.6 20.8 35.6 20.5 35.6C20.2 35.6 19.9 35.5 19.6 35.6C18.8 35.8 18.2 35.7 17.6 35.1C17.2 34.7 16.8 34.2 16.5 33.6C16.5 33.7 16.5 33.7999 16.5 33.8999C16.6 34.3999 16.5 35 16.3 35.5C16.2 35.8 15.9 36 15.6 36.1H15.5C15.3 36.1 15.1 36.1999 14.9 36.3999C14.8 36.5999 14.6 36.7 14.4 36.7C14.3 36.7 14.2 36.8 14.1 36.8C13.9 37.2 13.6 37.2 13.2 37.2C13.1 37.2 12.9 37.2 12.8 37.3C12.6 37.4 12.3 37.3999 12.1 37.3999C11.9 37.3999 11.7 37.4 11.5 37.5C11.4 37.6 11.3 37.6 11.3 37.7C11 38 10.8 37.9999 10.5 37.8999C10.4 37.8999 10.3 37.8 10.2 37.8C9.90001 37.7 9.70002 37.6999 9.40002 37.8999C9.10002 38.0999 8.89998 38.0999 8.59998 37.8999C8.39998 37.7999 8.2 37.7 8 37.7C7.8 37.7 7.69998 37.5999 7.59998 37.3999C7.59998 37.2999 7.5 37.2999 7.5 37.2C7.4 36.7999 7.20002 36.7 6.90002 36.6C6.50002 36.5 6.3 36.4 6 36C5.8 35.8 5.60002 35.5999 5.40002 35.3999C5.30002 35.2999 5.20001 35.2 5.20001 35.1C4.50001 33.7 4.6 32.1999 5.5 30.6999C6.1 29.5999 6.9 29 8 28.6C9.3 28.1 10.4 27.2999 11.4 26.1999C11.4 26.1999 11.4 26.1 11.5 26.1C11.4 26.2 11.2 26.2 11.1 26.3C10.2 26.8 9.20001 27.1999 8.20001 27.1999C8.00001 27.1999 7.7 27.1999 7.5 27.1999C7.3 27.1999 7.30002 27.0999 7.40002 26.8999C8.30002 25.7999 9.2 24.7999 10.5 24.1999C10.5 24.1999 10.5 24.2 10.5 24.1C10.1 24.2 9.69999 24.2999 9.29999 24.3999C8.29999 24.6999 7.4 25.2 6.5 25.8C4.9 27 2.89998 27 1.59998 25.8C1.09998 25.3 0.7 24.7 0.5 24V23.8999C0.6 23.3999 0.6 23 0.5 22.5C0.5 22.4 0.5 22.2999 0.5 22.1999C0.6 21.9 0.699988 21.6999 0.799988 21.3999C0.799988 21.2999 0.799988 21.1 0.799988 21C0.799988 20.9 0.700012 20.9 0.700012 20.8C0.600012 20.6 0.600012 20.3 0.700012 20.1C0.800012 19.9 0.900024 19.6999 0.900024 19.3999C1.00002 19.0999 1.09999 18.9 1.29999 18.8C1.59999 18.6 1.80002 18.4 1.90002 18C1.90002 17.9 1.9 17.9 2 17.8C2.1 17.4 2.30001 17.1 2.70001 17C2.80001 17 2.99998 16.9 3.09998 16.8C3.19998 16.7 3.29999 16.6 3.29999 16.5C3.49999 16.2 3.7 15.7999 4 15.6999C4 15.6999 4.09998 15.6 4.09998 15.5C4.29998 15.3 4.39998 15.0999 4.59998 14.8999L4.70001 14.8C5.00001 14.8 5.20002 14.7 5.40002 14.5C5.50002 14.4 5.70002 14.3999 5.90002 14.3999C6.00002 14.3999 6.10001 14.4 6.20001 14.3C6.30001 14.1 6.49998 14 6.59998 13.8C6.69998 13.7 6.9 13.6999 7 13.6999C7.6 13.7999 8.00002 14.1 8.40002 14.6L8.5 14.6999C8.3 14.1999 8.20001 13.7 8.20001 13.1C8.20001 12.8 8.20001 12.5 8.20001 12.3C8.30001 11.8 8.49999 11.3 8.79999 11C9.19999 10.6 9.59999 10.1999 9.79999 9.69995C9.79999 9.59995 9.99998 9.49995 10.1 9.39995C10.3 9.29995 10.4 9.19995 10.5 8.89995C10.6 8.59995 10.8 8.29996 11.1 8.09996C11.2 7.99996 11.3 7.89995 11.4 7.69995C11.5 7.39995 11.7 7.09995 11.9 6.89995C12.1 6.79995 12.2 6.59995 12.2 6.39995C12.3 5.99995 12.5 5.69995 12.8 5.49995C12.9 5.39995 13 5.29995 13 5.19995C13 5.09995 13 4.89996 13.1 4.79996C13.2 4.59996 13.2 4.49996 13.4 4.29996C13.6 4.09996 13.7 3.79995 13.8 3.49995C13.8 3.39995 13.9 3.29996 13.9 3.29996C14.2 3.09996 14.5 2.79995 14.5 2.39995C14.5 2.39995 14.5 2.29996 14.6 2.29996C14.8 2.19996 14.9 1.99995 15.1 1.89995C15.2 1.79995 15.3 1.69996 15.3 1.59996C15.6 0.999959 16.2 0.699956 16.7 0.799956C17 0.799956 17.1 0.99995 17.3 1.19995C18 1.99995 18.4 2.89995 18.7 3.89995C19.1 5.09995 19.2 6.29996 19.2 7.59996C19.3 9.29996 19.2 11.1 18.8 12.8C18.3 15.1 17.7 17.4 16.6 19.5C16.2 20.3 15.8 20.9999 15.3 21.6999C15.4 21.6999 15.6 21.6999 15.8 21.6999C15.8 21.6999 15.9 21.6 16 21.6C16.7 20.8 17.3 20.1 18 19.3C18.5 18.6 19 17.9 19.5 17.1999C19.9 16.5999 20.3 15.8999 20.7 15.1999C20.8 14.9999 21 14.8 21.1 14.5C21.2 14.4 21.2 14.3 21.3 14.3C21.4 14.2 21.6 14.0999 21.7 14.1999C21.8 14.2999 21.9 14.4 21.8 14.6C21.8 14.8 21.7 15 21.6 15.1C21.2 15.7 20.8 16.2 20.4 16.8C20 17.3 19.6 17.7999 19.2 18.1999C18.2 19.2999 17.3 20.4 16.3 21.6C16.3 21.7 16.2 21.6999 16.2 21.6999C16.3 21.9 16.4 22.1999 16.5 22.3999C16.7 22.3999 16.9 22.3 17.1 22.3C19.2 22 21.3 21.7 23.4 21.6C23.8 21.6 24.1 21.6 24.5 21.6C24.7 21.6 24.8 21.6999 24.9 21.8999C25.1 22.0999 24.9 22.2999 24.7 22.3999C24.5 22.3999 24.3 22.3999 24.1 22.3999C23.2 22.2999 22.3 22.1999 21.4 22.1999C19.7 22.0999 18.1 22.2999 16.4 22.6999C16.3 22.6999 16.3 22.8 16.2 22.8C16.1 22.9 16 23.0999 15.9 23.1999C16.4 23.1999 16.9 23.2 17.4 23.3C18.6 23.4 19.7 23.7 20.8 24.1C21.9 24.5 23.1 25 24.1 25.6C25.6 26.5 26.9 27.5 28 28.8C28.6 29.4 29.1 30.1 29.5 30.8C30.1 31.8 30.5 33 30.7 34.2C31.4 35.1 30.8 35.6 30.2 35.8Z" fill="url(#paint0_linear_1972_6951)"></path><defs><linearGradient id="paint0_linear_1972_6951" x1="24.8533" y1="2.96097" x2="13.3714" y2="39.1202" gradientUnits="userSpaceOnUse"><stop offset="0.00353982" stop-color="#9DE05E"></stop><stop offset="0.2876" stop-color="#8ED552"></stop><stop offset="0.8305" stop-color="#67BA33"></stop><stop offset="1" stop-color="#5AB028"></stop></linearGradient></defs></svg>